<?xml version="1.0" encoding="UTF-8"?>
<svg version="1.1" xmlns="http://www.w3.org/2000/svg" width="400" height="400">
<path d="M0 0 C0.98774414 0.23605957 1.97548828 0.47211914 2.99316406 0.71533203 C55.23533174 13.70468793 98.58404064 46.62801552 127 92 C127.56799316 92.89912109 127.56799316 92.89912109 128.14746094 93.81640625 C139.9753301 112.81485698 147.27528323 134.22662657 152 156 C152.26466064 157.13743652 152.26466064 157.13743652 152.53466797 158.29785156 C158.38980667 184.1904471 157.13326383 215.34860368 151 241 C150.76394043 241.98774414 150.52788086 242.97548828 150.28466797 243.99316406 C137.29531207 296.23533174 104.37198448 339.58404064 59 368 C58.40058594 368.37866211 57.80117188 368.75732422 57.18359375 369.14746094 C38.18514302 380.9753301 16.77337343 388.27528323 -5 393 C-6.13743652 393.26466064 -6.13743652 393.26466064 -7.29785156 393.53466797 C-33.1904471 399.38980667 -64.34860368 398.13326383 -90 392 C-90.98774414 391.76394043 -91.97548828 391.52788086 -92.99316406 391.28466797 C-145.23533174 378.29531207 -188.58404064 345.37198448 -217 300 C-217.37866211 299.40058594 -217.75732422 298.80117188 -218.14746094 298.18359375 C-229.9753301 279.18514302 -237.27528323 257.77337343 -242 236 C-242.17644043 235.24170898 -242.35288086 234.48341797 -242.53466797 233.70214844 C-248.38980667 207.8095529 -247.13326383 176.65139632 -241 151 C-240.76394043 150.01225586 -240.52788086 149.02451172 -240.28466797 148.00683594 C-227.29531207 95.76466826 -194.37198448 52.41595936 -149 24 C-148.10087891 23.43200684 -148.10087891 23.43200684 -147.18359375 22.85253906 C-128.18514302 11.0246699 -106.77337343 3.72471677 -85 -1 C-84.24170898 -1.17644043 -83.48341797 -1.35288086 -82.70214844 -1.53466797 C-56.8095529 -7.38980667 -25.65139632 -6.13326383 0 0 Z " fill="#6E91C8" transform="translate(245,4)"/>
<path d="M0 0 C0.98774414 0.23605957 1.97548828 0.47211914 2.99316406 0.71533203 C55.23533174 13.70468793 98.58404064 46.62801552 127 92 C127.56799316 92.89912109 127.56799316 92.89912109 128.14746094 93.81640625 C139.9753301 112.81485698 147.27528323 134.22662657 152 156 C152.26466064 157.13743652 152.26466064 157.13743652 152.53466797 158.29785156 C158.38980667 184.1904471 157.13326383 215.34860368 151 241 C150.76394043 241.98774414 150.52788086 242.97548828 150.28466797 243.99316406 C137.29531207 296.23533174 104.37198448 339.58404064 59 368 C58.40058594 368.37866211 57.80117188 368.75732422 57.18359375 369.14746094 C38.18514302 380.9753301 16.77337343 388.27528323 -5 393 C-6.13743652 393.26466064 -6.13743652 393.26466064 -7.29785156 393.53466797 C-33.1904471 399.38980667 -64.34860368 398.13326383 -90 392 C-90.98774414 391.76394043 -91.97548828 391.52788086 -92.99316406 391.28466797 C-145.23533174 378.29531207 -188.58404064 345.37198448 -217 300 C-217.37866211 299.40058594 -217.75732422 298.80117188 -218.14746094 298.18359375 C-229.9753301 279.18514302 -237.27528323 257.77337343 -242 236 C-242.17644043 235.24170898 -242.35288086 234.48341797 -242.53466797 233.70214844 C-248.38980667 207.8095529 -247.13326383 176.65139632 -241 151 C-240.76394043 150.01225586 -240.52788086 149.02451172 -240.28466797 148.00683594 C-227.29531207 95.76466826 -194.37198448 52.41595936 -149 24 C-148.10087891 23.43200684 -148.10087891 23.43200684 -147.18359375 22.85253906 C-128.18514302 11.0246699 -106.77337343 3.72471677 -85 -1 C-84.24170898 -1.17644043 -83.48341797 -1.35288086 -82.70214844 -1.53466797 C-56.8095529 -7.38980667 -25.65139632 -6.13326383 0 0 Z M138 157 C138.66 157.99 139.32 158.98 140 160 C37.58029759 160 -64.83940482 160 -233 160 C-234.64905639 163.29811278 -234.07728929 166.95952106 -234.02172852 170.58056641 C-234.01212097 171.46843338 -234.00251343 172.35630035 -233.99261475 173.27107239 C-233.95955406 176.21464799 -233.91924869 179.15807842 -233.87890625 182.1015625 C-233.85461204 184.13894128 -233.83076814 186.17632547 -233.80735779 188.2137146 C-233.74444728 193.58302975 -233.6754004 198.95224933 -233.60510254 204.32147217 C-233.53448194 209.79760374 -233.46962746 215.27380321 -233.40429688 220.75 C-233.27519476 231.50007461 -233.13961398 242.25005713 -233 253 C-228.38 253 -223.76 253 -219 253 C-219 222.97 -219 192.94 -219 162 C-213.555 162.495 -213.555 162.495 -208 163 C-208.64965225 163.65727081 -209.2993045 164.31454163 -209.96864319 164.99172974 C-212.51137635 168.75730579 -212.55799434 171.74690312 -212.50170898 176.13232422 C-212.50711197 176.93801346 -212.51251495 177.7437027 -212.51808167 178.57380676 C-212.53057344 181.2344759 -212.51406067 183.89406269 -212.49609375 186.5546875 C-212.49624888 188.41732845 -212.49774016 190.27996973 -212.50050354 192.14260864 C-212.50188825 196.05159744 -212.48932929 199.96021973 -212.46655273 203.86914062 C-212.4383651 208.83935784 -212.44085058 213.8089572 -212.45364285 218.77921867 C-212.46066172 222.63155222 -212.45273742 226.48374751 -212.44038582 230.33606339 C-212.43591729 232.1657775 -212.43549355 233.99550673 -212.43945122 235.82522202 C-212.45617039 250.37404628 -211.38480853 264.01817171 -205.375 277.5 C-205.02800049 278.2955127 -204.68100098 279.09102539 -204.32348633 279.91064453 C-198.41175583 293.11267302 -190.84291014 304.42663271 -181 315 C-180.15260254 315.91313965 -180.15260254 315.91313965 -179.28808594 316.84472656 C-148.29247316 349.86289156 -101.27085717 372.17140743 -55.80566406 374.13818359 C-51.91178722 374.24430494 -48.02010018 374.29855586 -44.125 374.3125 C-43.42457581 374.31511841 -42.72415161 374.31773682 -42.00250244 374.32043457 C-23.3228939 374.327857 -4.73924481 372.05522299 13 366 C14.29145045 365.58786353 15.58313007 365.17644469 16.875 364.765625 C40.33572857 357.10248936 61.37877988 345.1760094 80 329 C80.72445313 328.39671875 81.44890625 327.7934375 82.1953125 327.171875 C103.20304158 309.43911509 119.33278015 281.59506394 122 254 C122.14148916 251.09167836 122.16680243 248.18806075 122.17700195 245.27661133 C122.18357315 244.44466751 122.19014435 243.61272369 122.19691467 242.75556946 C122.21646168 240.03105557 122.22826155 237.306596 122.23828125 234.58203125 C122.24235678 233.64680822 122.2464323 232.7115852 122.25063133 231.74802208 C122.27140169 226.80800987 122.28574831 221.86802479 122.29516602 216.92797852 C122.30627765 211.83018518 122.34075755 206.73282265 122.38033772 201.63518238 C122.40645551 197.7069568 122.41485299 193.7788354 122.41844749 189.85053062 C122.42331736 187.97064963 122.43494274 186.09077341 122.45348549 184.21097755 C122.47779872 181.58536681 122.47692776 178.9608936 122.4699707 176.33520508 C122.48278076 175.5615863 122.49559082 174.78796753 122.50878906 173.99090576 C122.46092246 169.03502865 121.49899192 166.5139473 118 163 C121.96 162.67 125.92 162.34 130 162 C130 192.03 130 222.06 130 253 C134.62 253 139.24 253 144 253 C144.24641078 241.07420139 144.46569344 229.14824356 144.65021229 217.22131729 C144.73674488 211.68332705 144.83266729 206.14582955 144.94995117 200.60839844 C145.06276283 195.26588415 145.15103657 189.92347925 145.22220421 184.5802536 C145.25370678 182.54032697 145.2940968 180.50051786 145.34345436 178.46094513 C145.41101377 175.60690131 145.44714258 172.75407604 145.47583008 169.89941406 C145.51682076 168.6305838 145.51682076 168.6305838 145.55863953 167.33612061 C145.57343522 162.37308847 145.57343522 162.37308847 142.59526062 158.44378662 C140.20368028 156.83794964 140.20368028 156.83794964 138 157 Z " fill="#2A3B3C" transform="translate(245,4)"/>
<path d="M0 0 C2.89053549 1.29575729 4.96674352 2.55406502 7 5 C7.25146817 7.97234073 7.31992061 10.72595673 7.2487793 13.6940918 C7.23946381 14.5821048 7.23014832 15.4701178 7.22055054 16.38504028 C7.18614504 19.32348539 7.13025683 22.26111308 7.07421875 25.19921875 C7.04618981 27.23515579 7.01949897 29.27111165 6.99409485 31.30708313 C6.92359369 36.66836381 6.83488227 42.0291956 6.74243164 47.39013672 C6.65131532 52.85954588 6.57734647 58.32918363 6.50195312 63.79882812 C6.3514586 74.53284631 6.18173352 85.26646846 6 96 C1.38 96 -3.24 96 -8 96 C-8 65.97 -8 35.94 -8 5 C-13.94 5.495 -13.94 5.495 -20 6 C-19.34936584 6.65804123 -18.69873169 7.31608246 -18.02838135 7.99406433 C-15.49004984 11.75571459 -15.46183617 14.71808163 -15.54589844 19.0949707 C-15.54531433 19.89549362 -15.54473022 20.69601654 -15.54412842 21.52079773 C-15.54690626 24.1562395 -15.57798299 26.79053805 -15.609375 29.42578125 C-15.61683848 31.25708905 -15.62253091 33.08840486 -15.62652588 34.91972351 C-15.64177379 39.73184387 -15.68104831 44.54347873 -15.7253418 49.35540771 C-15.7663127 54.26877271 -15.78454078 59.18221642 -15.8046875 64.09570312 C-15.8475434 73.73068167 -15.91578452 83.36530041 -16 93 C-16.33 93 -16.66 93 -17 93 C-17 89.37 -17 85.74 -17 82 C-25.415 82.495 -25.415 82.495 -34 83 C-33.896875 84.4025 -33.79375 85.805 -33.6875 87.25 C-33.6875 90.91092832 -33.71326831 91.66411431 -36.1875 94.5625 C-39.14353896 96.07336436 -40.73790111 96.45306929 -44 96 C-44.33 95.67 -44.66 95.34 -45 95 C-46.41120902 94.77428816 -47.83176043 94.60611651 -49.25390625 94.46484375 C-50.10791016 94.37783203 -50.96191406 94.29082031 -51.84179688 94.20117188 C-52.73962891 94.11416016 -53.63746094 94.02714844 -54.5625 93.9375 C-55.46419922 93.84662109 -56.36589844 93.75574219 -57.29492188 93.66210938 C-59.52958434 93.43746077 -61.76457839 93.21694231 -64 93 C-64 92.34 -64 91.68 -64 91 C-65.32 91 -66.64 91 -68 91 C-68 90.34 -68 89.68 -68 89 C-59.75 89 -51.5 89 -43 89 C-52.37923858 88.14441075 -52.37923858 88.14441075 -61.6875 87.9375 C-62.88761719 87.94652344 -64.08773438 87.95554687 -65.32421875 87.96484375 C-66.20722656 87.97644531 -67.09023438 87.98804688 -68 88 C-68 87.34 -68 86.68 -68 86 C-68.58523438 86.02320313 -69.17046875 86.04640625 -69.7734375 86.0703125 C-78.94485247 86.26310501 -87.91579492 85.11928599 -97 84 C-97 82.68 -97 81.36 -97 80 C-97.66 80 -98.32 80 -99 80 C-98.84660156 79.36707031 -98.69320313 78.73414063 -98.53515625 78.08203125 C-97.81937036 73.95973151 -97.63849837 69.86233493 -97.4375 65.6875 C-97.39431641 64.85154297 -97.35113281 64.01558594 -97.30664062 63.15429688 C-97.20114693 61.10303065 -97.10012685 59.0515352 -97 57 C-97.66 57 -98.32 57 -99 57 C-98.75443359 56.15900757 -98.75443359 56.15900757 -98.50390625 55.30102539 C-97.96556686 52.84276532 -97.90238599 50.697903 -97.9375 48.18359375 C-97.94587891 47.25885254 -97.95425781 46.33411133 -97.96289062 45.38134766 C-97.97513672 44.40987793 -97.98738281 43.4384082 -98 42.4375 C-98.05411781 34.90405491 -98.00239625 27.482172 -97 20 C-98.62542193 20.64477069 -100.25032424 21.29085143 -101.875 21.9375 C-102.77992188 22.29714844 -103.68484375 22.65679687 -104.6171875 23.02734375 C-106.96137667 23.94901262 -106.96137667 23.94901262 -109 25 C-108.855625 25.71542969 -108.71125 26.43085938 -108.5625 27.16796875 C-107.13013204 34.85699952 -106.7732437 42.18950511 -107 50 C-106.34 50 -105.68 50 -105 50 C-105.01740234 51.26457031 -105.01740234 51.26457031 -105.03515625 52.5546875 C-105.04417969 53.65039062 -105.05320312 54.74609375 -105.0625 55.875 C-105.07990234 57.51082031 -105.07990234 57.51082031 -105.09765625 59.1796875 C-105.19744303 61.95177546 -105.19744303 61.95177546 -104 64 C-104.33 64.66 -104.66 65.32 -105 66 C-105.33 71.28 -105.66 76.56 -106 82 C-117.88 81.67 -129.76 81.34 -142 81 C-142 73.66666667 -142 73.66666667 -139 69 C-137.06722826 64.08280131 -135.7412878 59.04117838 -134.5390625 53.90625 C-134 52 -134 52 -132.375 48.375 C-130.97550969 44.93988742 -130.73199405 42.66274797 -131 39 C-130.01 39 -129.02 39 -128 39 C-126.47648314 32.36181939 -125.17855732 25.70774643 -124 19 C-124.66 19 -125.32 19 -126 19 C-126 19.66 -126 20.32 -126 21 C-127.28306433 21.58185475 -128.57687468 22.14006993 -129.875 22.6875 C-132.20101524 23.90949862 -132.20101524 23.90949862 -134 26 C-134.96691594 29.79395268 -135.33146736 33.52302559 -135.64453125 37.41015625 C-135.93557746 40.34940311 -136.22683458 42.22269522 -137.5 44.8125 C-139.14858654 48.31574641 -139.77665645 51.48725541 -140.48046875 55.26953125 C-142.27556731 64.70392143 -145.13848459 73.21919433 -149 82 C-149.67335152 83.66397715 -150.34222739 85.32980318 -151 87 C-152.32 86.67 -153.64 86.34 -155 86 C-155.27714844 84.78441406 -155.55429688 83.56882812 -155.83984375 82.31640625 C-156.20553898 80.73172693 -156.57143475 79.14709388 -156.9375 77.5625 C-157.21110352 76.35883789 -157.21110352 76.35883789 -157.49023438 75.13085938 C-158.09661008 71.25047271 -158.09661008 71.25047271 -160 68 C-160.24261665 65.74456376 -160.38332133 63.49054477 -160.5234375 61.2265625 C-161.08363037 58.60926796 -161.96995128 57.6826607 -164 56 C-163.67 55.34 -163.34 54.68 -163 54 C-163.41345847 51.42672702 -163.88612155 48.91837976 -164.4375 46.375 C-164.58509766 45.66859375 -164.73269531 44.9621875 -164.88476562 44.234375 C-165.25049493 42.48831251 -165.62447121 40.74398116 -166 39 C-166.99 38.67 -167.98 38.34 -169 38 C-168.96519531 37.24074219 -168.93039063 36.48148438 -168.89453125 35.69921875 C-168.85392578 34.20841797 -168.85392578 34.20841797 -168.8125 32.6875 C-168.77769531 31.70136719 -168.74289063 30.71523437 -168.70703125 29.69921875 C-168.78166221 26.99148455 -168.78166221 26.99148455 -170.3125 25.125 C-172.10773837 23.67092157 -172.10773837 23.67092157 -175.1875 24.3125 C-176.115625 24.539375 -177.04375 24.76625 -178 25 C-178.144375 25.804375 -178.28875 26.60875 -178.4375 27.4375 C-179 30 -179 30 -180 31 C-180.46600409 33.28987706 -180.87872255 35.59062906 -181.26953125 37.89453125 C-181.52118569 39.3405468 -181.77314963 40.78650852 -182.02539062 42.23242188 C-182.41731375 44.50450692 -182.8065104 46.7769617 -183.18969727 49.05053711 C-186.98810074 71.48215111 -186.98810074 71.48215111 -192 79 C-191.95875 79.78375 -191.9175 80.5675 -191.875 81.375 C-192.04680271 84.98285693 -193.53254734 86.4599752 -196 89 C-196.66 89 -197.32 89 -198 89 C-199.56023657 84.60013286 -201.00042325 80.27902792 -201.875 75.6875 C-202.89259225 70.74739405 -204.8515485 66.30138099 -206.87890625 61.69921875 C-207.81203983 59.45254522 -208.49851678 57.37218469 -209 55 C-209.99 55 -210.98 55 -212 55 C-211.96519531 54.41992188 -211.93039063 53.83984375 -211.89453125 53.2421875 C-211.71018443 47.92246509 -212.30372915 44.71847398 -215 40 C-215 39.01 -215 38.02 -215 37 C-216.32 37 -217.64 37 -219 37 C-219 36.34 -219 35.68 -219 35 C-218.34 34.67 -217.68 34.34 -217 34 C-217.99 28.555 -217.99 28.555 -219 23 C-220.32 22.67 -221.64 22.34 -223 22 C-224.36733028 22.95298777 -225.70264493 23.95374591 -227 25 C-227.99 25 -228.98 25 -230 25 C-229.45294868 29.5952311 -228.16523048 32.92936669 -226 37 C-224.89438947 39.60143655 -223.9390011 42.18706329 -223.0625 44.875 C-222.1092941 47.67854676 -220.98728975 50.34588659 -219.796875 53.0546875 C-218.33128447 56.63245262 -217.17688275 60.31911138 -216 64 C-215.34 64 -214.68 64 -214 64 C-213.01 68.95 -213.01 68.95 -212 74 C-211.01 74 -210.02 74 -209 74 C-209 76.97 -209 79.94 -209 83 C-218.9 83.33 -228.8 83.66 -239 84 C-240 74 -240 74 -240 72 C-243.93858451 72.05174717 -247.87495428 72.14679367 -251.8125 72.25 C-253.49182617 72.27126953 -253.49182617 72.27126953 -255.20507812 72.29296875 C-256.27822266 72.32519531 -257.35136719 72.35742188 -258.45703125 72.390625 C-259.9416687 72.4220459 -259.9416687 72.4220459 -261.45629883 72.45410156 C-264.55461963 72.82797606 -264.55461963 72.82797606 -267 77 C-262.05 77 -257.1 77 -252 77 C-249.75 84.875 -249.75 84.875 -249.8046875 89.27734375 C-249.81113281 90.20224609 -249.81757813 91.12714844 -249.82421875 92.08007812 C-249.84935547 93.49450195 -249.84935547 93.49450195 -249.875 94.9375 C-249.88402344 95.90751953 -249.89304687 96.87753906 -249.90234375 97.87695312 C-249.92573893 100.25156407 -249.95851824 102.62564776 -250 105 C-261.20810235 112.03365607 -276.86821642 112.42324081 -289.80859375 110.60546875 C-292.730649 109.79812728 -293.9049103 108.15857727 -296 106 C-299.20032845 104.22203975 -302.29048374 102.89833069 -305.75 101.6875 C-309 100 -309 100 -310.25 96.9375 C-310.4975 95.968125 -310.745 94.99875 -311 94 C-311.99 93.34 -312.98 92.68 -314 92 C-314.73046875 89.3984375 -314.73046875 89.3984375 -315.1875 86.375 C-315.42533203 84.87066406 -315.42533203 84.87066406 -315.66796875 83.3359375 C-315.77753906 82.56507813 -315.88710938 81.79421875 -316 81 C-316.99 81 -317.98 81 -319 81 C-318.67 78.69 -318.34 76.38 -318 74 C-318.99 74 -319.98 74 -321 74 C-318.1588785 51.1588785 -318.1588785 51.1588785 -313 46 C-312.3574765 43.93125966 -312.3574765 43.93125966 -312 42 C-311.01 42 -310.02 42 -309 42 C-308.86343994 41.09652832 -308.86343994 41.09652832 -308.72412109 40.17480469 C-306.92713086 34.77777537 -299.13873664 31.86979571 -294.40234375 29.328125 C-284.4716323 24.60652797 -273.95118788 25.44298517 -263.69848633 28.8125 C-261.08163703 29.76642202 -258.53295298 30.84302311 -256 32 C-255.505 30.515 -255.505 30.515 -255 29 C-253.34795544 28.29788106 -251.68076231 27.63028587 -250 27 C-249.67 26.34 -249.34 25.68 -249 25 C-250.39025391 24.90912109 -250.39025391 24.90912109 -251.80859375 24.81640625 C-253.00613281 24.73261719 -254.20367187 24.64882812 -255.4375 24.5625 C-256.63246094 24.48128906 -257.82742188 24.40007812 -259.05859375 24.31640625 C-262 24 -262 24 -263 23 C-276.86912378 21.90372735 -290.69099741 23.4884116 -303 30 C-304.2375 30.433125 -305.475 30.86625 -306.75 31.3125 C-311.30111257 33.67557768 -313.88348137 36.99916029 -317 41 C-317.86044922 42.06927734 -317.86044922 42.06927734 -318.73828125 43.16015625 C-321.73739235 46.77779327 -321.73739235 46.77779327 -323.4765625 51.046875 C-324.11999652 53.44774821 -325.24632869 54.2872174 -327 56 C-329.74693021 64.69861234 -329.62901068 73.94981311 -330 83 C-331.85281834 83.3407482 -333.70734395 83.67221783 -335.5625 84 C-336.59503906 84.185625 -337.62757813 84.37125 -338.69140625 84.5625 C-342 85 -342 85 -349 85 C-348.505 92.92 -348.505 92.92 -348 101 C-348.33 101 -348.66 101 -349 101 C-350.09178614 96.57465954 -350.16116123 92.23916337 -350.17700195 87.70898438 C-350.18357315 86.88723221 -350.19014435 86.06548004 -350.19691467 85.21882629 C-350.21656187 82.5104665 -350.22828762 79.80216178 -350.23828125 77.09375 C-350.24235678 76.16680832 -350.2464323 75.23986664 -350.25063133 74.28483582 C-350.27144987 69.3837405 -350.28577292 64.48267287 -350.29516602 59.58154297 C-350.30625531 54.52065399 -350.34069612 49.46020167 -350.38033772 44.39946747 C-350.40646467 40.50469133 -350.41485408 36.61002025 -350.41844749 32.71516418 C-350.42331921 30.8492384 -350.43494985 28.98331749 -350.45348549 27.11747742 C-350.4778063 24.50830147 -350.47692573 21.90026997 -350.4699707 19.29101562 C-350.48278076 18.52203445 -350.49559082 17.75305328 -350.50878906 16.96076965 C-350.46076135 12.01642337 -349.48696853 9.50675953 -346 6 C-351.445 5.505 -351.445 5.505 -357 5 C-357 35.03 -357 65.06 -357 96 C-361.62 96 -366.24 96 -371 96 C-371.33 65.64 -371.66 35.28 -372 4 C-370.68 3.34 -369.36 2.68 -368 2 C-368 2.33 -368 2.66 -368 3 C-245.9 3 -123.8 3 2 3 C1.34 2.01 0.68 1.02 0 0 Z " fill="#70B5BC" transform="translate(383,161)"/>
<path d="M0 0 C5.18725693 1.59373647 8.89887073 4.84806884 13.0625 8.1875 C14.68107837 9.46638083 16.30091492 10.74367055 17.921875 12.01953125 C19.17774414 13.00880615 19.17774414 13.00880615 20.45898438 14.01806641 C24.53303795 17.19573425 28.67060503 20.28658701 32.8125 23.375 C39.76164509 28.56252329 46.67476295 33.79372703 53.5625 39.0625 C60.9291305 44.6934517 68.35603621 50.23220376 75.83618164 55.71118164 C82.67843673 60.73470835 89.42370329 65.88001923 96.1640625 71.0390625 C101.8990291 75.42064465 107.67765193 79.7353507 113.5 84 C121.18396873 89.62948762 128.77619586 95.37134106 136.34423828 101.15551758 C141.83844496 105.35446324 147.34415604 109.53690815 152.875 113.6875 C153.49850342 114.15623535 154.12200684 114.6249707 154.7644043 115.10791016 C157.79328384 117.37719478 160.84539927 119.59803815 163.9453125 121.76953125 C165.45738281 122.87361328 165.45738281 122.87361328 167 124 C167 124.33 167 124.66 167 125 C57.77 125 -51.46 125 -164 125 C-160.81410471 121.81410471 -158.09486437 119.16203218 -154.5859375 116.50390625 C-153.75255859 115.87033203 -152.91917969 115.23675781 -152.06054688 114.58398438 C-151.17431641 113.91689453 -150.28808594 113.24980469 -149.375 112.5625 C-148.44494141 111.85802734 -147.51488281 111.15355469 -146.55664062 110.42773438 C-139.80088208 105.32307771 -132.99200624 100.29298033 -126.16308594 95.28686523 C-116.67764834 88.32007644 -107.34457986 81.15390913 -98 74 C-87.12015553 65.67074178 -76.21764548 57.38565254 -65.16357422 49.28857422 C-58.32427436 44.267406 -51.58192061 39.1244933 -44.84472656 33.9675293 C-39.02423012 29.52039029 -33.15832202 25.14215622 -27.25 20.8125 C-20.90993564 16.16617845 -14.61794851 11.46365995 -8.375 6.6875 C-7.64571289 6.12973877 -6.91642578 5.57197754 -6.16503906 4.99731445 C-2.9700559 2.63018505 -2.9700559 2.63018505 0 0 Z " fill="#70B5BC" transform="translate(199,32)"/>
<path d="M0 0 C3.82179225 2.36051874 7.28164095 5.08016623 10.78125 7.890625 C17.09549812 12.8840059 23.46717822 17.76861872 29.96875 22.515625 C37.65885928 28.13928504 45.24881175 33.8831562 52.81298828 39.67480469 C58.60963451 44.10444866 64.45555274 48.45860757 70.34375 52.765625 C77.29470489 57.85225093 84.11657026 63.08059685 90.89404297 68.39550781 C96.95668232 73.13421351 103.12953137 77.70736623 109.33984375 82.25 C115.33376178 86.64293667 121.25584344 91.12303306 127.15625 95.640625 C133.77564653 100.70726365 140.43169619 105.71440016 147.15625 110.640625 C154.15498287 115.77515398 161.11188195 120.96205135 168.03125 126.203125 C168.91748047 126.87021484 169.80371094 127.53730469 170.71679688 128.22460938 C176.0379628 132.2700124 180.91652891 136.03104336 184.65625 141.640625 C61.89625 141.640625 -60.86375 141.640625 -187.34375 141.640625 C-184.62244275 137.10511292 -183.51888413 135.71017697 -179.46875 132.828125 C-178.38822648 132.04578294 -177.30889591 131.26179179 -176.23046875 130.4765625 C-175.62122559 130.03538086 -175.01198242 129.59419922 -174.38427734 129.13964844 C-170.30223911 126.14087903 -166.30088741 123.0347005 -162.28125 119.953125 C-154.74879313 114.1974694 -147.1570705 108.53239191 -139.50952148 102.9309082 C-133.56813866 98.56871645 -127.69677365 94.12050527 -121.84375 89.640625 C-114.45733208 83.98709105 -107.01180534 78.42592306 -99.5078125 72.9296875 C-92.66768705 67.90753559 -85.92384006 62.76450838 -79.1862793 57.60595703 C-73.38994071 53.17639155 -67.54421074 48.82246943 -61.65625 44.515625 C-54.71122445 39.43333809 -47.89435311 34.21045154 -41.12353516 28.89892578 C-34.88359183 24.02042463 -28.53577119 19.30063674 -22.12841797 14.64453125 C-18.49345064 11.99651171 -14.90853473 9.32466953 -11.43359375 6.46875 C-10.54667847 5.74800293 -10.54667847 5.74800293 -9.6418457 5.01269531 C-8.08536748 3.73626052 -6.54584452 2.43922723 -5.0078125 1.140625 C-2.34375 -0.359375 -2.34375 -0.359375 0 0 Z M-6.78125 12.265625 C-11.7938342 16.44386489 -16.94846934 20.35611787 -22.21875 24.203125 C-29.15490775 29.2716163 -36.02372266 34.41689495 -42.84375 39.640625 C-49.46302875 44.70739084 -56.11885011 49.7148907 -62.84375 54.640625 C-70.53823249 60.27781529 -78.14124156 66.02704297 -85.71875 71.8203125 C-91.53904908 76.2696078 -97.38446883 80.682553 -103.25341797 85.06738281 C-108.74931167 89.17999386 -114.20315147 93.34651214 -119.65625 97.515625 C-126.42175666 102.68552804 -133.22659237 107.79404744 -140.09375 112.828125 C-146.44447995 117.48679426 -152.76203581 122.18516701 -159.03125 126.953125 C-159.76891602 127.51088623 -160.50658203 128.06864746 -161.26660156 128.64331055 C-162.97822063 129.95094627 -164.66409897 131.29217277 -166.34375 132.640625 C-166.34375 132.970625 -166.34375 133.300625 -166.34375 133.640625 C-57.11375 133.640625 52.11625 133.640625 164.65625 133.640625 C161.67960391 130.66397891 159.06270057 128.34580163 155.71875 125.890625 C150.87343153 122.30084526 146.0642117 118.6694176 141.27514648 115.00488281 C132.85247334 108.56000026 124.37789103 102.19769561 115.82202148 95.9309082 C108.97915256 90.90684104 102.23319415 85.76110132 95.4921875 80.6015625 C89.75722273 76.21998174 83.97865437 71.90519542 78.15625 67.640625 C70.53098407 62.055564 63.00341745 56.35181412 55.4987793 50.60595703 C49.70244193 46.17639249 43.85675324 41.82241055 37.96875 37.515625 C31.61544541 32.86722096 25.35537887 28.1177393 19.15625 23.265625 C6.75041652 11.06142408 6.75041652 11.06142408 -6.78125 12.265625 Z " fill="#3B4647" transform="translate(201.34375,23.359375)"/>
<path d="M0 0 C0.66 0 1.32 0 2 0 C1.6143354 7.11484687 0.60900601 13.35441866 -2 20 C-2.99 20 -3.98 20 -5 20 C-4.773125 20.845625 -4.54625 21.69125 -4.3125 22.5625 C-3.98276186 26.18961957 -4.69347835 27.79027744 -6.16479492 31.0222168 C-7.90841053 35.15113526 -8.93512787 39.54043964 -10.10546875 43.859375 C-11.2770409 48.02330658 -12.68216093 51.30984262 -15 55 C-15.37400786 57.32716 -15.70764733 59.66117862 -16 62 C-16.33 62.763125 -16.66 63.52625 -17 64.3125 C-17.97989636 66.94597148 -18.22528378 68.90703437 -18.4375 71.6875 C-19.23537134 80.80216584 -22.25481875 88.23515795 -27 96 C-27.99 96 -28.98 96 -30 96 C-34.34437629 90.6129734 -35 83.68358461 -35 77 C-35.66 76.34 -36.32 75.68 -37 75 C-36.979375 73.989375 -36.95875 72.97875 -36.9375 71.9375 C-37.0319566 65.98673451 -38.70324678 60.94512983 -42 56 C-42.5625 53.94921875 -42.5625 53.94921875 -43 51.6875 C-43.75582752 48.01633776 -44.73142648 44.53388338 -46 41 C-45.67 40.67 -45.34 40.34 -45 40 C-45.99 39.505 -45.99 39.505 -47 39 C-47.6328125 37.15234375 -47.6328125 37.15234375 -48.125 34.9375 C-48.37636719 33.83728516 -48.37636719 33.83728516 -48.6328125 32.71484375 C-48.81457031 31.86599609 -48.81457031 31.86599609 -49 31 C-51.20831882 33.20831882 -51.6114458 34.49657876 -52.5 37.4375 C-53.41682554 40.46202775 -54.20971464 42.31457196 -56 45 C-56.144375 46.11375 -56.28875 47.2275 -56.4375 48.375 C-57 52 -57 52 -58.37109375 54.078125 C-60.72167572 58.29451663 -61.57090831 62.69014803 -62.625 67.375 C-62.8415625 68.29539062 -63.058125 69.21578125 -63.28125 70.1640625 C-64.42242634 75.09507139 -65.37731474 79.97700553 -66 85 C-66.66 85 -67.32 85 -68 85 C-68.33 87.97 -68.66 90.94 -69 94 C-70.32 94 -71.64 94 -73 94 C-81.52145777 76.48126703 -81.52145777 76.48126703 -79 68 C-79.9590625 67.7215625 -79.9590625 67.7215625 -80.9375 67.4375 C-83 66 -83 66 -83.8125 62.625 C-83.96546557 59.66766572 -83.98523156 57.73675433 -83 55 C-83.99 55 -84.98 55 -86 55 C-87.60355101 51.49223216 -88.22036864 48.85645121 -88 45 C-88.66 45 -89.32 45 -90 45 C-93.76004014 38.01200088 -96.49327133 31.78476478 -98 24 C-98.66 23.34 -99.32 22.68 -100 22 C-100.78125 20.01171875 -100.78125 20.01171875 -101.5 17.6875 C-102.32526142 15.06855813 -103.17293738 12.59359717 -104.25 10.0625 C-104.4975 9.381875 -104.745 8.70125 -105 8 C-103.41310267 4.82620534 -100.24568883 3.21629333 -97 2 C-94.8828125 2.1171875 -94.8828125 2.1171875 -93 3 C-91.91796875 4.92578125 -91.91796875 4.92578125 -91.1875 7.3125 C-90.93355469 8.09238281 -90.67960938 8.87226563 -90.41796875 9.67578125 C-89.97207481 12.15528491 -90.20442513 13.63492369 -91 16 C-91.66 16 -92.32 16 -93 16 C-93 16.66 -93 17.32 -93 18 C-91.68 18 -90.36 18 -89 18 C-85.49555669 24.36214386 -84.44728965 28.86090786 -86 36 C-85.01 36 -84.02 36 -83 36 C-76.04370467 45.54716043 -73.964896 58.59401832 -72 70 C-70.28574413 68.38232192 -68.62053875 66.71155185 -67 65 C-66.9549714 63.33394172 -66.96125079 61.66621616 -67 60 C-66.03566486 58.10458265 -65.06756709 56.21089876 -64.07275391 54.33129883 C-59.47298158 44.33511631 -58.57712852 32.29744938 -56.80664062 21.54296875 C-56.49823242 19.73892578 -56.49823242 19.73892578 -56.18359375 17.8984375 C-56.00368896 16.81224121 -55.82378418 15.72604492 -55.63842773 14.60693359 C-55 12 -55 12 -53 10 C-52.9175 9.34 -52.835 8.68 -52.75 8 C-52.5025 7.34 -52.255 6.68 -52 6 C-48.9375 4.75 -48.9375 4.75 -46 4 C-44 5.3125 -44 5.3125 -42 8 C-41.82474411 10.85538858 -41.93951112 13.58944903 -42.15234375 16.44140625 C-41.96320741 19.61792688 -41.18132608 19.83451891 -39 22 C-38.015625 25.28515625 -38.015625 25.28515625 -37.25 29.0625 C-36.98703125 30.31160156 -36.7240625 31.56070313 -36.453125 32.84765625 C-36 36 -36 36 -37 38 C-35.515 38.99 -35.515 38.99 -34 40 C-33.55859375 41.91796875 -33.55859375 41.91796875 -33.4375 44.1875 C-33.09951564 48.35597372 -32.24466443 51.9894146 -31 56 C-30.65775391 57.40765625 -30.65775391 57.40765625 -30.30859375 58.84375 C-30.06238281 59.8440625 -29.81617188 60.844375 -29.5625 61.875 C-29.33691406 62.82117188 -29.11132812 63.76734375 -28.87890625 64.7421875 C-28.58886719 65.48726563 -28.29882812 66.23234375 -28 67 C-26.515 67.495 -26.515 67.495 -25 68 C-24.81824219 67.443125 -24.63648438 66.88625 -24.44921875 66.3125 C-23.21512205 62.56590898 -21.95850782 58.85306199 -20.5 55.1875 C-18.50424077 49.92407281 -17.30626748 44.46651274 -16 39 C-15.29849137 36.10246437 -14.58801901 33.2072215 -13.875 30.3125 C-13.70427979 29.60480469 -13.53355957 28.89710938 -13.35766602 28.16796875 C-12.11316948 23.11316948 -12.11316948 23.11316948 -11 22 C-10.65379925 18.88043023 -10.32794293 15.76536872 -10.1015625 12.63476562 C-9.70892173 8.91558496 -9.24395228 7.24395228 -6.56640625 4.56640625 C-4.28100201 3.1715096 -2.62625461 2.38907476 0 2 C0 1.34 0 0.68 0 0 Z " fill="#394141" transform="translate(257,180)"/>
<path d="M0 0 C2.33247761 0.33926947 4.66585471 0.67240066 7 1 C8.33917261 1.30903983 9.67653254 1.62942911 11 2 C10.25 3.9375 10.25 3.9375 9 6 C6.9375 6.625 6.9375 6.625 5 7 C4.67 7.66 4.34 8.32 4 9 C0.79853545 8.48363475 -2.08784864 7.61668144 -5.1171875 6.5 C-13.74728935 3.61282914 -24.76978581 2.73428282 -33.16796875 6.72265625 C-36.59054034 8.59853499 -39.76637198 10.81795833 -43 13 C-43.93457031 13.37125 -44.86914062 13.7425 -45.83203125 14.125 C-46.54746094 14.41375 -47.26289062 14.7025 -48 15 C-48.88693303 17.04105639 -48.88693303 17.04105639 -49 19 C-49.99 19 -50.98 19 -52 19 C-52.103125 19.66 -52.20625 20.32 -52.3125 21 C-53.18790095 24.81993143 -54.59212226 28.34967781 -56 32 C-57.67000472 36.51883631 -58.65709799 41.0063702 -59.53515625 45.73046875 C-60 48 -60 48 -61 51 C-60.01 51 -59.02 51 -58 51 C-58.33 53.31 -58.66 55.62 -59 58 C-58.01 58 -57.02 58 -56 58 C-55.82984375 58.75925781 -55.6596875 59.51851562 -55.484375 60.30078125 C-55.12085937 61.79158203 -55.12085937 61.79158203 -54.75 63.3125 C-54.40195313 64.79169922 -54.40195313 64.79169922 -54.046875 66.30078125 C-52.85410651 69.37616568 -51.69146403 70.21484528 -49 72 C-48.87625 72.66 -48.7525 73.32 -48.625 74 C-48.16504784 76.27361332 -48.16504784 76.27361332 -45.5625 77.375 C-44.386875 77.91125 -43.21125 78.4475 -42 79 C-40.19539251 79.99777851 -38.40425511 81.0201846 -36.625 82.0625 C-35.75101563 82.56910156 -34.87703125 83.07570313 -33.9765625 83.59765625 C-33.32429688 84.06042969 -32.67203125 84.52320313 -32 85 C-32 85.66 -32 86.32 -32 87 C-10.8331324 87.98466532 -10.8331324 87.98466532 9 82 C9.02922646 78.62501842 9.04687468 75.25006979 9.0625 71.875 C9.07506836 70.44800781 9.07506836 70.44800781 9.08789062 68.9921875 C9.09272461 67.6 9.09272461 67.6 9.09765625 66.1796875 C9.10551147 64.90714111 9.10551147 64.90714111 9.11352539 63.60888672 C9.0274773 60.41646893 9.0274773 60.41646893 8 55 C3.05 54.67 -1.9 54.34 -7 54 C-5 50 -5 50 -4 49 C-2.21928754 48.91273777 -0.4351686 48.89300959 1.34765625 48.90234375 C2.42724609 48.90556641 3.50683594 48.90878906 4.61914062 48.91210938 C6.32360352 48.92467773 6.32360352 48.92467773 8.0625 48.9375 C9.77276367 48.94426758 9.77276367 48.94426758 11.51757812 48.95117188 C14.34510351 48.96300253 17.1725264 48.9794859 20 49 C20.76018162 52.50819447 21.01171297 55.1912689 20.5 58.75 C19.9122296 63.70512769 20.28435215 68.06998144 21 73 C20.01 73 19.02 73 18 73 C18.495 73.61875 18.99 74.2375 19.5 74.875 C21.60494276 79.26029741 21.25075227 83.21713261 21 88 C11.97234308 89.8249457 2.92032132 90.59903638 -6.25219727 91.30224609 C-7.22342529 91.37910645 -8.19465332 91.4559668 -9.1953125 91.53515625 C-10.51039795 91.63389038 -10.51039795 91.63389038 -11.85205078 91.73461914 C-14.04723374 91.88438122 -14.04723374 91.88438122 -16 93 C-19.41937282 93.0887675 -22.83462503 92.85528087 -26.25 92.6875 C-27.66345703 92.63432617 -27.66345703 92.63432617 -29.10546875 92.58007812 C-34.08695289 92.34602522 -38.32702885 91.89026953 -43 90 C-43.75925781 89.7421875 -44.51851562 89.484375 -45.30078125 89.21875 C-50.88888889 87.22222222 -50.88888889 87.22222222 -52 85 C-52.70125 84.649375 -53.4025 84.29875 -54.125 83.9375 C-58.84363607 80.75754961 -63.19479852 75.97924546 -64.703125 70.3984375 C-65 68 -65 68 -65 65 C-65.99 64.67 -66.98 64.34 -68 64 C-71.69723838 54.07583382 -70.71759755 43.04526096 -67.94921875 33.01171875 C-67.63597656 32.34785156 -67.32273438 31.68398437 -67 31 C-66.01 30.67 -65.02 30.34 -64 30 C-63.86851563 28.93265625 -63.86851563 28.93265625 -63.734375 27.84375 C-61.85889718 20.58126143 -54.67556653 11.80745078 -48.26953125 7.9609375 C-46.21198794 6.88493681 -44.12391538 5.93768604 -42 5 C-41.29359375 4.64808594 -40.5871875 4.29617187 -39.859375 3.93359375 C-29.20235443 -0.97806029 -11.21907575 -3.73969192 0 0 Z " fill="#384041" transform="translate(123,184)"/>
<path d="M0 0 C1.48125366 0.00108765 1.48125366 0.00108765 2.99243164 0.00219727 C4.01280518 0.00227783 5.03317871 0.0023584 6.08447266 0.00244141 C17.14137396 0.08207188 28.10615603 0.99522125 39.1159668 1.94604492 C45.42222654 2.46885994 51.73825333 2.81812795 58.05493164 3.18969727 C58.05493164 10.11969727 58.05493164 17.04969727 58.05493164 24.18969727 C46.42816664 30.83356298 31.5201022 31.6597699 18.24633789 29.79516602 C15.32428264 28.98782455 14.15002134 27.34827454 12.05493164 25.18969727 C8.85460319 23.41173702 5.7644479 22.08802796 2.30493164 20.87719727 C-0.94506836 19.18969727 -0.94506836 19.18969727 -2.19506836 16.12719727 C-2.44256836 15.15782227 -2.69006836 14.18844727 -2.94506836 13.18969727 C-3.93506836 12.52969727 -4.92506836 11.86969727 -5.94506836 11.18969727 C-6.71069336 8.84204102 -6.71069336 8.84204102 -7.19506836 6.12719727 C-7.36522461 5.2287207 -7.53538086 4.33024414 -7.71069336 3.40454102 C-7.78803711 2.67364258 -7.86538086 1.94274414 -7.94506836 1.18969727 C-6.0182545 -0.7371166 -2.58760147 0.02059345 0 0 Z " fill="#6E91C7" transform="translate(74.945068359375,241.810302734375)"/>
<path d="M0 0 C0.04950925 4.62644904 0.08577116 9.25274318 0.10986328 13.87939453 C0.11990887 15.45266405 0.13354781 17.02591496 0.15087891 18.59912109 C0.17519096 20.86300252 0.18649747 23.12663666 0.1953125 25.390625 C0.20563507 26.09181458 0.21595764 26.79300415 0.22659302 27.51544189 C0.22743257 31.18563476 0.02112595 33.88089213 -2 37 C-1.34 37 -0.68 37 0 37 C0.05413245 39.89608593 0.09373641 42.79115195 0.125 45.6875 C0.15013672 46.91243164 0.15013672 46.91243164 0.17578125 48.16210938 C0.2114802 52.57092929 0.07580814 55.98731576 -2 60 C-1.34 60 -0.68 60 0 60 C0.02692484 62.29160319 0.04636124 64.58329546 0.0625 66.875 C0.07410156 68.15117187 0.08570313 69.42734375 0.09765625 70.7421875 C0 74 0 74 -1 76 C-0.93810017 77.69099073 -0.80415585 79.37988762 -0.625 81.0625 C-0.53476562 81.96097656 -0.44453125 82.85945313 -0.3515625 83.78515625 C-0.22733918 85.96849829 -0.22733918 85.96849829 1 87 C2.59910799 87.20971908 4.20509246 87.3682067 5.8125 87.5 C8.38518994 87.71280744 10.76315637 87.93782343 13.26171875 88.59375 C13.83535156 88.7278125 14.40898437 88.861875 15 89 C15.33 88.67 15.66 88.34 16 88 C17.56172745 87.91314397 19.12729344 87.89297781 20.69140625 87.90234375 C21.63564453 87.90556641 22.57988281 87.90878906 23.55273438 87.91210938 C24.54595703 87.92048828 25.53917969 87.92886719 26.5625 87.9375 C27.55958984 87.94201172 28.55667969 87.94652344 29.58398438 87.95117188 C32.05604849 87.96299993 34.52799518 87.97948151 37 88 C37 88.66 37 89.32 37 90 C40.79547921 89.03223902 40.79547921 89.03223902 44 87 C46.31817089 86.67902249 48.63779357 86.48779044 50.96875 86.28125 C52.99180593 86.20934163 52.99180593 86.20934163 54 85 C55.99958364 84.95919217 58.00045254 84.95745644 60 85 C60 85.66 60 86.32 60 87 C59.01 87.495 59.01 87.495 58 88 C57.566875 88.825 57.13375 89.65 56.6875 90.5 C55 93 55 93 52.88110352 93.64575195 C49.31996507 94.08361416 45.79699691 94.16231725 42.21484375 94.16796875 C41.10768761 94.17296135 41.10768761 94.17296135 39.97816467 94.17805481 C38.42417013 94.18309875 36.87016483 94.18546392 35.31616211 94.18530273 C32.94171402 94.18749611 30.56772583 94.20569697 28.19335938 94.22460938 C26.67968908 94.22754248 25.16601659 94.22952783 23.65234375 94.23046875 C22.94496567 94.23765427 22.23758759 94.24483978 21.5087738 94.25224304 C17.83703776 94.23523692 15.12100248 94.02141618 12 92 C12 92.66 12 93.32 12 94 C10.71029297 93.98259766 10.71029297 93.98259766 9.39453125 93.96484375 C1.2074948 93.90234729 -6.84864083 94.24173403 -15 95 C-15.33 94.01 -15.66 93.02 -16 92 C-15.01 92 -14.02 92 -13 92 C-11.27664288 86.71131701 -10.63828307 81.91857148 -10.4375 76.375 C-10.11584389 68.54575344 -10.11584389 68.54575344 -9.47265625 65.515625 C-8.77500495 61.80250567 -8.93571052 58.1423633 -9 54.375 C-9.1346463 46.40393891 -9.1346463 46.40393891 -8 43 C-8.33 42.67 -8.66 42.34 -9 42 C-9.26865672 33.80597015 -9.26865672 33.80597015 -8 30 C-8.66 30 -9.32 30 -10 30 C-11.01702226 26.68088083 -11.04145953 23.77028431 -10.9375 20.3125 C-10.87740568 14.87062545 -11.60070627 10.24735149 -13 5 C-4.29032258 0 -4.29032258 0 0 0 Z " fill="#394143" transform="translate(286,181)"/>
<path d="M0 0 C3.96 0 7.92 0 12 0 C12 29.7 12 59.4 12 90 C8.04 90 4.08 90 0 90 C0 60.3 0 30.6 0 0 Z " fill="#373D3D" transform="translate(376,166)"/>
<path d="M0 0 C3.96 0 7.92 0 12 0 C12 29.7 12 59.4 12 90 C8.04 90 4.08 90 0 90 C0 60.3 0 30.6 0 0 Z " fill="#373D3D" transform="translate(13,166)"/>
<path d="M0 0 C0.66 0.33 1.32 0.66 2 1 C2.59355614 3.64860427 2.74209269 6.29197322 3 9 C3.99 9.33 4.98 9.66 6 10 C5.01 10.495 5.01 10.495 4 11 C4.27714844 11.49628906 4.55429688 11.99257812 4.83984375 12.50390625 C7.28587069 17.09129486 8.33837679 20.80153195 9 26 C9.88201431 28.40157157 10.92939848 30.67260538 12 33 C12 33.33 12 33.66 12 34 C4.41 34 -3.18 34 -11 34 C-11 26.84615385 -11 26.84615385 -8 22 C-7.40319786 19.67368962 -6.94464998 17.35301657 -6.52734375 14.98828125 C-6 13 -6 13 -4 11 C-3.41992464 9.3319364 -2.90549418 7.64041076 -2.4375 5.9375 C-1.09722222 1.09722222 -1.09722222 1.09722222 0 0 Z " fill="#6FB2BA" transform="translate(207,210)"/>
<path d="M0 0 C9.35080099 8.01497227 16.21768859 16.92518768 17.3125 29.625 C17 32 17 32 16 33 C10.72 33 5.44 33 0 33 C0 22.11 0 11.22 0 0 Z " fill="#C7E0E2" transform="translate(331,215)"/>
<path d="M0 0 C2 2 2 2 2.13525391 5.25634766 C2.09291915 6.64261545 2.03925704 8.02856619 1.9765625 9.4140625 C1.95153656 10.14370209 1.92651062 10.87334167 1.90072632 11.62509155 C1.81845785 13.95886232 1.72189707 16.29179522 1.625 18.625 C1.56676728 20.20569478 1.50946385 21.78642409 1.453125 23.3671875 C1.3146155 27.24545338 1.15680488 31.12225761 1 35 C8.92 34.505 8.92 34.505 17 34 C17 30.37 17 26.74 17 23 C19.02849343 27.05698685 19.35105075 29.06566192 19.4375 33.5 C19.49744141 35.18609375 19.49744141 35.18609375 19.55859375 36.90625 C19 40 19 40 16.64453125 42.38671875 C13.75179733 44.15141463 12.32121973 44.46128052 9 44 C8.505 43.505 8.505 43.505 8 43 C6.58879098 42.77428816 5.16823957 42.60611651 3.74609375 42.46484375 C2.89208984 42.37783203 2.03808594 42.29082031 1.15820312 42.20117188 C0.26037109 42.11416016 -0.63746094 42.02714844 -1.5625 41.9375 C-2.46419922 41.84662109 -3.36589844 41.75574219 -4.29492188 41.66210938 C-6.52958434 41.43746077 -8.76457839 41.21694231 -11 41 C-11 40.34 -11 39.68 -11 39 C-12.32 39 -13.64 39 -15 39 C-15 38.34 -15 37.68 -15 37 C-6.75 37 1.5 37 10 37 C6.7 36.67 3.4 36.34 0 36 C0 24.12 0 12.24 0 0 Z " fill="#98A1AA" transform="translate(330,213)"/>
<path d="M0 0 C0.33 0 0.66 0 1 0 C1 9.24 1 18.48 1 28 C-2.96 28 -6.92 28 -11 28 C-10.37351562 26.56527344 -9.74703125 25.13054687 -9.1015625 23.65234375 C-8.27581488 21.74749413 -7.45030667 19.84254071 -6.625 17.9375 C-6.2125 16.99455078 -5.8 16.05160156 -5.375 15.08007812 C-3.22469888 10.10317149 -1.32751828 5.25901474 0 0 Z " fill="#CADCDF" transform="translate(327,220)"/>
<path d="M0 0 C8.58 0 17.16 0 26 0 C25.01 1.32 24.02 2.64 23 4 C19.671875 4.20703125 19.671875 4.20703125 15.75 3.8125 C13.82414062 3.63654297 13.82414062 3.63654297 11.859375 3.45703125 C10.58578125 3.30621094 9.3121875 3.15539062 8 3 C6.70578125 2.85949219 5.4115625 2.71898437 4.078125 2.57421875 C3.06234375 2.38472656 2.0465625 2.19523438 1 2 C0.67 1.34 0.34 0.68 0 0 Z " fill="#CBD6E8" transform="translate(320,252)"/>
<path d="M0 0 C0.33 0 0.66 0 1 0 C1.04254356 1.99954746 1.04080783 4.00041636 1 6 C0 7 0 7 -3.59765625 7.09765625 C-5.08596867 7.0909822 -6.57426432 7.07902183 -8.0625 7.0625 C-8.82111328 7.05798828 -9.57972656 7.05347656 -10.36132812 7.04882812 C-12.24091871 7.0370068 -14.12046899 7.01907078 -16 7 C-12.59648662 4.96780512 -9.6767073 4.63108961 -5.75 4.375 C-4.67234375 4.30023438 -3.5946875 4.22546875 -2.484375 4.1484375 C-1.25460937 4.07496094 -1.25460937 4.07496094 0 4 C0 2.68 0 1.36 0 0 Z " fill="#C4D0E2" transform="translate(347,241)"/>
<path d="M0 0 C2.64 0 5.28 0 8 0 C6.79618552 2.49361571 5.54571278 4.68143083 4 7 C3.34 7 2.68 7 2 7 C0.5393715 4.35261084 0 3.10551666 0 0 Z " fill="#6989BA" transform="translate(183,243)"/>
<path d="M0 0 C1.65 0 3.3 0 5 0 C4.67 1.65 4.34 3.3 4 5 C2.68 4.67 1.36 4.34 0 4 C0 2.68 0 1.36 0 0 Z " fill="#6C8DC1" transform="translate(228,243)"/>
<path d="M0 0 C0.66 0.33 1.32 0.66 2 1 C3.70363822 1.22622081 5.41328701 1.40888473 7.125 1.5625 C8.03507812 1.64628906 8.94515625 1.73007813 9.8828125 1.81640625 C10.58148438 1.87699219 11.28015625 1.93757812 12 2 C12 2.33 12 2.66 12 3 C5.565 3.495 5.565 3.495 -1 4 C-1 1 -1 1 0 0 Z " fill="#6DAEB5" transform="translate(13,163)"/>
</svg>
