<?xml version="1.0" encoding="UTF-8"?>
<svg version="1.1" xmlns="http://www.w3.org/2000/svg" width="1200" height="630">
  <!-- Gold/Amber Background -->
  <rect width="1200" height="630" fill="#D4A853"/>
  
  <!-- Centered Logo (scaled and positioned) -->
  <g transform="translate(400, 115) scale(1)">
    <svg width="400" height="400" viewBox="0 0 400 400">
      <path d="M0 0 C0.98774414 0.23605957 1.97548828 0.47211914 2.99316406 0.71533203 C55.23533174 13.70468793 98.58404064 46.62801552 127 92 C127.56799316 92.89912109 127.56799316 92.89912109 128.14746094 93.81640625 C139.9753301 112.81485698 147.27528323 134.22662657 152 156 C152.26466064 157.13743652 152.26466064 157.13743652 152.53466797 158.29785156 C158.38980667 184.1904471 157.13326383 215.34860368 151 241 C150.76394043 241.98774414 150.52788086 242.97548828 150.28466797 243.99316406 C137.29531207 296.23533174 104.37198448 339.58404064 59 368 C58.40058594 368.37866211 57.80117188 368.75732422 57.18359375 369.14746094 C38.18514302 380.9753301 16.77337343 388.27528323 -5 393 C-6.13743652 393.26466064 -6.13743652 393.26466064 -7.29785156 393.53466797 C-33.1904471 399.38980667 -64.34860368 398.13326383 -90 392 C-90.98774414 391.76394043 -91.97548828 391.52788086 -92.99316406 391.28466797 C-145.23533174 378.29531207 -188.58404064 345.37198448 -217 300 C-217.37866211 299.40058594 -217.75732422 298.80117188 -218.14746094 298.18359375 C-229.9753301 279.18514302 -237.27528323 257.77337343 -242 236 C-242.17644043 235.24170898 -242.35288086 234.48341797 -242.53466797 233.70214844 C-248.38980667 207.8095529 -247.13326383 176.65139632 -241 151 C-240.76394043 150.01225586 -240.52788086 149.02451172 -240.28466797 148.00683594 C-227.29531207 95.76466826 -194.37198448 52.41595936 -149 24 C-148.10087891 23.43200684 -148.10087891 23.43200684 -147.18359375 22.85253906 C-128.18514302 11.0246699 -106.77337343 3.72471677 -85 -1 C-84.24170898 -1.17644043 -83.48341797 -1.35288086 -82.70214844 -1.53466797 C-56.8095529 -7.38980667 -25.65139632 -6.13326383 0 0 Z " fill="#6E91C8" transform="translate(245,4)"/>
      <path d="M0 0 C0.98774414 0.23605957 1.97548828 0.47211914 2.99316406 0.71533203 C55.23533174 13.70468793 98.58404064 46.62801552 127 92 C127.56799316 92.89912109 127.56799316 92.89912109 128.14746094 93.81640625 C139.9753301 112.81485698 147.27528323 134.22662657 152 156 C152.26466064 157.13743652 152.26466064 157.13743652 152.53466797 158.29785156 C158.38980667 184.1904471 157.13326383 215.34860368 151 241 C150.76394043 241.98774414 150.52788086 242.97548828 150.28466797 243.99316406 C137.29531207 296.23533174 104.37198448 339.58404064 59 368 C58.40058594 368.37866211 57.80117188 368.75732422 57.18359375 369.14746094 C38.18514302 380.9753301 16.77337343 388.27528323 -5 393 C-6.13743652 393.26466064 -6.13743652 393.26466064 -7.29785156 393.53466797 C-33.1904471 399.38980667 -64.34860368 398.13326383 -90 392 C-90.98774414 391.76394043 -91.97548828 391.52788086 -92.99316406 391.28466797 C-145.23533174 378.29531207 -188.58404064 345.37198448 -217 300 C-217.37866211 299.40058594 -217.75732422 298.80117188 -218.14746094 298.18359375 C-229.9753301 279.18514302 -237.27528323 257.77337343 -242 236 C-242.17644043 235.24170898 -242.35288086 234.48341797 -242.53466797 233.70214844 C-248.38980667 207.8095529 -247.13326383 176.65139632 -241 151 C-240.76394043 150.01225586 -240.52788086 149.02451172 -240.28466797 148.00683594 C-227.29531207 95.76466826 -194.37198448 52.41595936 -149 24 C-148.10087891 23.43200684 -148.10087891 23.43200684 -147.18359375 22.85253906 C-128.18514302 11.0246699 -106.77337343 3.72471677 -85 -1 C-84.24170898 -1.17644043 -83.48341797 -1.35288086 -82.70214844 -1.53466797 C-56.8095529 -7.38980667 -25.65139632 -6.13326383 0 0 Z M138 157 C138.66 157.99 139.32 158.98 140 160 C37.58 160 -64.84 160 -233 160 C-234.65 163.3 -234.08 166.96 -234.02 170.58 C-234.01 171.47 -234 172.36 -233.99 173.27 C-233.96 176.21 -233.92 179.16 -233.88 182.1 C-233.85 184.14 -233.83 186.18 -233.81 188.21 C-233.74 193.58 -233.68 198.95 -233.61 204.32 C-233.53 209.8 -233.47 215.27 -233.4 220.75 C-233.28 231.5 -233.14 242.25 -233 253 C-228.38 253 -223.76 253 -219 253 C-219 222.97 -219 192.94 -219 162 C-213.56 162.5 -213.56 162.5 -208 163 C-208.65 163.66 -209.3 164.31 -209.97 164.99 C-212.51 168.76 -212.56 171.75 -212.5 176.13 C-212.51 176.94 -212.51 177.74 -212.52 178.57 C-212.53 181.23 -212.51 183.89 -212.5 186.55 C-212.5 188.42 -212.5 190.28 -212.5 192.14 C-212.5 196.05 -212.49 199.96 -212.47 203.87 C-212.44 208.84 -212.44 213.81 -212.45 218.78 C-212.46 222.63 -212.45 226.48 -212.44 230.34 C-212.44 232.17 -212.44 234 -212.44 235.83 C-212.46 250.37 -211.38 264.02 -205.38 277.5 C-205.03 278.3 -204.68 279.09 -204.32 279.91 C-198.41 293.11 -190.84 304.43 -181 315 C-180.15 315.91 -180.15 315.91 -179.29 316.84 C-148.29 349.86 -101.27 372.17 -55.81 374.14 C-51.91 374.24 -48.02 374.3 -44.13 374.31 C-43.42 374.32 -42.72 374.32 -42 374.32 C-23.32 374.33 -4.74 372.06 13 366 C14.29 365.59 15.58 365.18 16.88 364.77 C40.34 357.1 61.38 345.18 80 329 C80.72 328.4 81.45 327.79 82.2 327.17 C103.2 309.44 119.33 281.6 122 254 C122.14 251.09 122.17 248.19 122.18 245.28 C122.18 244.44 122.19 243.61 122.2 242.76 C122.22 240.03 122.23 237.31 122.24 234.58 C122.24 233.65 122.25 232.71 122.25 231.75 C122.27 226.81 122.29 221.87 122.3 216.93 C122.31 211.83 122.34 206.73 122.38 201.64 C122.41 197.71 122.41 193.78 122.42 189.85 C122.42 187.97 122.43 186.09 122.45 184.21 C122.48 181.59 122.48 178.96 122.47 176.34 C122.48 175.56 122.5 174.79 122.51 173.99 C122.46 169.04 121.5 166.51 118 163 C121.96 162.67 125.92 162.34 130 162 C130 192.03 130 222.06 130 253 C134.62 253 139.24 253 144 253 C144.25 241.07 144.47 229.15 144.65 217.22 C144.74 211.68 144.83 206.15 144.95 200.61 C145.06 195.27 145.15 189.92 145.22 184.58 C145.25 182.54 145.29 180.5 145.34 178.46 C145.41 175.61 145.45 172.75 145.48 169.9 C145.52 168.63 145.52 168.63 145.56 167.34 C145.57 162.37 145.57 162.37 142.6 158.44 C140.2 156.84 140.2 156.84 138 157 Z " fill="#2A3B3C" transform="translate(245,4)"/>
      <path d="M0 0 C2.89 1.3 4.97 2.55 7 5 C7.25 7.97 7.32 10.73 7.25 13.69 C7.24 14.58 7.23 15.47 7.22 16.39 C7.19 19.32 7.13 22.26 7.07 25.2 C7.05 27.24 7.02 29.27 6.99 31.31 C6.92 36.67 6.83 42.03 6.74 47.39 C6.65 52.86 6.58 58.33 6.5 63.8 C6.35 74.53 6.18 85.27 6 96 C1.38 96 -3.24 96 -8 96 C-8 65.97 -8 35.94 -8 5 C-13.94 5.5 -13.94 5.5 -20 6 C-19.35 6.66 -18.7 7.32 -18.03 7.99 C-15.49 11.76 -15.46 14.72 -15.55 19.09 C-15.55 19.9 -15.54 20.7 -15.54 21.52 C-15.55 24.16 -15.58 26.79 -15.61 29.43 C-15.62 31.26 -15.62 33.09 -15.63 34.92 C-15.64 39.73 -15.68 44.54 -15.73 49.36 C-15.77 54.27 -15.78 59.18 -15.8 64.1 C-15.85 73.73 -15.92 83.37 -16 93 C-16.33 93 -16.66 93 -17 93 C-17 89.37 -17 85.74 -17 82 C-25.42 82.5 -25.42 82.5 -34 83 C-33.9 84.4 -33.79 85.81 -33.69 87.25 C-33.69 90.91 -33.71 91.66 -36.19 94.56 C-39.14 96.07 -40.74 96.45 -44 96 C-44.33 95.67 -44.66 95.34 -45 95 C-46.41 94.77 -47.83 94.61 -49.25 94.46 C-50.11 94.38 -50.96 94.29 -51.84 94.2 C-52.74 94.11 -53.64 94.03 -54.56 93.94 C-55.46 93.85 -56.37 93.76 -57.29 93.66 C-59.53 93.44 -61.76 93.22 -64 93 C-64 92.34 -64 91.68 -64 91 C-65.32 91 -66.64 91 -68 91 C-68 90.34 -68 89.68 -68 89 C-59.75 89 -51.5 89 -43 89 C-52.38 88.14 -52.38 88.14 -61.69 87.94 C-62.89 87.95 -64.09 87.96 -65.32 87.96 C-66.21 87.98 -67.09 87.99 -68 88 C-68 87.34 -68 86.68 -68 86 C-68.59 86.02 -69.17 86.05 -69.77 86.07 C-78.94 86.26 -87.92 85.12 -97 84 C-97 82.68 -97 81.36 -97 80 C-97.66 80 -98.32 80 -99 80 C-98.85 79.37 -98.69 78.73 -98.54 78.08 C-97.82 73.96 -97.64 69.86 -97.44 65.69 C-97.39 64.85 -97.35 64.02 -97.31 63.15 C-97.2 61.1 -97.1 59.05 -97 57 C-97.66 57 -98.32 57 -99 57 C-98.75 56.16 -98.75 56.16 -98.5 55.3 C-97.97 52.84 -97.9 50.7 -97.94 48.18 C-97.95 47.26 -97.95 46.33 -97.96 45.38 C-97.98 44.41 -97.99 43.44 -98 42.44 C-98.05 34.9 -98 27.48 -97 20 C-98.63 20.64 -100.25 21.29 -101.88 21.94 C-102.78 22.3 -103.68 22.66 -104.62 23.03 C-106.96 23.95 -106.96 23.95 -109 25 C-108.86 25.72 -108.71 26.43 -108.56 27.17 C-107.13 34.86 -106.77 42.19 -107 50 C-106.34 50 -105.68 50 -105 50 C-105.02 51.26 -105.02 51.26 -105.04 52.55 C-105.04 53.65 -105.05 54.75 -105.06 55.88 C-105.08 57.51 -105.08 57.51 -105.1 59.18 C-105.2 61.95 -105.2 61.95 -104 64 C-104.33 64.66 -104.66 65.32 -105 66 C-105.33 71.28 -105.66 76.56 -106 82 C-117.88 81.67 -129.76 81.34 -142 81 C-142 73.67 -142 73.67 -139 69 C-137.07 64.08 -135.74 59.04 -134.54 53.91 C-134 52 -134 52 -132.38 48.38 C-130.98 44.94 -130.73 42.66 -131 39 C-130.01 39 -129.02 39 -128 39 C-126.48 32.36 -125.18 25.71 -124 19 C-124.66 19 -125.32 19 -126 19 C-126 19.66 -126 20.32 -126 21 C-127.28 21.58 -128.58 22.14 -129.88 22.69 C-132.2 23.91 -132.2 23.91 -134 26 C-134.97 29.79 -135.33 33.52 -135.64 37.41 C-135.94 40.35 -136.23 42.22 -137.5 44.81 C-139.15 48.32 -139.78 51.49 -140.48 55.27 C-142.28 64.7 -145.14 73.22 -149 82 C-149.67 83.66 -150.34 85.33 -151 87 C-152.32 86.67 -153.64 86.34 -155 86 C-155.28 84.78 -155.55 83.57 -155.84 82.32 C-156.21 80.73 -156.57 79.15 -156.94 77.56 C-157.21 76.36 -157.21 76.36 -157.49 75.13 C-158.1 71.25 -158.1 71.25 -160 68 C-160.24 65.74 -160.38 63.49 -160.52 61.23 C-161.08 58.61 -161.97 57.68 -164 56 C-163.67 55.34 -163.34 54.68 -163 54 C-163.41 51.43 -163.89 48.92 -164.44 46.38 C-164.59 45.67 -164.73 44.96 -164.88 44.23 C-165.25 42.49 -165.62 40.74 -166 39 C-166.99 38.67 -167.98 38.34 -169 38 C-168.97 37.24 -168.93 36.48 -168.89 35.7 C-168.85 34.21 -168.85 34.21 -168.81 32.69 C-168.78 31.7 -168.74 30.72 -168.71 29.7 C-168.78 26.99 -168.78 26.99 -170.31 25.13 C-172.11 23.67 -172.11 23.67 -175.19 24.31 C-176.12 24.54 -177.04 24.77 -178 25 C-178.14 25.8 -178.29 26.61 -178.44 27.44 C-179 30 -179 30 -180 31 C-180.47 33.29 -180.88 35.59 -181.27 37.89 C-181.52 39.34 -181.77 40.79 -182.03 42.23 C-182.42 44.5 -182.81 46.78 -183.19 49.05 C-186.99 71.48 -186.99 71.48 -192 79 C-191.96 79.78 -191.92 80.57 -191.88 81.38 C-192.05 84.98 -193.53 86.46 -196 89 C-196.66 89 -197.32 89 -198 89 C-199.56 84.6 -201 80.28 -201.88 75.69 C-202.89 70.75 -204.85 66.3 -206.88 61.7 C-207.81 59.45 -208.5 57.37 -209 55 C-209.99 55 -210.98 55 -212 55 C-211.97 54.42 -211.93 53.84 -211.89 53.24 C-211.71 47.92 -212.3 44.72 -215 40 C-215 39.01 -215 38.02 -215 37 C-216.32 37 -217.64 37 -219 37 C-219 36.34 -219 35.68 -219 35 C-218.34 34.67 -217.68 34.34 -217 34 C-217.99 28.56 -217.99 28.56 -219 23 C-220.32 22.67 -221.64 22.34 -223 22 C-224.37 22.95 -225.7 23.95 -227 25 C-227.99 25 -228.98 25 -230 25 C-229.45 29.6 -228.17 32.93 -226 37 C-224.89 39.6 -223.94 42.19 -223.06 44.88 C-222.11 47.68 -220.99 50.35 -219.8 53.05 C-218.33 56.63 -217.18 60.32 -216 64 C-215.34 64 -214.68 64 -214 64 C-213.01 68.95 -213.01 68.95 -212 74 C-211.01 74 -210.02 74 -209 74 C-209 76.97 -209 79.94 -209 83 C-218.9 83.33 -228.8 83.66 -239 84 C-240 74 -240 74 -240 72 C-243.94 72.05 -247.87 72.15 -251.81 72.25 C-253.49 72.27 -253.49 72.27 -255.21 72.29 C-256.28 72.33 -257.35 72.36 -258.46 72.39 C-259.94 72.42 -259.94 72.42 -261.46 72.45 C-264.55 72.83 -264.55 72.83 -267 77 C-262.05 77 -257.1 77 -252 77 C-249.75 84.88 -249.75 84.88 -249.8 89.28 C-249.81 90.2 -249.82 91.13 -249.82 92.08 C-249.85 93.49 -249.85 93.49 -249.88 94.94 C-249.88 95.91 -249.89 96.88 -249.9 97.88 C-249.93 100.25 -249.96 102.63 -250 105 C-261.21 112.03 -276.87 112.42 -289.81 110.61 C-292.73 109.8 -293.9 108.16 -296 106 C-299.2 104.22 -302.29 102.9 -305.75 101.69 C-309 100 -309 100 -310.25 96.94 C-310.5 95.97 -310.75 95 -311 94 C-311.99 93.34 -312.98 92.68 -314 92 C-314.73 89.4 -314.73 89.4 -315.19 86.38 C-315.43 84.87 -315.43 84.87 -315.67 83.34 C-315.78 82.57 -315.89 81.79 -316 81 C-316.99 81 -317.98 81 -319 81 C-318.67 78.69 -318.34 76.38 -318 74 C-318.99 74 -319.98 74 -321 74 C-318.16 51.16 -318.16 51.16 -313 46 C-312.36 43.93 -312.36 43.93 -312 42 C-311.01 42 -310.02 42 -309 42 C-308.86 41.1 -308.86 41.1 -308.72 40.17 C-306.93 34.78 -299.14 31.87 -294.4 29.33 C-284.47 24.61 -273.95 25.44 -263.7 28.81 C-261.08 29.77 -258.53 30.84 -256 32 C-255.51 30.52 -255.51 30.52 -255 29 C-253.35 28.3 -251.68 27.63 -250 27 C-249.67 26.34 -249.34 25.68 -249 25 C-250.39 24.91 -250.39 24.91 -251.81 24.82 C-253.01 24.73 -254.2 24.65 -255.44 24.56 C-256.63 24.48 -257.83 24.4 -259.06 24.32 C-262 24 -262 24 -263 23 C-276.87 21.9 -290.69 23.49 -303 30 C-304.24 30.43 -305.48 30.87 -306.75 31.31 C-311.3 33.68 -313.88 37 -317 41 C-317.86 42.07 -317.86 42.07 -318.74 43.16 C-321.74 46.78 -321.74 46.78 -323.48 51.05 C-324.12 53.45 -325.25 54.29 -327 56 C-329.75 64.7 -329.63 73.95 -330 83 C-331.85 83.34 -333.71 83.67 -335.56 84 C-336.6 84.19 -337.63 84.37 -338.69 84.56 C-342 85 -342 85 -349 85 C-348.51 92.92 -348.51 92.92 -348 101 C-348.33 101 -348.66 101 -349 101 C-350.09 96.57 -350.16 92.24 -350.18 87.71 C-350.18 86.89 -350.19 86.07 -350.2 85.22 C-350.22 82.51 -350.23 79.8 -350.24 77.09 C-350.24 76.17 -350.25 75.24 -350.25 74.28 C-350.27 69.38 -350.29 64.48 -350.3 59.58 C-350.31 54.52 -350.34 49.46 -350.38 44.4 C-350.41 40.5 -350.41 36.61 -350.42 32.72 C-350.42 30.85 -350.43 28.98 -350.45 27.12 C-350.48 24.51 -350.48 21.9 -350.47 19.29 C-350.48 18.52 -350.5 17.75 -350.51 16.96 C-350.46 12.02 -349.49 9.51 -346 6 C-351.45 5.51 -351.45 5.51 -357 5 C-357 35.03 -357 65.06 -357 96 C-361.62 96 -366.24 96 -371 96 C-371.33 65.64 -371.66 35.28 -372 4 C-370.68 3.34 -369.36 2.68 -368 2 C-368 2.33 -368 2.66 -368 3 C-245.9 3 -123.8 3 2 3 C1.34 2.01 0.68 1.02 0 0 Z " fill="#70B5BC" transform="translate(383,161)"/>
      <path d="M0 0 C5.19 1.59 8.9 4.85 13.06 8.19 C14.68 9.47 16.3 10.74 17.92 12.02 C19.18 13.01 19.18 13.01 20.46 14.02 C24.53 17.2 28.67 20.29 32.81 23.38 C39.76 28.56 46.67 33.79 53.56 39.06 C60.93 44.69 68.36 50.23 75.84 55.71 C82.68 60.73 89.42 65.88 96.16 71.04 C101.9 75.42 107.68 79.74 113.5 84 C121.18 89.63 128.78 95.37 136.34 101.16 C141.84 105.35 147.34 109.54 152.88 113.69 C153.5 114.16 154.12 114.62 154.76 115.11 C157.79 117.38 160.85 119.6 163.95 121.77 C165.46 122.87 165.46 122.87 167 124 C167 124.33 167 124.66 167 125 C57.77 125 -51.46 125 -164 125 C-160.81 121.81 -158.09 119.16 -154.59 116.5 C-153.75 115.87 -152.92 115.24 -152.06 114.58 C-151.17 113.92 -150.29 113.25 -149.38 112.56 C-148.44 111.86 -147.51 111.15 -146.56 110.43 C-139.8 105.32 -132.99 100.29 -126.16 95.29 C-116.68 88.32 -107.34 81.15 -98 74 C-87.12 65.67 -76.22 57.39 -65.16 49.29 C-58.32 44.27 -51.58 39.12 -44.84 33.97 C-39.02 29.52 -33.16 25.14 -27.25 20.81 C-20.91 16.17 -14.62 11.46 -8.38 6.69 C-7.65 6.13 -6.92 5.57 -6.17 5 C-2.97 2.63 -2.97 2.63 0 0 Z " fill="#70B5BC" transform="translate(199,32)"/>
      <path d="M0 0 C3.96 0 7.92 0 12 0 C12 29.7 12 59.4 12 90 C8.04 90 4.08 90 0 90 C0 60.3 0 30.6 0 0 Z " fill="#373D3D" transform="translate(376,166)"/>
      <path d="M0 0 C3.96 0 7.92 0 12 0 C12 29.7 12 59.4 12 90 C8.04 90 4.08 90 0 90 C0 60.3 0 30.6 0 0 Z " fill="#373D3D" transform="translate(13,166)"/>
      <path d="M0 0 C0.66 0.33 1.32 0.66 2 1 C2.59 3.65 2.74 6.29 3 9 C3.99 9.33 4.98 9.66 6 10 C5.01 10.5 5.01 10.5 4 11 C4.28 11.5 4.55 11.99 4.84 12.5 C7.29 17.09 8.34 20.8 9 26 C9.88 28.4 10.93 30.67 12 33 C12 33.33 12 33.66 12 34 C4.41 34 -3.18 34 -11 34 C-11 26.85 -11 26.85 -8 22 C-7.4 19.67 -6.94 17.35 -6.53 14.99 C-6 13 -6 13 -4 11 C-3.42 9.33 -2.91 7.64 -2.44 5.94 C-1.1 1.1 -1.1 1.1 0 0 Z " fill="#6FB2BA" transform="translate(207,210)"/>
      <path d="M0 0 C9.35 8.01 16.22 16.93 17.31 29.63 C17 32 17 32 16 33 C10.72 33 5.44 33 0 33 C0 22.11 0 11.22 0 0 Z " fill="#C7E0E2" transform="translate(331,215)"/>
      <path d="M0 0 C1.48 0 1.48 0 2.99 0 C4.01 0 5.03 0 6.08 0 C17.14 0.08 28.11 1 39.12 1.95 C45.42 2.47 51.74 2.82 58.05 3.19 C58.05 10.12 58.05 17.05 58.05 24.19 C46.43 30.83 31.52 31.66 18.25 29.8 C15.32 28.99 14.15 27.35 12.05 25.19 C8.85 23.41 5.76 22.09 2.3 20.88 C-0.95 19.19 -0.95 19.19 -2.2 16.13 C-2.44 15.16 -2.69 14.19 -2.95 13.19 C-3.94 12.53 -4.93 11.87 -5.95 11.19 C-6.71 8.84 -6.71 8.84 -7.2 6.13 C-7.37 5.23 -7.54 4.33 -7.71 3.4 C-7.79 2.67 -7.87 1.94 -7.95 1.19 C-6.02 -0.74 -2.59 0.02 0 0 Z " fill="#6E91C7" transform="translate(74.945,241.81)"/>
    </svg>
  </g>
</svg>
