<?xml version="1.0" encoding="UTF-8"?>
<svg version="1.1" xmlns="http://www.w3.org/2000/svg" width="1200" height="630">
  <rect width="1200" height="630" fill="#B8860B"/>
  <g transform="translate(400, 115)">
    <path d="M0 0 C0.98774414 0.23605957 1.97548828 0.47211914 2.99316406 0.71533203 C55.23533174 13.70468793 98.58404064 46.62801552 127 92 C127.56799316 92.89912109 127.56799316 92.89912109 128.14746094 93.81640625 C139.9753301 112.81485698 147.27528323 134.22662657 152 156 C152.26466064 157.13743652 152.26466064 157.13743652 152.53466797 158.29785156 C158.38980667 184.1904471 157.13326383 215.34860368 151 241 C150.76394043 241.98774414 150.52788086 242.97548828 150.28466797 243.99316406 C137.29531207 296.23533174 104.37198448 339.58404064 59 368 C58.40058594 368.37866211 57.80117188 368.75732422 57.18359375 369.14746094 C38.18514302 380.9753301 16.77337343 388.27528323 -5 393 C-6.13743652 393.26466064 -6.13743652 393.26466064 -7.29785156 393.53466797 C-33.1904471 399.38980667 -64.34860368 398.13326383 -90 392 C-90.98774414 391.76394043 -91.97548828 391.52788086 -92.99316406 391.28466797 C-145.23533174 378.29531207 -188.58404064 345.37198448 -217 300 C-217.37866211 299.40058594 -217.75732422 298.80117188 -218.14746094 298.18359375 C-229.9753301 279.18514302 -237.27528323 257.77337343 -242 236 C-242.17644043 235.24170898 -242.35288086 234.48341797 -242.53466797 233.70214844 C-248.38980667 207.8095529 -247.13326383 176.65139632 -241 151 C-240.76394043 150.01225586 -240.52788086 149.02451172 -240.28466797 148.00683594 C-227.29531207 95.76466826 -194.37198448 52.41595936 -149 24 C-148.10087891 23.43200684 -148.10087891 23.43200684 -147.18359375 22.85253906 C-128.18514302 11.0246699 -106.77337343 3.72471677 -85 -1 C-84.24170898 -1.17644043 -83.48341797 -1.35288086 -82.70214844 -1.53466797 C-56.8095529 -7.38980667 -25.65139632 -6.13326383 0 0 Z " fill="#6E91C8" transform="translate(245,4)"/>
    <path d="M0 0 C0.98774414 0.23605957 1.97548828 0.47211914 2.99316406 0.71533203 C55.23533174 13.70468793 98.58404064 46.62801552 127 92 C127.56799316 92.89912109 127.56799316 92.89912109 128.14746094 93.81640625 C139.9753301 112.81485698 147.27528323 134.22662657 152 156 C152.26466064 157.13743652 152.26466064 157.13743652 152.53466797 158.29785156 C158.38980667 184.1904471 157.13326383 215.34860368 151 241 C150.76394043 241.98774414 150.52788086 242.97548828 150.28466797 243.99316406 C137.29531207 296.23533174 104.37198448 339.58404064 59 368 C58.40058594 368.37866211 57.80117188 368.75732422 57.18359375 369.14746094 C38.18514302 380.9753301 16.77337343 388.27528323 -5 393 C-6.13743652 393.26466064 -6.13743652 393.26466064 -7.29785156 393.53466797 C-33.1904471 399.38980667 -64.34860368 398.13326383 -90 392 C-90.98774414 391.76394043 -91.97548828 391.52788086 -92.99316406 391.28466797 C-145.23533174 378.29531207 -188.58404064 345.37198448 -217 300 C-217.37866211 299.40058594 -217.75732422 298.80117188 -218.14746094 298.18359375 C-229.9753301 279.18514302 -237.27528323 257.77337343 -242 236 C-242.17644043 235.24170898 -242.35288086 234.48341797 -242.53466797 233.70214844 C-248.38980667 207.8095529 -247.13326383 176.65139632 -241 151 C-240.76394043 150.01225586 -240.52788086 149.02451172 -240.28466797 148.00683594 C-227.29531207 95.76466826 -194.37198448 52.41595936 -149 24 C-148.10087891 23.43200684 -148.10087891 23.43200684 -147.18359375 22.85253906 C-128.18514302 11.0246699 -106.77337343 3.72471677 -85 -1 C-84.24170898 -1.17644043 -83.48341797 -1.35288086 -82.70214844 -1.53466797 C-56.8095529 -7.38980667 -25.65139632 -6.13326383 0 0 Z M138 157 C138.66 157.99 139.32 158.98 140 160 C37.58 160 -64.84 160 -233 160 C-234.65 163.3 -234.08 166.96 -234.02 170.58 C-234.01 171.47 -234 172.36 -233.99 173.27 C-233.96 176.21 -233.92 179.16 -233.88 182.1 C-233.85 184.14 -233.83 186.18 -233.81 188.21 C-233.74 193.58 -233.68 198.95 -233.61 204.32 C-233.53 209.8 -233.47 215.27 -233.4 220.75 C-233.28 231.5 -233.14 242.25 -233 253 C-228.38 253 -223.76 253 -219 253 C-219 222.97 -219 192.94 -219 162 C-213.56 162.5 -213.56 162.5 -208 163 C-208.65 163.66 -209.3 164.31 -209.97 164.99 C-212.51 168.76 -212.56 171.75 -212.5 176.13 C-212.51 176.94 -212.51 177.74 -212.52 178.57 C-212.53 181.23 -212.51 183.89 -212.5 186.55 C-212.5 188.42 -212.5 190.28 -212.5 192.14 C-212.5 196.05 -212.49 199.96 -212.47 203.87 C-212.44 208.84 -212.44 213.81 -212.45 218.78 C-212.46 222.63 -212.45 226.48 -212.44 230.34 C-212.44 232.17 -212.44 234 -212.44 235.83 C-212.46 250.37 -211.38 264.02 -205.38 277.5 C-205.03 278.3 -204.68 279.09 -204.32 279.91 C-198.41 293.11 -190.84 304.43 -181 315 C-180.15 315.91 -180.15 315.91 -179.29 316.84 C-148.29 349.86 -101.27 372.17 -55.81 374.14 C-51.91 374.24 -48.02 374.3 -44.13 374.31 C-43.42 374.32 -42.72 374.32 -42 374.32 C-23.32 374.33 -4.74 372.06 13 366 C14.29 365.59 15.58 365.18 16.88 364.77 C40.34 357.1 61.38 345.18 80 329 C80.72 328.4 81.45 327.79 82.2 327.17 C103.2 309.44 119.33 281.6 122 254 C122.14 251.09 122.17 248.19 122.18 245.28 C122.18 244.44 122.19 243.61 122.2 242.76 C122.22 240.03 122.23 237.31 122.24 234.58 C122.24 233.65 122.25 232.71 122.25 231.75 C122.27 226.81 122.29 221.87 122.3 216.93 C122.31 211.83 122.34 206.73 122.38 201.64 C122.41 197.71 122.41 193.78 122.42 189.85 C122.42 187.97 122.43 186.09 122.45 184.21 C122.48 181.59 122.48 178.96 122.47 176.34 C122.48 175.56 122.5 174.79 122.51 173.99 C122.46 169.04 121.5 166.51 118 163 C121.96 162.67 125.92 162.34 130 162 C130 192.03 130 222.06 130 253 C134.62 253 139.24 253 144 253 C144.25 241.07 144.47 229.15 144.65 217.22 C144.74 211.68 144.83 206.15 144.95 200.61 C145.06 195.27 145.15 189.92 145.22 184.58 C145.25 182.54 145.29 180.5 145.34 178.46 C145.41 175.61 145.45 172.75 145.48 169.9 C145.52 168.63 145.52 168.63 145.56 167.34 C145.57 162.37 145.57 162.37 142.6 158.44 C140.2 156.84 140.2 156.84 138 157 Z " fill="#2A3B3C" transform="translate(245,4)"/>
    <path d="M0 0 C5.19 1.59 8.9 4.85 13.06 8.19 C14.68 9.47 16.3 10.74 17.92 12.02 C19.18 13.01 19.18 13.01 20.46 14.02 C24.53 17.2 28.67 20.29 32.81 23.38 C39.76 28.56 46.67 33.79 53.56 39.06 C60.93 44.69 68.36 50.23 75.84 55.71 C82.68 60.73 89.42 65.88 96.16 71.04 C101.9 75.42 107.68 79.74 113.5 84 C121.18 89.63 128.78 95.37 136.34 101.16 C141.84 105.35 147.34 109.54 152.88 113.69 C153.5 114.16 154.12 114.62 154.76 115.11 C157.79 117.38 160.85 119.6 163.95 121.77 C165.46 122.87 165.46 122.87 167 124 C167 124.33 167 124.66 167 125 C57.77 125 -51.46 125 -164 125 C-160.81 121.81 -158.09 119.16 -154.59 116.5 C-153.75 115.87 -152.92 115.24 -152.06 114.58 C-151.17 113.92 -150.29 113.25 -149.38 112.56 C-148.44 111.86 -147.51 111.15 -146.56 110.43 C-139.8 105.32 -132.99 100.29 -126.16 95.29 C-116.68 88.32 -107.34 81.15 -98 74 C-87.12 65.67 -76.22 57.39 -65.16 49.29 C-58.32 44.27 -51.58 39.12 -44.84 33.97 C-39.02 29.52 -33.16 25.14 -27.25 20.81 C-20.91 16.17 -14.62 11.46 -8.38 6.69 C-7.65 6.13 -6.92 5.57 -6.17 5 C-2.97 2.63 -2.97 2.63 0 0 Z " fill="#70B5BC" transform="translate(199,32)"/>
    <path d="M0 0 C3.96 0 7.92 0 12 0 C12 29.7 12 59.4 12 90 C8.04 90 4.08 90 0 90 C0 60.3 0 30.6 0 0 Z " fill="#373D3D" transform="translate(376,166)"/>
    <path d="M0 0 C3.96 0 7.92 0 12 0 C12 29.7 12 59.4 12 90 C8.04 90 4.08 90 0 90 C0 60.3 0 30.6 0 0 Z " fill="#373D3D" transform="translate(13,166)"/>
    <path d="M0 0 C0.66 0.33 1.32 0.66 2 1 C2.59 3.65 2.74 6.29 3 9 C3.99 9.33 4.98 9.66 6 10 C5.01 10.5 5.01 10.5 4 11 C4.28 11.5 4.55 11.99 4.84 12.5 C7.29 17.09 8.34 20.8 9 26 C9.88 28.4 10.93 30.67 12 33 C12 33.33 12 33.66 12 34 C4.41 34 -3.18 34 -11 34 C-11 26.85 -11 26.85 -8 22 C-7.4 19.67 -6.94 17.35 -6.53 14.99 C-6 13 -6 13 -4 11 C-3.42 9.33 -2.91 7.64 -2.44 5.94 C-1.1 1.1 -1.1 1.1 0 0 Z " fill="#6FB2BA" transform="translate(207,210)"/>
    <path d="M0 0 C9.35 8.01 16.22 16.93 17.31 29.63 C17 32 17 32 16 33 C10.72 33 5.44 33 0 33 C0 22.11 0 11.22 0 0 Z " fill="#C7E0E2" transform="translate(331,215)"/>
    <path d="M0 0 C1.48 0 1.48 0 2.99 0 C4.01 0 5.03 0 6.08 0 C17.14 0.08 28.11 1 39.12 1.95 C45.42 2.47 51.74 2.82 58.05 3.19 C58.05 10.12 58.05 17.05 58.05 24.19 C46.43 30.83 31.52 31.66 18.25 29.8 C15.32 28.99 14.15 27.35 12.05 25.19 C8.85 23.41 5.76 22.09 2.3 20.88 C-0.95 19.19 -0.95 19.19 -2.2 16.13 C-2.44 15.16 -2.69 14.19 -2.95 13.19 C-3.94 12.53 -4.93 11.87 -5.95 11.19 C-6.71 8.84 -6.71 8.84 -7.2 6.13 C-7.37 5.23 -7.54 4.33 -7.71 3.4 C-7.79 2.67 -7.87 1.94 -7.95 1.19 C-6.02 -0.74 -2.59 0.02 0 0 Z " fill="#6E91C7" transform="translate(74.945,241.81)"/>
  </g>
</svg>
