<svg xmlns="http://www.w3.org/2000/svg" width="4" height="7" fill="none"><path fill="#B9CF32" d="M3.224 2.113a.5.5 0 1 0 .949-.316l-.95.316zM1.087 3.41v.5-.5zM.716 4.865a.5.5 0 0 0-1 0h1zM1.957 3.41v-.5.5zm2.216-1.613c-.132-.394-.445-.643-.763-.791A2.948 2.948 0 0 0 2.348.765c-.72-.04-1.565.112-2.12.483l.556.832c.316-.211.921-.35 1.508-.317.285.016.527.071.697.15.171.08.22.158.235.2l.949-.316zM.228 1.248c-.59.395-.853 1.047-.672 1.65.183.615.773 1.012 1.53 1.012v-1c-.402 0-.539-.185-.572-.298-.037-.124-.01-.345.27-.532l-.556-.832zm2.89 2.662c.167 0 .295.097.355.298a.61.61 0 0 1-.129.595l.708.706c.44-.44.532-1.076.379-1.588-.157-.526-.61-1.011-1.313-1.011v1zm.226.893-.009.007a.793.793 0 0 1-.14.072c-.097.04-.225.076-.38.106a4.69 4.69 0 0 1-1.053.069c-.37-.017-.688-.076-.896-.16-.244-.099-.15-.143-.15-.032h-1c0 .547.457.83.775.959.354.143.798.212 1.226.232.433.02.89-.01 1.287-.086.198-.039.391-.09.564-.16.166-.066.344-.16.484-.301l-.708-.706zM1.957 3.41v.5h1.162v-1H1.958v.5zm-.87.5h.87v-1h-.87v1z"/><g filter="url(#a)"><path stroke="#B9CF32" stroke-linecap="round" d="M1.957.5v5.82"/></g><defs><filter id="a" width="9" height="14.82" x="-2.543" y="0" color-interpolation-filters="sRGB" filterUnits="userSpaceOnUse"><feFlood flood-opacity="0" result="BackgroundImageFix"/><feColorMatrix in="SourceAlpha" result="hardAlpha" values="0 0 0 0 0 0 0 0 0 0 0 0 0 0 0 0 0 0 127 0"/><feOffset dy="4"/><feGaussianBlur stdDeviation="2"/><feComposite in2="hardAlpha" operator="out"/><feColorMatrix values="0 0 0 0 0 0 0 0 0 0 0 0 0 0 0 0 0 0 0.25 0"/><feBlend in2="BackgroundImageFix" result="effect1_dropShadow_268_64"/><feBlend in="SourceGraphic" in2="effect1_dropShadow_268_64" result="shape"/></filter></defs></svg>