<svg width="32" height="32" viewBox="0 0 32 32" fill="none" xmlns="http://www.w3.org/2000/svg">
<rect width="32" height="32" rx="16" fill="#D3D3D3"/>
<mask id="path-2-inside-1_133_144" fill="white">
<path fill-rule="evenodd" clip-rule="evenodd" d="M14 10C13.4477 10 13 10.4477 13 11V11.0606H7C6.44772 11.0606 6 11.5083 6 12.0606V20.6666C6 21.2189 6.44772 21.6666 7 21.6666H25C25.5523 21.6666 26 21.2189 26 20.6666V12.0606C26 11.5083 25.5523 11.0606 25 11.0606H19V11C19 10.4477 18.5523 10 18 10H14Z"/>
</mask>
<path fill-rule="evenodd" clip-rule="evenodd" d="M14 10C13.4477 10 13 10.4477 13 11V11.0606H7C6.44772 11.0606 6 11.5083 6 12.0606V20.6666C6 21.2189 6.44772 21.6666 7 21.6666H25C25.5523 21.6666 26 21.2189 26 20.6666V12.0606C26 11.5083 25.5523 11.0606 25 11.0606H19V11C19 10.4477 18.5523 10 18 10H14Z" fill="#031818" fill-opacity="0.05"/>
<path d="M13 11.0606V12.0606H14V11.0606H13ZM19 11.0606H18V12.0606H19V11.0606ZM14 11V11V9C12.8955 9 12 9.89543 12 11H14ZM14 11.0606V11H12V11.0606H14ZM7 12.0606H13V10.0606H7V12.0606ZM7 12.0606V12.0606V10.0606C5.89543 10.0606 5 10.956 5 12.0606H7ZM7 20.6666V12.0606H5V20.6666H7ZM7 20.6666H7H5C5 21.7712 5.89543 22.6666 7 22.6666V20.6666ZM25 20.6666H7V22.6666H25V20.6666ZM25 20.6666V20.6666V22.6666C26.1046 22.6666 27 21.7712 27 20.6666H25ZM25 12.0606V20.6666H27V12.0606H25ZM25 12.0606H27C27 10.956 26.1046 10.0606 25 10.0606V12.0606ZM19 12.0606H25V10.0606H19V12.0606ZM18 11V11.0606H20V11H18ZM18 11L18 11H20C20 9.89543 19.1046 9 18 9V11ZM14 11H18V9H14V11Z" fill="black" mask="url(#path-2-inside-1_133_144)"/>
<path d="M20.0044 16.6183C20.0044 18.7661 18.2136 20.5072 16.0044 20.5072C13.7953 20.5072 12.0044 18.7661 12.0044 16.6183C12.0044 14.4706 13.7953 12.7294 16.0044 12.7294C18.2136 12.7294 20.0044 14.4706 20.0044 16.6183Z" fill="url(#paint0_linear_133_144)"/>
<path d="M16.0044 13.2294C17.9507 13.2294 19.5042 14.7597 19.5044 16.618C19.5044 18.4765 17.9508 20.0077 16.0044 20.0077C14.058 20.0077 12.5044 18.4765 12.5044 16.618C12.5046 14.7597 14.0581 13.2294 16.0044 13.2294Z" stroke="#D8DC12" stroke-opacity="0.78" stroke-linejoin="bevel"/>
<path d="M16.0004 12.75C18.1633 12.7502 19.9164 14.504 19.9164 16.667C19.9162 18.8298 18.1632 20.5828 16.0004 20.583C13.8374 20.583 12.0835 18.83 12.0834 16.667C12.0834 14.5039 13.8373 12.75 16.0004 12.75Z" stroke="black" stroke-width="0.5"/>
<defs>
<linearGradient id="paint0_linear_133_144" x1="16.0044" y1="12.7294" x2="16.0044" y2="20.5071" gradientUnits="userSpaceOnUse">
<stop stop-color="#4AA6A4"/>
<stop offset="1" stop-color="#537BA6"/>
</linearGradient>
</defs>
</svg>
