<svg width="32" height="32" viewBox="0 0 32 32" fill="none" xmlns="http://www.w3.org/2000/svg">
<g clip-path="url(#clip0_270_358)">
<path d="M0 16C0 7.16344 7.16344 0 16 0C24.8366 0 32 7.16344 32 16C32 24.8366 24.8366 32 16 32C7.16344 32 0 24.8366 0 16Z" fill="#D9D9D9"/>
<path d="M26.6873 8H24.2499V9.30769H26.4998V23.6923H5.50017V9.30769H7.75013V8H5.31267C5.13735 8.00255 4.96433 8.03519 4.80348 8.09606C4.64263 8.15692 4.49711 8.24481 4.37523 8.35471C4.25335 8.4646 4.1575 8.59436 4.09315 8.73656C4.0288 8.87876 3.99721 9.03062 4.00019 9.18346V23.8165C3.99721 23.9694 4.0288 24.1212 4.09315 24.2634C4.1575 24.4056 4.25335 24.5354 4.37523 24.6453C4.49711 24.7552 4.64263 24.8431 4.80348 24.9039C4.96433 24.9648 5.13735 24.9974 5.31267 25H26.6873C26.8626 24.9974 27.0357 24.9648 27.1965 24.9039C27.3574 24.8431 27.5029 24.7552 27.6248 24.6453C27.7466 24.5354 27.8425 24.4056 27.9068 24.2634C27.9712 24.1212 28.0028 23.9694 27.9998 23.8165V9.18346C28.0028 9.03062 27.9712 8.87876 27.9068 8.73656C27.8425 8.59436 27.7466 8.4646 27.6248 8.35471C27.5029 8.24481 27.3574 8.15692 27.1965 8.09606C27.0357 8.03519 26.8626 8.00255 26.6873 8Z" fill="#031818"/>
<path d="M7.11108 11.4443H8.88886V13.2221H7.11108V11.4443Z" fill="#031818"/>
<path d="M12.4443 11.4443H14.2221V13.2221H12.4443V11.4443Z" fill="#031818"/>
<path d="M17.7778 11.4443H19.5556V13.2221H17.7778V11.4443Z" fill="#031818"/>
<path d="M23.1111 11.4443H24.8889V13.2221H23.1111V11.4443Z" fill="#031818"/>
<path d="M7.11108 15.8889H8.88886V17.6667H7.11108V15.8889Z" fill="#031818"/>
<path d="M12.4443 15.8889H14.2221V17.6667H12.4443V15.8889Z" fill="#031818"/>
<path d="M17.7778 15.8889H19.5556V17.6667H17.7778V15.8889Z" fill="#031818"/>
<path d="M23.1111 15.8889H24.8889V17.6667H23.1111V15.8889Z" fill="#031818"/>
<path d="M7.11108 20.3333H8.88886V22.111H7.11108V20.3333Z" fill="#031818"/>
<path d="M12.4443 20.3333H14.2221V22.111H12.4443V20.3333Z" fill="#031818"/>
<path d="M17.7778 20.3333H19.5556V22.111H17.7778V20.3333Z" fill="#031818"/>
<path d="M23.1111 20.3333H24.8889V22.111H23.1111V20.3333Z" fill="#031818"/>
<path d="M9 10C9.26522 10 9.51957 9.92098 9.70711 9.78033C9.89464 9.63968 10 9.44891 10 9.25V4.75C10 4.55109 9.89464 4.36032 9.70711 4.21967C9.51957 4.07902 9.26522 4 9 4C8.73478 4 8.48043 4.07902 8.29289 4.21967C8.10536 4.36032 8 4.55109 8 4.75V9.25C8 9.44891 8.10536 9.63968 8.29289 9.78033C8.48043 9.92098 8.73478 10 9 10Z" fill="url(#paint0_linear_270_358)"/>
<path d="M23 10C23.2652 10 23.5196 9.92098 23.7071 9.78033C23.8946 9.63968 24 9.44891 24 9.25V4.75C24 4.55109 23.8946 4.36032 23.7071 4.21967C23.5196 4.07902 23.2652 4 23 4C22.7348 4 22.4804 4.07902 22.2929 4.21967C22.1054 4.36032 22 4.55109 22 4.75V9.25C22 9.44891 22.1054 9.63968 22.2929 9.78033C22.4804 9.92098 22.7348 10 23 10Z" fill="url(#paint1_linear_270_358)"/>
<path d="M11 8H21V9H11V8Z" fill="#031818"/>
</g>
<defs>
<linearGradient id="paint0_linear_270_358" x1="9" y1="4" x2="9" y2="10" gradientUnits="userSpaceOnUse">
<stop stop-color="#4AA6A4"/>
<stop offset="1" stop-color="#537BA6"/>
</linearGradient>
<linearGradient id="paint1_linear_270_358" x1="23" y1="4" x2="23" y2="10" gradientUnits="userSpaceOnUse">
<stop stop-color="#4AA6A4"/>
<stop offset="1" stop-color="#537BA6"/>
</linearGradient>
<clipPath id="clip0_270_358">
<rect width="32" height="32" fill="white"/>
</clipPath>
</defs>
</svg>
