<svg xmlns="http://www.w3.org/2000/svg" xmlns:xlink="http://www.w3.org/1999/xlink" viewBox="0 0 48 48"><g transform="translate(0.282 0.395)"><path d="M 0 47.605 L 0 0.002 L 47.603 0.002 L 47.603 47.605 Z" fill="transparent"></path><path d="M 46.79 6.882 C 46.284 5.493 45.48 4.232 44.435 3.188 C 43.389 2.144 42.127 1.342 40.738 0.837 C 38.142 0 35.78 0 30.984 0 L 16.581 0 C 11.823 0 9.421 0 6.865 0.79 C 5.474 1.298 4.211 2.105 3.165 3.154 C 2.119 4.204 1.317 5.47 0.814 6.864 C 0 9.443 0 11.822 0 16.579 L 0 30.999 C 0 35.78 0 38.142 0.79 40.722 C 1.296 42.11 2.099 43.371 3.145 44.415 C 4.191 45.459 5.452 46.262 6.841 46.766 C 9.421 47.579 11.8 47.579 16.564 47.579 L 30.998 47.579 C 35.78 47.579 38.158 47.579 40.721 46.79 C 42.115 46.284 43.381 45.479 44.429 44.43 C 45.477 43.382 46.283 42.117 46.788 40.723 C 47.602 38.144 47.602 35.765 47.602 31 L 47.602 16.619 C 47.602 11.838 47.602 9.459 46.788 6.88 Z M 34.556 16.07 L 32.703 17.915 C 32.523 18.08 32.288 18.172 32.043 18.175 C 31.799 18.178 31.562 18.09 31.378 17.93 C 29.589 16.427 27.329 15.6 24.993 15.59 C 23.064 15.59 21.142 16.225 21.142 17.992 C 21.142 19.775 23.202 20.371 25.581 21.262 C 29.749 22.658 33.197 24.4 33.197 28.483 C 33.197 32.931 29.749 35.984 24.117 36.317 L 23.598 38.703 C 23.553 38.92 23.434 39.115 23.262 39.255 C 23.09 39.394 22.875 39.471 22.653 39.471 L 19.096 39.471 L 18.918 39.456 C 18.664 39.398 18.444 39.243 18.304 39.024 C 18.163 38.806 18.114 38.541 18.167 38.286 L 18.724 35.768 C 16.585 35.231 14.617 34.159 13.006 32.653 L 13.006 32.629 C 12.828 32.45 12.727 32.208 12.727 31.955 C 12.727 31.703 12.828 31.46 13.006 31.281 L 14.989 29.359 C 15.17 29.192 15.408 29.099 15.656 29.099 C 15.903 29.099 16.141 29.192 16.322 29.359 C 18.138 31.073 20.55 32.013 23.048 31.977 C 25.627 31.977 27.348 30.886 27.348 29.157 C 27.348 27.429 25.605 26.979 22.312 25.747 C 18.818 24.499 15.51 22.734 15.51 18.604 C 15.51 13.808 19.492 11.468 24.218 11.251 L 24.714 8.81 C 24.759 8.592 24.879 8.397 25.054 8.258 C 25.228 8.12 25.445 8.046 25.667 8.051 L 29.193 8.051 L 29.393 8.075 C 29.516 8.1 29.633 8.15 29.736 8.221 C 29.84 8.292 29.928 8.382 29.996 8.487 C 30.065 8.592 30.112 8.71 30.135 8.833 C 30.158 8.956 30.156 9.083 30.13 9.205 L 29.596 11.925 C 31.394 12.519 33.062 13.452 34.508 14.675 L 34.554 14.721 C 34.926 15.117 34.926 15.713 34.554 16.069 Z" fill="rgb(1,212,74)"></path></g></svg>
