<svg width="32" height="32" viewBox="0 0 32 32" fill="none" xmlns="http://www.w3.org/2000/svg">
<rect width="32" height="32" rx="16" fill="#D3D3D3"/>
<path d="M20.2476 12.3828V8.0929H22.1175V13.7028L20.2476 12.3828Z" stroke="black"/>
<path fill-rule="evenodd" clip-rule="evenodd" d="M15.0904 7.2455C15.1845 7.142 15.3009 7.07087 15.4256 7.03279C15.4854 7.01452 15.547 7.00389 15.609 7.00089C15.69 6.99695 15.7717 7.00608 15.8505 7.02844C15.9697 7.06218 16.082 7.12592 16.1758 7.21968L16.1758 7.21972L16.1758 7.21974L16.1758 7.2197L16.1759 7.21975L16.176 7.21985L16.1761 7.21999L16.1763 7.22018L16.1765 7.2204L16.1768 7.22066L16.1771 7.22096L16.1774 7.2213L16.1778 7.22169L16.1782 7.22211L16.1787 7.22258L16.1792 7.22309L16.1798 7.22364L16.1804 7.22424L16.181 7.22487L16.1817 7.22555L16.1824 7.22627L16.1832 7.22703L16.184 7.22783L16.1848 7.22868L16.1857 7.22957L16.1866 7.23051L16.1876 7.23148L16.1886 7.2325L16.1897 7.23357L16.1908 7.23468L16.192 7.23583L16.1932 7.23702L16.1944 7.23826L16.1957 7.23955L16.197 7.24088L16.1984 7.24225L16.1998 7.24367L16.2013 7.24514L16.2028 7.24664L16.2043 7.2482L16.2059 7.2498L16.2076 7.25145L16.2093 7.25314L16.211 7.25487L16.2128 7.25666L16.2146 7.25849L16.2165 7.26036L16.2184 7.26229L16.2204 7.26426L16.2224 7.26627L16.2245 7.26834L16.2266 7.27045L16.2287 7.27261L16.2309 7.27481L16.2332 7.27707L16.2355 7.27937L16.2378 7.28172L16.2402 7.28411L16.2427 7.28656L16.2452 7.28905L16.2477 7.2916L16.2503 7.29419L16.253 7.29683L16.2556 7.29952L16.2584 7.30226L16.2612 7.30504L16.264 7.30788L16.2669 7.31077L16.2698 7.31371L16.2728 7.31669L16.2759 7.31973L16.2789 7.32282L16.2821 7.32596L16.2853 7.32914L16.2885 7.33238L16.2918 7.33567L16.2951 7.33902L16.2985 7.34241L16.302 7.34585L16.3055 7.34935L16.309 7.3529L16.3126 7.3565L16.3163 7.36015L16.32 7.36385L16.3237 7.36761L16.3275 7.37142L16.3314 7.37528L16.3353 7.37919L16.3393 7.38316L16.3433 7.38718L16.3474 7.39125L16.3515 7.39538L16.3557 7.39956L16.3599 7.40379L16.3642 7.40808L16.3685 7.41242L16.3729 7.41682L16.3774 7.42127L16.3819 7.42577L16.3865 7.43033L16.3911 7.43495L16.3957 7.43962L16.4005 7.44434L16.4052 7.44912L16.4101 7.45395L16.415 7.45885L16.4199 7.46379L16.4249 7.46879L16.43 7.47385L16.4351 7.47897L16.4403 7.48414L16.4455 7.48937L16.4508 7.49465L16.4561 7.49999L16.4615 7.50539L16.467 7.51085L16.4725 7.51636L16.4781 7.52193L16.4837 7.52756L16.4894 7.53324L16.4951 7.53898L16.5009 7.54479L16.5068 7.55065L16.5127 7.55656L16.5187 7.56254L16.5247 7.56858L16.5308 7.57467L16.537 7.58082L16.5432 7.58704L16.5494 7.59331L16.5558 7.59964L16.5622 7.60603L16.5686 7.61248L16.5751 7.61899L16.5817 7.62556L16.5883 7.63219L16.595 7.63888L16.6018 7.64564L16.6086 7.65245L16.6154 7.65932L16.6224 7.66626L16.6294 7.67325L16.6364 7.68031L16.6436 7.68743L16.6507 7.69461L16.658 7.70185L16.6653 7.70915L16.6726 7.71652L16.6801 7.72395L16.6876 7.73144L16.6951 7.73899L16.7027 7.74661L16.7104 7.75429L16.7182 7.76203L16.726 7.76984L16.7338 7.7777L16.7418 7.78564L16.7498 7.79363L16.7578 7.80169L16.7659 7.80982L16.7741 7.818L16.7824 7.82626L16.7907 7.83457L16.7991 7.84295L16.8075 7.8514L16.816 7.85991L16.8246 7.86849L16.8333 7.87713L16.842 7.88583L16.8507 7.89461L16.8596 7.90344L16.8685 7.91235L16.8774 7.92132L16.8865 7.93035L16.8956 7.93945L16.9048 7.94862L16.914 7.95786L16.9233 7.96716L16.9327 7.97653L16.9421 7.98596L16.9516 7.99547L16.9612 8.00504L16.9708 8.01468L16.9805 8.02438L16.9903 8.03416L17.0001 8.044L17.01 8.05391L17.02 8.06389L17.0301 8.07393L17.0402 8.08405L17.0504 8.09423L17.0606 8.10449L17.0709 8.11481L17.0813 8.1252L17.0918 8.13566L17.1023 8.14619L17.1129 8.15679L17.1236 8.16746L17.1343 8.1782L17.1451 8.18901L17.156 8.19989L17.167 8.21084L17.178 8.22186L17.1891 8.23296L17.2002 8.24412L17.2115 8.25536L17.2228 8.26666L17.2342 8.27804L17.2456 8.28949L17.2571 8.30101L17.2687 8.3126L17.2804 8.32427L17.2921 8.336L17.3039 8.34781L17.3158 8.35969L17.3278 8.37165L17.3398 8.38368L17.3519 8.39578L17.3641 8.40795L17.3763 8.4202L17.3886 8.43252L17.401 8.44491L17.4135 8.45738L17.426 8.46992L17.4387 8.48254L17.4514 8.49523L17.4641 8.50799L17.477 8.52083L17.4899 8.53374L17.5029 8.54673L17.5159 8.55979L17.5291 8.57293L17.5423 8.58615L17.5556 8.59944L17.5689 8.6128L17.5824 8.62624L17.5959 8.63976L17.6095 8.65335L17.6231 8.66702L17.6369 8.68077L17.6507 8.69459L17.6646 8.70849L17.6786 8.72246L17.6926 8.73652L17.7068 8.75064L17.721 8.76485L17.7353 8.77914L17.7496 8.7935L17.7641 8.80794L17.7786 8.82246L17.7932 8.83705L17.8079 8.85173L17.8226 8.86648L17.8374 8.88131L17.8524 8.89622L17.8673 8.91121L17.8824 8.92628L17.8976 8.94143L17.9128 8.95665L17.9281 8.97196L17.9435 8.98735L17.9589 9.00281L17.9745 9.01836L17.9901 9.03398L18.0058 9.04969L18.0216 9.06548L18.0375 9.08134L18.0534 9.09729L18.0694 9.11332L18.0856 9.12943L18.1017 9.14562L18.118 9.16189L18.1344 9.17825L18.1508 9.19468L18.1673 9.2112L18.1839 9.2278L18.2006 9.24448L18.2174 9.26124L18.2342 9.27809L18.2511 9.29502L18.2682 9.31203L18.2853 9.32913L18.3024 9.3463L18.3197 9.36357L18.337 9.38091L18.3545 9.39834L18.372 9.41585L18.3896 9.43345L18.4073 9.45113L18.425 9.46889L18.4429 9.48674L18.4608 9.50467L18.4788 9.52269L18.4969 9.54079L18.5151 9.55898L18.5334 9.57725L18.5517 9.59561L18.5702 9.61405L18.5887 9.63258L18.6073 9.65119L18.626 9.66989L18.6448 9.68868L18.6637 9.70755L18.6826 9.72651L18.7017 9.74555L18.7208 9.76468L18.74 9.7839L18.7593 9.80321L18.7787 9.8226L18.7982 9.84208L18.8178 9.86165L18.8374 9.8813L18.8572 9.90104L18.877 9.92087L18.8969 9.94079L18.9169 9.9608L18.937 9.9809L18.9572 10.0011L18.9775 10.0214L18.9978 10.0417L19.0183 10.0622L19.0388 10.0827L19.0595 10.1033L19.0802 10.124L19.101 10.1449L19.1219 10.1658L19.1429 10.1867L19.1639 10.2078L19.1851 10.229L19.2064 10.2502L19.2277 10.2716L19.2492 10.293L19.2707 10.3146L19.2923 10.3362L19.314 10.3579L19.3358 10.3797L19.3577 10.4016L19.3797 10.4236L19.4018 10.4457L19.424 10.4678L19.4462 10.4901L19.4686 10.5124L19.491 10.5349L19.5136 10.5574L19.5362 10.5801L19.5589 10.6028L19.5817 10.6256L19.6046 10.6485L19.6277 10.6715L19.6508 10.6946L19.6739 10.7178L19.6972 10.7411L19.7206 10.7645L19.7441 10.788L19.7677 10.8115L19.7913 10.8352L19.8151 10.8589L19.8389 10.8828L19.8629 10.9067L19.8869 10.9308L19.911 10.9549L19.9353 10.9792L19.9596 11.0035L19.984 11.0279L20.0085 11.0524L20.0332 11.077L20.0579 11.1017L20.0827 11.1266L20.1076 11.1515L20.1326 11.1765L20.1577 11.2016L20.1829 11.2268L20.2082 11.252L20.2336 11.2774L20.259 11.3029L20.2846 11.3285L20.3103 11.3542L20.3361 11.38L20.362 11.4058L20.3879 11.4318L20.414 11.4579L20.4402 11.4841L20.4665 11.5103L20.4928 11.5367L20.5193 11.5632L20.5459 11.5897L20.5725 11.6164L20.5993 11.6432L20.6262 11.67L20.6531 11.697L20.6802 11.7241L20.7074 11.7512L20.7346 11.7785L20.762 11.8059L20.7895 11.8333L20.817 11.8609L20.8447 11.8886L20.8725 11.9163L20.9003 11.9442L20.9283 11.9722L20.9564 12.0002L20.9845 12.0284L21.0128 12.0567L21.0412 12.0851L21.0697 12.1135L21.0983 12.1421L21.1269 12.1708L21.1557 12.1996L21.1846 12.2285L21.2136 12.2575L21.2427 12.2866L21.2719 12.3158L21.3012 12.3451L21.3306 12.3745L21.3601 12.404L21.3897 12.4336L21.4194 12.4633L21.4493 12.4931L21.4792 12.5231L21.5092 12.5531L21.5393 12.5832L21.5696 12.6135L21.5999 12.6438L21.6304 12.6742L21.6609 12.7048L21.6916 12.7355L21.7223 12.7662L21.7532 12.7971L21.7842 12.8281L21.8153 12.8591L21.8465 12.8903L21.8778 12.9216L21.9092 12.953L21.9407 12.9845L21.9723 13.0161L22.004 13.0479L22.0358 13.0797L22.0677 13.1116L22.0998 13.1437L22.1319 13.1758L22.1642 13.2081L22.1966 13.2404L22.229 13.2729L22.2616 13.3055L22.2943 13.3382L22.3271 13.371L22.36 13.4039L22.393 13.4369L22.4261 13.47L22.4594 13.5032L22.4927 13.5366L22.5262 13.57L22.5597 13.6036L22.5934 13.6373L22.6272 13.671L22.6611 13.7049L22.695 13.7389L22.7292 13.773L22.7634 13.8073L22.7977 13.8416L22.8321 13.876L22.8667 13.9106L22.9014 13.9452L22.9361 13.98L22.971 14.0149L23.006 14.0499L23.0411 14.085L23.0763 14.1202L23.1117 14.1556L23.1471 14.191L23.1827 14.2266L23.2184 14.2622L23.2541 14.298L23.29 14.3339L23.326 14.3699L23.3622 14.406L23.3984 14.4423L23.4347 14.4786L23.4712 14.5151L23.5078 14.5516L23.5445 14.5883L23.5813 14.6251L23.6182 14.662L23.6552 14.6991L23.6924 14.7362L23.7296 14.7735L23.767 14.8109L23.8045 14.8483L23.8421 14.886L23.8798 14.9237L23.9176 14.9615L23.9556 14.9995L23.9937 15.0375L24.0318 15.0757L24.0701 15.114L24.1085 15.1524L24.1471 15.1909L24.1857 15.2296L24.2245 15.2684L24.2634 15.3072L24.3024 15.3462L24.3415 15.3854L24.3807 15.4246L24.4201 15.4639L24.4595 15.5034L24.4991 15.543L24.5388 15.5827L24.5786 15.6225L24.6186 15.6624L24.6586 15.7025L24.6988 15.7427L24.7391 15.783L24.7795 15.8234L24.82 15.8639L24.8607 15.9046C25.1536 16.1975 25.1536 16.6723 24.8607 16.9652C24.5678 17.2581 24.0929 17.2581 23.8 16.9652L23.7594 16.9246L23.7189 16.884L23.6784 16.8436L23.6381 16.8033L23.598 16.7632L23.5579 16.7231L23.518 16.6832L23.4782 16.6433L23.4385 16.6036L23.3989 16.5641L23.3594 16.5246L23.3201 16.4852L23.2808 16.446L23.2417 16.4069L23.2027 16.3679L23.1638 16.329L23.1251 16.2903L23.0864 16.2516L23.0479 16.2131L23.0095 16.1747L22.9712 16.1364L22.933 16.0982L22.8949 16.0601L22.857 16.0222L22.8191 15.9843L22.7814 15.9466L22.7438 15.909L22.7116 15.8768V24.3304V25.0804H21.9616H10.1186H9.36858V24.3304V15.7694L9.36709 15.7711L9.33322 15.8083L9.29924 15.8457L9.26516 15.8832L9.23097 15.9208L9.19668 15.9585L9.16229 15.9963L9.12779 16.0343L9.09318 16.0724L9.05847 16.1105L9.02365 16.1488L8.98873 16.1873L8.9537 16.2258L8.91857 16.2644L8.88333 16.3032L8.84798 16.3421L8.81253 16.3811L8.77697 16.4202L8.74131 16.4594L8.70554 16.4988L8.66966 16.5382L8.63367 16.5778L8.59758 16.6175L8.56138 16.6573L8.52507 16.6973L8.48866 16.7373L8.45213 16.7775L8.4155 16.8178L8.37876 16.8582L8.34192 16.8988L8.30496 16.9394C8.02633 17.2459 7.55199 17.2685 7.2455 16.9899C6.93901 16.7112 6.91642 16.2369 7.19505 15.9304L7.23201 15.8897L7.26885 15.8492L7.30559 15.8088L7.34222 15.7685L7.37875 15.7283L7.41516 15.6883L7.45147 15.6483L7.48767 15.6085L7.52376 15.5688L7.55975 15.5292L7.59563 15.4898L7.6314 15.4504L7.66706 15.4112L7.70262 15.3721L7.73807 15.3331L7.77342 15.2942L7.80866 15.2554L7.84379 15.2168L7.87882 15.1782L7.91374 15.1398L7.94856 15.1015L7.98327 15.0633L8.01788 15.0253L8.05238 14.9873L8.08677 14.9495L8.12106 14.9118L8.15525 14.8742L8.18933 14.8367L8.22331 14.7993L8.25718 14.7621L8.29095 14.7249L8.32461 14.6879L8.35817 14.651L8.39163 14.6142L8.42498 14.5775L8.45823 14.5409L8.49138 14.5044L8.52442 14.4681L8.55736 14.4319L8.59019 14.3957L8.62293 14.3597L8.65556 14.3238L8.68809 14.288L8.72052 14.2524L8.75284 14.2168L8.78506 14.1814L8.81718 14.146L8.8492 14.1108L8.88112 14.0757L8.91293 14.0407L8.94465 14.0058L8.97626 13.9711L9.00777 13.9364L9.03918 13.9018L9.07049 13.8674L9.1017 13.8331L9.13281 13.7989L9.16382 13.7647L9.19473 13.7307L9.22553 13.6969L9.25624 13.6631L9.28685 13.6294L9.31736 13.5959L9.34777 13.5624L9.37808 13.5291L9.40829 13.4958L9.4384 13.4627L9.46841 13.4297L9.49833 13.3968L9.52814 13.364L9.55786 13.3313L9.58747 13.2987L9.61699 13.2663L9.64642 13.2339L9.67574 13.2016L9.70496 13.1695L9.73409 13.1374L9.76312 13.1055L9.79206 13.0737L9.82089 13.042L9.84963 13.0104L9.87827 12.9788L9.90682 12.9474L9.93527 12.9162L9.96362 12.885L9.99187 12.8539L10.02 12.8229L10.0481 12.792L10.0761 12.7613L10.1039 12.7306L10.1317 12.7001L10.1594 12.6696L10.187 12.6393L10.2145 12.609L10.2419 12.5789L10.2692 12.5489L10.2964 12.519L10.3235 12.4891L10.3505 12.4594L10.3774 12.4298L10.4042 12.4003L10.431 12.3709L10.4576 12.3416L10.4841 12.3124L10.5106 12.2833L10.5369 12.2543L10.5632 12.2254L10.5894 12.1966L10.6154 12.168L10.6414 12.1394L10.6673 12.1109L10.6931 12.0825L10.7188 12.0542L10.7444 12.0261L10.77 11.998L10.7954 11.97L10.8207 11.9422L10.846 11.9144L10.8711 11.8867L10.8962 11.8591L10.9211 11.8317L10.946 11.8043L10.9708 11.7771L10.9955 11.7499L11.0201 11.7228L11.0446 11.6959L11.069 11.669L11.0934 11.6422L11.1176 11.6156L11.1418 11.589L11.1658 11.5625L11.1898 11.5362L11.2137 11.5099L11.2375 11.4837L11.2612 11.4576L11.2848 11.4317L11.3083 11.4058L11.3318 11.38L11.3551 11.3543L11.3784 11.3287L11.4015 11.3033L11.4246 11.2779L11.4476 11.2526L11.4705 11.2274L11.4933 11.2023L11.5161 11.1773L11.5387 11.1524L11.5612 11.1276L11.5837 11.1029L11.6061 11.0782L11.6284 11.0537L11.6506 11.0293L11.6727 11.005L11.6947 10.9807L11.7167 10.9566L11.7385 10.9326L11.7603 10.9086L11.782 10.8848L11.8036 10.861L11.8251 10.8373L11.8465 10.8138L11.8679 10.7903L11.8891 10.7669L11.9103 10.7436L11.9314 10.7204L11.9524 10.6974L11.9733 10.6743L11.9941 10.6514L12.0148 10.6286L12.0355 10.6059L12.0561 10.5833L12.0766 10.5607L12.097 10.5383L12.1173 10.5159L12.1375 10.4937L12.1577 10.4715L12.1778 10.4494L12.1978 10.4274L12.2177 10.4055L12.2375 10.3837L12.2572 10.362L12.2769 10.3404L12.2964 10.3189L12.3159 10.2974L12.3353 10.2761L12.3547 10.2548L12.3739 10.2336L12.3931 10.2126L12.4122 10.1916L12.4312 10.1707L12.4501 10.1499L12.4689 10.1292L12.4877 10.1085L12.5063 10.088L12.5249 10.0675L12.5434 10.0472L12.5619 10.0269L12.5802 10.0067L12.5985 9.98663L12.6167 9.96662L12.6348 9.9467L12.6528 9.92687L12.6707 9.90713L12.6886 9.88747L12.7064 9.86791L12.7241 9.84843L12.7417 9.82903L12.7593 9.80973L12.7768 9.79051L12.7942 9.77138L12.8115 9.75233L12.8287 9.73337L12.8459 9.7145L12.8629 9.69572L12.8799 9.67702L12.8969 9.6584L12.9137 9.63987L12.9305 9.62143L12.9472 9.60307L12.9638 9.5848L12.9803 9.56661L12.9968 9.54851L13.0131 9.5305L13.0294 9.51256L13.0457 9.49471L13.0618 9.47695L13.0779 9.45927L13.0939 9.44168L13.1098 9.42416L13.1256 9.40674L13.1414 9.38939L13.1571 9.37213L13.1727 9.35495L13.1883 9.33786L13.2037 9.32085L13.2191 9.30392L13.2344 9.28707L13.2497 9.27031L13.2648 9.25362L13.2799 9.23703L13.2949 9.22051L13.3099 9.20407L13.3248 9.18772L13.3395 9.17145L13.3543 9.15525L13.3689 9.13914L13.3835 9.12312L13.398 9.10717L13.4124 9.0913L13.4268 9.07551L13.441 9.05981L13.4552 9.04418L13.4694 9.02864L13.4834 9.01317L13.4974 8.99779L13.5113 8.98248L13.5252 8.96725L13.5389 8.9521L13.5526 8.93704L13.5663 8.92205L13.5798 8.90714L13.5933 8.89231L13.6067 8.87755L13.6201 8.86288L13.6333 8.84828L13.6465 8.83376L13.6597 8.81932L13.6727 8.80496L13.6857 8.79068L13.6986 8.77647L13.7115 8.76234L13.7242 8.74829L13.7369 8.73431L13.7496 8.72041L13.7621 8.70659L13.7746 8.69285L13.7871 8.67918L13.7994 8.66558L13.8117 8.65207L13.8239 8.63863L13.8361 8.62526L13.8482 8.61197L13.8602 8.59876L13.8721 8.58562L13.884 8.57256L13.8958 8.55957L13.9075 8.54665L13.9192 8.53382L13.9308 8.52105L13.9424 8.50836L13.9538 8.49575L13.9652 8.4832L13.9766 8.47074L13.9878 8.45834L13.999 8.44602L14.0102 8.43378L14.0212 8.4216L14.0322 8.4095L14.0432 8.39747L14.054 8.38552L14.0648 8.37364L14.0756 8.36183L14.0862 8.35009L14.0968 8.33843L14.1074 8.32683L14.1178 8.31531L14.1283 8.30386L14.1386 8.29249L14.1489 8.28118L14.1591 8.26995L14.1692 8.25878L14.1793 8.24769L14.1893 8.23667L14.1993 8.22572L14.2092 8.21484L14.219 8.20403L14.2288 8.19329L14.2385 8.18262L14.2481 8.17202L14.2577 8.16149L14.2672 8.15102L14.2766 8.14063L14.286 8.13031L14.2954 8.12006L14.3046 8.10987L14.3138 8.09976L14.3229 8.08971L14.332 8.07973L14.341 8.06982L14.35 8.05998L14.3589 8.05021L14.3677 8.0405L14.3764 8.03086L14.3851 8.02129L14.3938 8.01179L14.4024 8.00235L14.4109 7.99299L14.4193 7.98368L14.4277 7.97445L14.4361 7.96528L14.4443 7.95618L14.4526 7.94714L14.4607 7.93817L14.4688 7.92927L14.4768 7.92043L14.4848 7.91166L14.4927 7.90295L14.5006 7.89431L14.5084 7.88574L14.5161 7.87722L14.5238 7.86878L14.5314 7.8604L14.539 7.85208L14.5465 7.84383L14.5539 7.83564L14.5613 7.82752L14.5686 7.81946L14.5759 7.81146L14.5831 7.80353L14.5903 7.79566L14.5974 7.78786L14.6044 7.78011L14.6114 7.77243L14.6183 7.76482L14.6252 7.75727L14.632 7.74977L14.6387 7.74235L14.6454 7.73498L14.6521 7.72768L14.6586 7.72043L14.6652 7.71325L14.6716 7.70614L14.6781 7.69908L14.6844 7.69208L14.6907 7.68515L14.697 7.67827L14.7032 7.67146L14.7093 7.66471L14.7154 7.65802L14.7214 7.65139L14.7274 7.64482L14.7333 7.63831L14.7392 7.63186L14.745 7.62546L14.7507 7.61913L14.7564 7.61286L14.7621 7.60665L14.7677 7.6005L14.7732 7.5944L14.7787 7.58837L14.7841 7.58239L14.7895 7.57647L14.7949 7.57061L14.8001 7.56481L14.8053 7.55907L14.8105 7.55338L14.8156 7.54775L14.8207 7.54218L14.8257 7.53667L14.8307 7.53122L14.8356 7.52582L14.8404 7.52048L14.8452 7.51519L14.85 7.50996L14.8547 7.50479L14.8593 7.49968L14.8639 7.49462L14.8685 7.48962L14.873 7.48467L14.8774 7.47978L14.8818 7.47494L14.8862 7.47017L14.8905 7.46544L14.8947 7.46077L14.8989 7.45616L14.903 7.4516L14.9071 7.44709L14.9112 7.44264L14.9152 7.43825L14.9191 7.4339L14.923 7.42962L14.9269 7.42538L14.9307 7.4212L14.9344 7.41708L14.9381 7.413L14.9418 7.40898L14.9454 7.40502L14.949 7.4011L14.9525 7.39724L14.9559 7.39343L14.9593 7.38968L14.9627 7.38597L14.966 7.38232L14.9693 7.37872L14.9725 7.37517L14.9757 7.37168L14.9788 7.36823L14.9819 7.36484L14.985 7.3615L14.9879 7.35821L14.9909 7.35497L14.9938 7.35178L14.9966 7.34864L14.9994 7.34556L15.0022 7.34252L15.0049 7.33953L15.0076 7.33659L15.0102 7.33371L15.0128 7.33087L15.0153 7.32808L15.0178 7.32534L15.0203 7.32265L15.0227 7.32001L15.025 7.31742L15.0273 7.31488L15.0296 7.31238L15.0318 7.30994L15.034 7.30754L15.0361 7.30519L15.0382 7.30289L15.0403 7.30064L15.0423 7.29843L15.0442 7.29627L15.0462 7.29416L15.048 7.2921L15.0499 7.29008L15.0517 7.28811L15.0534 7.28619L15.0551 7.28431L15.0568 7.28248L15.0584 7.2807L15.06 7.27896L15.0615 7.27727L15.063 7.27562L15.0645 7.27402L15.0659 7.27247L15.0673 7.27096L15.0686 7.2695L15.0699 7.26808L15.0711 7.2667L15.0723 7.26537L15.0735 7.26409L15.0746 7.26285L15.0757 7.26165L15.0768 7.2605L15.0778 7.25939L15.0787 7.25833L15.0797 7.25731L15.0806 7.25633L15.0814 7.2554L15.0822 7.25451L15.083 7.25366L15.0837 7.25285L15.0844 7.25209L15.0851 7.25137L15.0857 7.2507L15.0863 7.25006L15.0868 7.24947L15.0873 7.24892L15.0878 7.24841L15.0882 7.24794L15.0886 7.24751L15.0889 7.24713L15.0892 7.24679L15.0895 7.24648L15.0898 7.24622L15.09 7.246L15.0901 7.24582L15.0902 7.24568L15.0903 7.24558L15.0904 7.24552L15.0904 7.24557L15.0905 7.24555L15.0904 7.2455ZM10.8686 14.1194V23.5804H21.2116V14.3768L21.2009 14.3661L21.1684 14.3336L21.1359 14.3011L21.1035 14.2687L21.0713 14.2365L21.0391 14.2043L21.0071 14.1723L20.9752 14.1403L20.9433 14.1085L20.9116 14.0768L20.88 14.0452L20.8485 14.0137L20.8171 13.9823L20.7858 13.951L20.7546 13.9198L20.7235 13.8887L20.6926 13.8577L20.6617 13.8269L20.6309 13.7961L20.6003 13.7655L20.5697 13.7349L20.5393 13.7045L20.5089 13.6741L20.4787 13.6439L20.4486 13.6137L20.4185 13.5837L20.3886 13.5538L20.3588 13.524L20.3291 13.4943L20.2995 13.4646L20.2699 13.4351L20.2405 13.4057L20.2112 13.3764L20.182 13.3472L20.1529 13.3181L20.124 13.2891L20.0951 13.2603L20.0663 13.2315L20.0376 13.2028L20.009 13.1742L19.9805 13.1457L19.9522 13.1173L19.9239 13.0891L19.8957 13.0609L19.8676 13.0328L19.8397 13.0049L19.8118 12.977L19.784 12.9492L19.7564 12.9216L19.7288 12.894L19.7013 12.8665L19.674 12.8392L19.6467 12.8119L19.6195 12.7847L19.5925 12.7577L19.5655 12.7307L19.5386 12.7038L19.5119 12.6771L19.4852 12.6504L19.4586 12.6238L19.4322 12.5974L19.4058 12.571L19.3795 12.5447L19.3534 12.5185L19.3273 12.4925L19.3013 12.4665L19.2754 12.4406L19.2497 12.4148L19.224 12.3892L19.1984 12.3636L19.1729 12.3381L19.1475 12.3127L19.1222 12.2874L19.097 12.2622L19.0719 12.2371L19.0469 12.2121L19.022 12.1872L18.9972 12.1624L18.9725 12.1377L18.9479 12.1131L18.9234 12.0886L18.8989 12.0641L18.8746 12.0398L18.8504 12.0156L18.8263 11.9914L18.8022 11.9674L18.7783 11.9435L18.7544 11.9196L18.7307 11.8958L18.707 11.8722L18.6834 11.8486L18.6599 11.8251L18.6366 11.8018L18.6133 11.7785L18.5901 11.7553L18.567 11.7322L18.544 11.7092L18.5211 11.6863L18.4983 11.6635L18.4755 11.6407L18.4529 11.6181L18.4304 11.5956L18.4079 11.5731L18.3856 11.5508L18.3633 11.5285L18.3411 11.5063L18.319 11.4842L18.2971 11.4623L18.2752 11.4404L18.2534 11.4186L18.2317 11.3968L18.21 11.3752L18.1885 11.3537L18.1671 11.3323L18.1457 11.3109L18.1245 11.2896L18.1033 11.2685L18.0822 11.2474L18.0612 11.2264L18.0403 11.2055L18.0195 11.1847L17.9988 11.164L17.9782 11.1434L17.9576 11.1228L17.9372 11.1024L17.9168 11.082L17.8965 11.0617L17.8764 11.0416L17.8563 11.0215L17.8363 11.0015L17.8163 10.9815L17.7965 10.9617L17.7768 10.942L17.7571 10.9223L17.7375 10.9027L17.7181 10.8833L17.6987 10.8639L17.6794 10.8446L17.6602 10.8253L17.641 10.8062L17.622 10.7872L17.603 10.7682L17.5841 10.7493L17.5654 10.7306L17.5467 10.7119L17.528 10.6932L17.5095 10.6747L17.4911 10.6563L17.4727 10.6379L17.4544 10.6196L17.4363 10.6014L17.4182 10.5833L17.4001 10.5653L17.3822 10.5474L17.3644 10.5295L17.3466 10.5118L17.3289 10.4941L17.3113 10.4765L17.2938 10.459L17.2764 10.4416L17.259 10.4242L17.2418 10.407L17.2246 10.3898L17.2075 10.3727L17.1905 10.3557L17.1736 10.3388L17.1567 10.3219L17.1399 10.3051L17.1233 10.2885L17.1067 10.2719L17.0901 10.2553L17.0737 10.2389L17.0574 10.2226L17.0411 10.2063L17.0249 10.1901L17.0088 10.174L16.9928 10.158L16.9768 10.142L16.9609 10.1261L16.9452 10.1103L16.9295 10.0946L16.9138 10.079L16.8983 10.0635L16.8828 10.048L16.8674 10.0326L16.8521 10.0173L16.8369 10.0021L16.8217 9.98694L16.8067 9.97187L16.7917 9.95688L16.7768 9.94197L16.7619 9.92714L16.7472 9.91239L16.7325 9.89771L16.7179 9.88312L16.7034 9.8686L16.689 9.85416L16.6746 9.8398L16.6603 9.82551L16.6461 9.81131L16.632 9.79718L16.6179 9.78312L16.604 9.76915L16.5901 9.75525L16.5762 9.74143L16.5625 9.72768L16.5488 9.71401L16.5352 9.70042L16.5217 9.6869L16.5083 9.67346L16.4949 9.6601L16.4816 9.64681L16.4684 9.63359L16.4553 9.62045L16.4422 9.60739L16.4292 9.5944L16.4163 9.58149L16.4035 9.56865L16.3907 9.55589L16.378 9.5432L16.3654 9.53058L16.3528 9.51804L16.3404 9.50557L16.328 9.49318L16.3157 9.48086L16.3034 9.46861L16.2912 9.45644L16.2791 9.44434L16.2671 9.43231L16.2552 9.42035L16.2433 9.40847L16.2315 9.39666L16.2197 9.38493L16.2081 9.37326L16.1965 9.36167L16.185 9.35015L16.1735 9.3387L16.1621 9.32732L16.1508 9.31602L16.1396 9.30478L16.1284 9.29362L16.1173 9.28252L16.1063 9.2715L16.0954 9.26055L16.0845 9.24967L16.0737 9.23886L16.0629 9.22812L16.0523 9.21745L16.0417 9.20685L16.0311 9.19632L16.0207 9.18586L16.0103 9.17547L16 9.16515L15.9897 9.15489L15.9795 9.14471L15.9694 9.13459L15.9594 9.12455L15.9494 9.11457L15.9395 9.10466L15.9296 9.09482L15.9198 9.08504L15.9101 9.07534L15.9005 9.0657L15.8909 9.05613L15.8814 9.04662L15.872 9.03719L15.8626 9.02782L15.8533 9.01852L15.8441 9.00928L15.8349 9.00011L15.8258 8.99101L15.8168 8.98198L15.8078 8.97301L15.7989 8.9641L15.7901 8.95527L15.7813 8.94649L15.7726 8.93779L15.764 8.92915L15.7554 8.92057L15.7469 8.91206L15.7384 8.90361L15.73 8.89523L15.7217 8.88692L15.7135 8.87866L15.7053 8.87048L15.6972 8.86235L15.6891 8.85429L15.6811 8.8463L15.6732 8.83836L15.6713 8.83646L15.6712 8.83653L15.6638 8.84465L15.6564 8.85284L15.6489 8.86109L15.6413 8.86941L15.6337 8.87779L15.626 8.88623L15.6183 8.89474L15.6105 8.90332L15.6026 8.91196L15.5947 8.92067L15.5867 8.92944L15.5787 8.93828L15.5706 8.94718L15.5625 8.95615L15.5542 8.96519L15.546 8.97429L15.5376 8.98346L15.5292 8.99269L15.5208 9.00199L15.5123 9.01136L15.5037 9.0208L15.4951 9.0303L15.4864 9.03987L15.4776 9.04951L15.4688 9.05922L15.4599 9.06899L15.4509 9.07883L15.4419 9.08874L15.4329 9.09872L15.4237 9.10877L15.4145 9.11888L15.4053 9.12907L15.3959 9.13932L15.3866 9.14964L15.3771 9.16003L15.3676 9.17049L15.358 9.18103L15.3484 9.19163L15.3387 9.2023L15.3289 9.21304L15.3191 9.22385L15.3092 9.23473L15.2993 9.24568L15.2892 9.2567L15.2792 9.26779L15.269 9.27896L15.2588 9.29019L15.2485 9.3015L15.2382 9.31287L15.2278 9.32432L15.2173 9.33584L15.2067 9.34744L15.1961 9.3591L15.1855 9.37084L15.1747 9.38265L15.1639 9.39453L15.1531 9.40648L15.1421 9.41851L15.1311 9.43061L15.1201 9.44279L15.1089 9.45503L15.0977 9.46735L15.0865 9.47975L15.0751 9.49221L15.0637 9.50476L15.0523 9.51737L15.0407 9.53006L15.0291 9.54283L15.0174 9.55566L15.0057 9.56858L14.9939 9.58157L14.982 9.59463L14.9701 9.60777L14.9581 9.62098L14.946 9.63427L14.9338 9.64764L14.9216 9.66108L14.9093 9.67459L14.897 9.68819L14.8845 9.70186L14.8721 9.7156L14.8595 9.72942L14.8469 9.74332L14.8341 9.7573L14.8214 9.77135L14.8085 9.78548L14.7956 9.79969L14.7826 9.81397L14.7696 9.82833L14.7564 9.84277L14.7432 9.85729L14.73 9.87189L14.7166 9.88656L14.7032 9.90132L14.6897 9.91615L14.6762 9.93106L14.6626 9.94605L14.6489 9.96111L14.6351 9.97626L14.6212 9.99149L14.6073 10.0068L14.5933 10.0222L14.5793 10.0376L14.5652 10.0532L14.5509 10.0688L14.5367 10.0845L14.5223 10.1003L14.5079 10.1162L14.4934 10.1321L14.4788 10.1482L14.4642 10.1643L14.4495 10.1805L14.4347 10.1967L14.4198 10.2131L14.4049 10.2295L14.3898 10.246L14.3747 10.2626L14.3596 10.2793L14.3443 10.2961L14.329 10.3129L14.3136 10.3299L14.2982 10.3469L14.2826 10.364L14.267 10.3811L14.2513 10.3984L14.2356 10.4157L14.2197 10.4332L14.2038 10.4507L14.1878 10.4683L14.1717 10.486L14.1556 10.5037L14.1394 10.5216L14.123 10.5395L14.1067 10.5575L14.0902 10.5756L14.0737 10.5938L14.0571 10.6121L14.0404 10.6304L14.0236 10.6489L14.0068 10.6674L13.9898 10.686L13.9728 10.7047L13.9558 10.7235L13.9386 10.7424L13.9214 10.7613L13.9041 10.7804L13.8867 10.7995L13.8692 10.8187L13.8517 10.838L13.834 10.8574L13.8163 10.8769L13.7985 10.8965L13.7807 10.9161L13.7627 10.9359L13.7447 10.9557L13.7266 10.9756L13.7084 10.9956L13.6901 11.0157L13.6718 11.0359L13.6533 11.0562L13.6348 11.0765L13.6162 11.097L13.5976 11.1175L13.5788 11.1382L13.56 11.1589L13.5411 11.1797L13.5221 11.2006L13.503 11.2216L13.4838 11.2427L13.4646 11.2638L13.4453 11.2851L13.4258 11.3064L13.4064 11.3279L13.3868 11.3494L13.3671 11.371L13.3474 11.3927L13.3276 11.4145L13.3077 11.4364L13.2877 11.4584L13.2676 11.4805L13.2474 11.5027L13.2272 11.5249L13.2069 11.5473L13.1865 11.5697L13.166 11.5923L13.1454 11.6149L13.1248 11.6376L13.104 11.6604L13.0832 11.6834L13.0623 11.7064L13.0413 11.7295L13.0202 11.7526L12.999 11.7759L12.9778 11.7993L12.9564 11.8228L12.935 11.8464L12.9135 11.87L12.8919 11.8938L12.8702 11.9176L12.8484 11.9416L12.8266 11.9656L12.8046 11.9898L12.7826 12.014L12.7605 12.0383L12.7383 12.0627L12.716 12.0873L12.6936 12.1119L12.6712 12.1366L12.6486 12.1614L12.626 12.1863L12.6032 12.2113L12.5804 12.2364L12.5575 12.2616L12.5345 12.2869L12.5114 12.3123L12.4883 12.3378L12.465 12.3633L12.4417 12.389L12.4182 12.4148L12.3947 12.4407L12.3711 12.4666L12.3474 12.4927L12.3236 12.5189L12.2997 12.5452L12.2757 12.5715L12.2517 12.598L12.2275 12.6246L12.2033 12.6512L12.179 12.678L12.1545 12.7049L12.13 12.7318L12.1054 12.7589L12.0807 12.7861L12.0559 12.8133L12.0311 12.8407L12.0061 12.8682L11.981 12.8957L11.9559 12.9234L11.9306 12.9512L11.9053 12.979L11.8799 13.007L11.8543 13.0351L11.8287 13.0632L11.803 13.0915L11.7772 13.1199L11.7513 13.1484L11.7254 13.177L11.6993 13.2056L11.6731 13.2344L11.6469 13.2633L11.6205 13.2923L11.594 13.3214L11.5675 13.3506L11.5409 13.3799L11.5141 13.4093L11.4873 13.4388L11.4604 13.4684L11.4334 13.4981L11.4063 13.528L11.3791 13.5579L11.3518 13.5879L11.3244 13.6181L11.2969 13.6483L11.2693 13.6786L11.2416 13.7091L11.2138 13.7396L11.186 13.7703L11.158 13.8011L11.1299 13.8319L11.1018 13.8629L11.0735 13.894L11.0452 13.9252L11.0167 13.9565L10.9882 13.9879L10.9595 14.0194L10.9308 14.051L10.902 14.0827L10.873 14.1145L10.8686 14.1194Z" fill="black"/>
<rect x="14.2026" y="18.8776" width="3.67488" height="5.54483" rx="0.5" fill="url(#paint0_linear_133_174)" stroke="black"/>
<defs>
<linearGradient id="paint0_linear_133_174" x1="16.0401" y1="18.3776" x2="16.0401" y2="24.9224" gradientUnits="userSpaceOnUse">
<stop stop-color="#4AA6A4"/>
<stop offset="1" stop-color="#537BA6"/>
</linearGradient>
</defs>
</svg>
