<svg width="32" height="32" viewBox="0 0 32 32" fill="none" xmlns="http://www.w3.org/2000/svg">
<g clip-path="url(#clip0_140_41)">
<rect width="32" height="32" rx="16" fill="#D3D3D3"/>
<g filter="url(#filter0_d_140_41)">
<path d="M7.64694 23.6459C7.45196 23.8415 7.45196 24.1585 7.64694 24.354C7.84193 24.5496 8.15807 24.5496 8.35306 24.354L7.64694 23.6459ZM12.0467 19.2338L7.64694 23.6459L8.35306 24.354L12.7528 19.9419L12.0467 19.2338Z" fill="#031818"/>
<path d="M16.8892 8.5C20.5389 8.50012 23.5004 11.4675 23.5005 15.1309C23.5005 18.7943 20.539 21.7616 16.8892 21.7617C13.2393 21.7617 10.2778 18.7944 10.2778 15.1309C10.2779 11.4674 13.2393 8.5 16.8892 8.5Z" fill="url(#paint0_linear_140_41)" stroke="#031818"/>
</g>
<path d="M18.2236 13.6127L19.1726 13.2973C19.0414 12.9026 18.7281 12.6536 18.4099 12.5059C18.0904 12.3576 17.7151 12.2852 17.3476 12.2647C16.6283 12.2246 15.7833 12.3773 15.2283 12.7483L15.784 13.5797C16.0996 13.3687 16.7054 13.2305 17.292 13.2631C17.5773 13.279 17.8187 13.3339 17.9888 13.4129C18.1604 13.4926 18.2097 13.5709 18.2236 13.6127Z" fill="#B9CF32"/>
<path d="M16.957 12V17.8197" stroke="#B9CF32" stroke-linecap="round" filter="url(#filter1_d_140_41)"/>
</g>
<defs>
<filter id="filter0_d_140_41" x="3.50073" y="8" width="24.4993" height="24.5007" filterUnits="userSpaceOnUse" color-interpolation-filters="sRGB">
<feFlood flood-opacity="0" result="BackgroundImageFix"/>
<feColorMatrix in="SourceAlpha" type="matrix" values="0 0 0 0 0 0 0 0 0 0 0 0 0 0 0 0 0 0 127 0" result="hardAlpha"/>
<feOffset dy="4"/>
<feGaussianBlur stdDeviation="2"/>
<feComposite in2="hardAlpha" operator="out"/>
<feColorMatrix type="matrix" values="0 0 0 0 0 0 0 0 0 0 0 0 0 0 0 0 0 0 0.25 0"/>
<feBlend mode="normal" in2="BackgroundImageFix" result="effect1_dropShadow_140_41"/>
<feBlend mode="normal" in="SourceGraphic" in2="effect1_dropShadow_140_41" result="shape"/>
</filter>
<filter id="filter1_d_140_41" x="12.457" y="11.5" width="9" height="14.8197" filterUnits="userSpaceOnUse" color-interpolation-filters="sRGB">
<feFlood flood-opacity="0" result="BackgroundImageFix"/>
<feColorMatrix in="SourceAlpha" type="matrix" values="0 0 0 0 0 0 0 0 0 0 0 0 0 0 0 0 0 0 127 0" result="hardAlpha"/>
<feOffset dy="4"/>
<feGaussianBlur stdDeviation="2"/>
<feComposite in2="hardAlpha" operator="out"/>
<feColorMatrix type="matrix" values="0 0 0 0 0 0 0 0 0 0 0 0 0 0 0 0 0 0 0.25 0"/>
<feBlend mode="normal" in2="BackgroundImageFix" result="effect1_dropShadow_140_41"/>
<feBlend mode="normal" in="SourceGraphic" in2="effect1_dropShadow_140_41" result="shape"/>
</filter>
<linearGradient id="paint0_linear_140_41" x1="16.8889" y1="8" x2="16.8889" y2="22.262" gradientUnits="userSpaceOnUse">
<stop stop-color="#4AA6A4"/>
<stop offset="1" stop-color="#537BA6"/>
</linearGradient>
<clipPath id="clip0_140_41">
<rect width="32" height="32" rx="16" fill="white"/>
</clipPath>
</defs>
</svg>
