<svg width="32" height="32" viewBox="0 0 32 32" fill="none" xmlns="http://www.w3.org/2000/svg">
<g clip-path="url(#clip0_140_41)">
<rect width="32" height="32" rx="16" fill="#D3D3D3"/>
<g filter="url(#filter0_d_140_41)">
<path d="M7.64694 23.6459C7.45196 23.8415 7.45196 24.1585 7.64694 24.354C7.84193 24.5496 8.15807 24.5496 8.35306 24.354L7.64694 23.6459ZM12.0467 19.2338L7.64694 23.6459L8.35306 24.354L12.7528 19.9419L12.0467 19.2338Z" fill="#031818"/>
<path d="M16.8892 8.5C20.5389 8.50012 23.5004 11.4675 23.5005 15.1309C23.5005 18.7943 20.539 21.7616 16.8892 21.7617C13.2393 21.7617 10.2778 18.7944 10.2778 15.1309C10.2779 11.4674 13.2393 8.5 16.8892 8.5Z" fill="url(#paint0_linear_140_41)" stroke="#031818"/>
</g>
<path d="M18.2236 13.6127C18.3107 13.8748 18.5938 14.0166 18.8558 13.9295C19.1179 13.8424 19.2597 13.5593 19.1726 13.2973L18.2236 13.6127ZM16.0865 14.9099L16.0866 15.4099H16.0866L16.0865 14.9099ZM15.716 16.3647C15.716 16.0885 15.4922 15.8647 15.216 15.8647C14.9399 15.8647 14.716 16.0885 14.716 16.3647L15.716 16.3647ZM16.9571 14.9098V14.4098H16.957L16.9571 14.9098ZM19.1726 13.2973C19.0414 12.9026 18.7281 12.6536 18.4099 12.5059C18.0904 12.3576 17.7151 12.2852 17.3476 12.2647C16.6283 12.2246 15.7833 12.3773 15.2283 12.7483L15.784 13.5797C16.0996 13.3687 16.7054 13.2305 17.292 13.2631C17.5773 13.279 17.8187 13.3339 17.9888 13.4129C18.1604 13.4926 18.2097 13.5709 18.2236 13.6127L19.1726 13.2973ZM15.2283 12.7483C14.6375 13.1432 14.375 13.795 14.5556 14.3985C14.7394 15.013 15.3289 15.41 16.0866 15.4099L16.0865 14.4099C15.6835 14.4099 15.5475 14.225 15.5137 14.1119C15.4766 13.988 15.5042 13.7667 15.784 13.5797L15.2283 12.7483ZM18.1177 15.4098C18.2848 15.4098 18.4128 15.5068 18.4729 15.7079C18.5374 15.9235 18.4854 16.161 18.344 16.3028L19.0521 17.0089C19.4911 16.5687 19.5841 15.9332 19.431 15.4213C19.2735 14.8949 18.8212 14.4098 18.1177 14.4098V15.4098ZM18.344 16.3028C18.3441 16.3027 18.3416 16.3052 18.3352 16.31C18.3289 16.3148 18.3196 16.3212 18.3068 16.3289C18.2807 16.3445 18.2443 16.3627 18.196 16.382C18.0984 16.4211 17.9697 16.4578 17.8145 16.4877C17.5038 16.5476 17.1265 16.573 16.7622 16.5564C16.392 16.5395 16.0739 16.4809 15.866 16.3968C15.6222 16.2982 15.716 16.2544 15.716 16.3647L14.716 16.3647C14.7161 16.9115 15.1726 17.1951 15.491 17.3239C15.8453 17.4671 16.2889 17.5359 16.7166 17.5554C17.1504 17.5752 17.6072 17.5461 18.0038 17.4696C18.2022 17.4313 18.3954 17.3794 18.5676 17.3104C18.734 17.2438 18.9123 17.1491 19.0521 17.0089L18.344 16.3028ZM16.9571 14.9098C16.9571 15.4098 16.9571 15.4098 16.9571 15.4098C16.9571 15.4098 16.9571 15.4098 16.9571 15.4098C16.9571 15.4098 16.9571 15.4098 16.9571 15.4098C16.9571 15.4098 16.9571 15.4098 16.9571 15.4098C16.9572 15.4098 16.9572 15.4098 16.9572 15.4098C16.9572 15.4098 16.9572 15.4098 16.9572 15.4098C16.9572 15.4098 16.9572 15.4098 16.9573 15.4098C16.9573 15.4098 16.9573 15.4098 16.9573 15.4098C16.9573 15.4098 16.9573 15.4098 16.9574 15.4098C16.9574 15.4098 16.9574 15.4098 16.9574 15.4098C16.9574 15.4098 16.9575 15.4098 16.9575 15.4098C16.9575 15.4098 16.9575 15.4098 16.9576 15.4098C16.9576 15.4098 16.9576 15.4098 16.9577 15.4098C16.9577 15.4098 16.9577 15.4098 16.9577 15.4098C16.9578 15.4098 16.9578 15.4098 16.9578 15.4098C16.9579 15.4098 16.9579 15.4098 16.958 15.4098C16.958 15.4098 16.958 15.4098 16.9581 15.4098C16.9581 15.4098 16.9581 15.4098 16.9582 15.4098C16.9582 15.4098 16.9583 15.4098 16.9583 15.4098C16.9583 15.4098 16.9584 15.4098 16.9584 15.4098C16.9585 15.4098 16.9585 15.4098 16.9586 15.4098C16.9586 15.4098 16.9587 15.4098 16.9587 15.4098C16.9588 15.4098 16.9588 15.4098 16.9589 15.4098C16.9589 15.4098 16.959 15.4098 16.959 15.4098C16.9591 15.4098 16.9591 15.4098 16.9592 15.4098C16.9593 15.4098 16.9593 15.4098 16.9594 15.4098C16.9594 15.4098 16.9595 15.4098 16.9596 15.4098C16.9596 15.4098 16.9597 15.4098 16.9597 15.4098C16.9598 15.4098 16.9599 15.4098 16.9599 15.4098C16.96 15.4098 16.9601 15.4098 16.9601 15.4098C16.9602 15.4098 16.9603 15.4098 16.9603 15.4098C16.9604 15.4098 16.9605 15.4098 16.9606 15.4098C16.9606 15.4098 16.9607 15.4098 16.9608 15.4098C16.9609 15.4098 16.9609 15.4098 16.961 15.4098C16.9611 15.4098 16.9612 15.4098 16.9613 15.4098C16.9613 15.4098 16.9614 15.4098 16.9615 15.4098C16.9616 15.4098 16.9617 15.4098 16.9617 15.4098C16.9618 15.4098 16.9619 15.4098 16.962 15.4098C16.9621 15.4098 16.9622 15.4098 16.9623 15.4098C16.9624 15.4098 16.9625 15.4098 16.9625 15.4098C16.9626 15.4098 16.9627 15.4098 16.9628 15.4098C16.9629 15.4098 16.963 15.4098 16.9631 15.4098C16.9632 15.4098 16.9633 15.4098 16.9634 15.4098C16.9635 15.4098 16.9636 15.4098 16.9637 15.4098C16.9638 15.4098 16.9639 15.4098 16.964 15.4098C16.9641 15.4098 16.9642 15.4098 16.9643 15.4098C16.9644 15.4098 16.9645 15.4098 16.9647 15.4098C16.9648 15.4098 16.9649 15.4098 16.965 15.4098C16.9651 15.4098 16.9652 15.4098 16.9653 15.4098C16.9654 15.4098 16.9655 15.4098 16.9657 15.4098C16.9658 15.4098 16.9659 15.4098 16.966 15.4098C16.9661 15.4098 16.9663 15.4098 16.9664 15.4098C16.9665 15.4098 16.9666 15.4098 16.9667 15.4098C16.9669 15.4098 16.967 15.4098 16.9671 15.4098C16.9672 15.4098 16.9674 15.4098 16.9675 15.4098C16.9676 15.4098 16.9678 15.4098 16.9679 15.4098C16.968 15.4098 16.9681 15.4098 16.9683 15.4098C16.9684 15.4098 16.9685 15.4098 16.9687 15.4098C16.9688 15.4098 16.969 15.4098 16.9691 15.4098C16.9692 15.4098 16.9694 15.4098 16.9695 15.4098C16.9697 15.4098 16.9698 15.4098 16.9699 15.4098C16.9701 15.4098 16.9702 15.4098 16.9704 15.4098C16.9705 15.4098 16.9707 15.4098 16.9708 15.4098C16.971 15.4098 16.9711 15.4098 16.9713 15.4098C16.9714 15.4098 16.9716 15.4098 16.9717 15.4098C16.9719 15.4098 16.972 15.4098 16.9722 15.4098C16.9723 15.4098 16.9725 15.4098 16.9726 15.4098C16.9728 15.4098 16.973 15.4098 16.9731 15.4098C16.9733 15.4098 16.9734 15.4098 16.9736 15.4098C16.9738 15.4098 16.9739 15.4098 16.9741 15.4098C16.9743 15.4098 16.9744 15.4098 16.9746 15.4098C16.9748 15.4098 16.9749 15.4098 16.9751 15.4098C16.9753 15.4098 16.9755 15.4098 16.9756 15.4098C16.9758 15.4098 16.976 15.4098 16.9761 15.4098C16.9763 15.4098 16.9765 15.4098 16.9767 15.4098C16.9769 15.4098 16.977 15.4098 16.9772 15.4098C16.9774 15.4098 16.9776 15.4098 16.9778 15.4098C16.9779 15.4098 16.9781 15.4098 16.9783 15.4098C16.9785 15.4098 16.9787 15.4098 16.9789 15.4098C16.9791 15.4098 16.9793 15.4098 16.9794 15.4098C16.9796 15.4098 16.9798 15.4098 16.98 15.4098C16.9802 15.4098 16.9804 15.4098 16.9806 15.4098C16.9808 15.4098 16.981 15.4098 16.9812 15.4098C16.9814 15.4098 16.9816 15.4098 16.9818 15.4098C16.982 15.4098 16.9822 15.4098 16.9824 15.4098C16.9826 15.4098 16.9828 15.4098 16.983 15.4098C16.9832 15.4098 16.9834 15.4098 16.9836 15.4098C16.9839 15.4098 16.9841 15.4098 16.9843 15.4098C16.9845 15.4098 16.9847 15.4098 16.9849 15.4098C16.9851 15.4098 16.9853 15.4098 16.9856 15.4098C16.9858 15.4098 16.986 15.4098 16.9862 15.4098C16.9864 15.4098 16.9867 15.4098 16.9869 15.4098C16.9871 15.4098 16.9873 15.4098 16.9875 15.4098C16.9878 15.4098 16.988 15.4098 16.9882 15.4098C16.9885 15.4098 16.9887 15.4098 16.9889 15.4098C16.9891 15.4098 16.9894 15.4098 16.9896 15.4098C16.9898 15.4098 16.9901 15.4098 16.9903 15.4098C16.9905 15.4098 16.9908 15.4098 16.991 15.4098C16.9912 15.4098 16.9915 15.4098 16.9917 15.4098C16.992 15.4098 16.9922 15.4098 16.9925 15.4098C16.9927 15.4098 16.9929 15.4098 16.9932 15.4098C16.9934 15.4098 16.9937 15.4098 16.9939 15.4098C16.9942 15.4098 16.9944 15.4098 16.9947 15.4098C16.9949 15.4098 16.9952 15.4098 16.9954 15.4098C16.9957 15.4098 16.9959 15.4098 16.9962 15.4098C16.9965 15.4098 16.9967 15.4098 16.997 15.4098C16.9972 15.4098 16.9975 15.4098 16.9978 15.4098C16.998 15.4098 16.9983 15.4098 16.9985 15.4098C16.9988 15.4098 16.9991 15.4098 16.9993 15.4098C16.9996 15.4098 16.9999 15.4098 17.0001 15.4098C17.0004 15.4098 17.0007 15.4098 17.001 15.4098C17.0012 15.4098 17.0015 15.4098 17.0018 15.4098C17.0021 15.4098 17.0023 15.4098 17.0026 15.4098C17.0029 15.4098 17.0032 15.4098 17.0034 15.4098C17.0037 15.4098 17.004 15.4098 17.0043 15.4098C17.0046 15.4098 17.0049 15.4098 17.0051 15.4098C17.0054 15.4098 17.0057 15.4098 17.006 15.4098C17.0063 15.4098 17.0066 15.4098 17.0069 15.4098C17.0072 15.4098 17.0075 15.4098 17.0077 15.4098C17.008 15.4098 17.0083 15.4098 17.0086 15.4098C17.0089 15.4098 17.0092 15.4098 17.0095 15.4098C17.0098 15.4098 17.0101 15.4098 17.0104 15.4098C17.0107 15.4098 17.011 15.4098 17.0113 15.4098C17.0116 15.4098 17.012 15.4098 17.0123 15.4098C17.0126 15.4098 17.0129 15.4098 17.0132 15.4098C17.0135 15.4098 17.0138 15.4098 17.0141 15.4098C17.0144 15.4098 17.0148 15.4098 17.0151 15.4098C17.0154 15.4098 17.0157 15.4098 17.016 15.4098C17.0163 15.4098 17.0167 15.4098 17.017 15.4098C17.0173 15.4098 17.0176 15.4098 17.018 15.4098C17.0183 15.4098 17.0186 15.4098 17.0189 15.4098C17.0193 15.4098 17.0196 15.4098 17.0199 15.4098C17.0202 15.4098 17.0206 15.4098 17.0209 15.4098C17.0212 15.4098 17.0216 15.4098 17.0219 15.4098C17.0222 15.4098 17.0226 15.4098 17.0229 15.4098C17.0233 15.4098 17.0236 15.4098 17.0239 15.4098C17.0243 15.4098 17.0246 15.4098 17.025 15.4098C17.0253 15.4098 17.0257 15.4098 17.026 15.4098C17.0263 15.4098 17.0267 15.4098 17.027 15.4098C17.0274 15.4098 17.0277 15.4098 17.0281 15.4098C17.0284 15.4098 17.0288 15.4098 17.0292 15.4098C17.0295 15.4098 17.0299 15.4098 17.0302 15.4098C17.0306 15.4098 17.0309 15.4098 17.0313 15.4098C17.0317 15.4098 17.032 15.4098 17.0324 15.4098C17.0328 15.4098 17.0331 15.4098 17.0335 15.4098C17.0339 15.4098 17.0342 15.4098 17.0346 15.4098C17.035 15.4098 17.0353 15.4098 17.0357 15.4098C17.0361 15.4098 17.0364 15.4098 17.0368 15.4098C17.0372 15.4098 17.0376 15.4098 17.038 15.4098C17.0383 15.4098 17.0387 15.4098 17.0391 15.4098C17.0395 15.4098 17.0399 15.4098 17.0402 15.4098C17.0406 15.4098 17.041 15.4098 17.0414 15.4098C17.0418 15.4098 17.0422 15.4098 17.0426 15.4098C17.0429 15.4098 17.0433 15.4098 17.0437 15.4098C17.0441 15.4098 17.0445 15.4098 17.0449 15.4098C17.0453 15.4098 17.0457 15.4098 17.0461 15.4098C17.0465 15.4098 17.0469 15.4098 17.0473 15.4098C17.0477 15.4098 17.0481 15.4098 17.0485 15.4098C17.0489 15.4098 17.0493 15.4098 17.0497 15.4098C17.0501 15.4098 17.0505 15.4098 17.0509 15.4098C17.0513 15.4098 17.0518 15.4098 17.0522 15.4098C17.0526 15.4098 17.053 15.4098 17.0534 15.4098C17.0538 15.4098 17.0542 15.4098 17.0547 15.4098C17.0551 15.4098 17.0555 15.4098 17.0559 15.4098C17.0563 15.4098 17.0568 15.4098 17.0572 15.4098C17.0576 15.4098 17.058 15.4098 17.0585 15.4098C17.0589 15.4098 17.0593 15.4098 17.0598 15.4098C17.0602 15.4098 17.0606 15.4098 17.061 15.4098C17.0615 15.4098 17.0619 15.4098 17.0624 15.4098C17.0628 15.4098 17.0632 15.4098 17.0637 15.4098C17.0641 15.4098 17.0645 15.4098 17.065 15.4098C17.0654 15.4098 17.0659 15.4098 17.0663 15.4098C17.0668 15.4098 17.0672 15.4098 17.0677 15.4098C17.0681 15.4098 17.0685 15.4098 17.069 15.4098C17.0694 15.4098 17.0699 15.4098 17.0704 15.4098C17.0708 15.4098 17.0713 15.4098 17.0717 15.4098C17.0722 15.4098 17.0726 15.4098 17.0731 15.4098C17.0736 15.4098 17.074 15.4098 17.0745 15.4098C17.0749 15.4098 17.0754 15.4098 17.0759 15.4098C17.0763 15.4098 17.0768 15.4098 17.0773 15.4098C17.0777 15.4098 17.0782 15.4098 17.0787 15.4098C17.0792 15.4098 17.0796 15.4098 17.0801 15.4098C17.0806 15.4098 17.081 15.4098 17.0815 15.4098C17.082 15.4098 17.0825 15.4098 17.083 15.4098C17.0834 15.4098 17.0839 15.4098 17.0844 15.4098C17.0849 15.4098 17.0854 15.4098 17.0859 15.4098C17.0864 15.4098 17.0868 15.4098 17.0873 15.4098C17.0878 15.4098 17.0883 15.4098 17.0888 15.4098C17.0893 15.4098 17.0898 15.4098 17.0903 15.4098C17.0908 15.4098 17.0913 15.4098 17.0918 15.4098C17.0923 15.4098 17.0928 15.4098 17.0933 15.4098C17.0938 15.4098 17.0943 15.4098 17.0948 15.4098C17.0953 15.4098 17.0958 15.4098 17.0963 15.4098C17.0968 15.4098 17.0973 15.4098 17.0978 15.4098C17.0983 15.4098 17.0989 15.4098 17.0994 15.4098C17.0999 15.4098 17.1004 15.4098 17.1009 15.4098C17.1014 15.4098 17.1019 15.4098 17.1025 15.4098C17.103 15.4098 17.1035 15.4098 17.104 15.4098C17.1046 15.4098 17.1051 15.4098 17.1056 15.4098C17.1061 15.4098 17.1067 15.4098 17.1072 15.4098C17.1077 15.4098 17.1083 15.4098 17.1088 15.4098C17.1093 15.4098 17.1098 15.4098 17.1104 15.4098C17.1109 15.4098 17.1115 15.4098 17.112 15.4098C17.1125 15.4098 17.1131 15.4098 17.1136 15.4098C17.1142 15.4098 17.1147 15.4098 17.1152 15.4098C17.1158 15.4098 17.1163 15.4098 17.1169 15.4098C17.1174 15.4098 17.118 15.4098 17.1185 15.4098C17.1191 15.4098 17.1196 15.4098 17.1202 15.4098C17.1207 15.4098 17.1213 15.4098 17.1219 15.4098C17.1224 15.4098 17.123 15.4098 17.1235 15.4098C17.1241 15.4098 17.1247 15.4098 17.1252 15.4098C17.1258 15.4098 17.1263 15.4098 17.1269 15.4098C17.1275 15.4098 17.128 15.4098 17.1286 15.4098C17.1292 15.4098 17.1298 15.4098 17.1303 15.4098C17.1309 15.4098 17.1315 15.4098 17.132 15.4098C17.1326 15.4098 17.1332 15.4098 17.1338 15.4098C17.1344 15.4098 17.1349 15.4098 17.1355 15.4098C17.1361 15.4098 17.1367 15.4098 17.1373 15.4098C17.1379 15.4098 17.1384 15.4098 17.139 15.4098C17.1396 15.4098 17.1402 15.4098 17.1408 15.4098C17.1414 15.4098 17.142 15.4098 17.1426 15.4098C17.1432 15.4098 17.1438 15.4098 17.1444 15.4098C17.145 15.4098 17.1456 15.4098 17.1462 15.4098C17.1468 15.4098 17.1474 15.4098 17.148 15.4098C17.1486 15.4098 17.1492 15.4098 17.1498 15.4098C17.1504 15.4098 17.151 15.4098 17.1516 15.4098C17.1522 15.4098 17.1528 15.4098 17.1535 15.4098C17.1541 15.4098 17.1547 15.4098 17.1553 15.4098C17.1559 15.4098 17.1565 15.4098 17.1572 15.4098C17.1578 15.4098 17.1584 15.4098 17.159 15.4098C17.1597 15.4098 17.1603 15.4098 17.1609 15.4098C17.1615 15.4098 17.1622 15.4098 17.1628 15.4098C17.1634 15.4098 17.1641 15.4098 17.1647 15.4098C17.1653 15.4098 17.166 15.4098 17.1666 15.4098C17.1672 15.4098 17.1679 15.4098 17.1685 15.4098C17.1691 15.4098 17.1698 15.4098 17.1704 15.4098C17.1711 15.4098 17.1717 15.4098 17.1724 15.4098C17.173 15.4098 17.1737 15.4098 17.1743 15.4098C17.175 15.4098 17.1756 15.4098 17.1763 15.4098C17.1769 15.4098 17.1776 15.4098 17.1782 15.4098C17.1789 15.4098 17.1795 15.4098 17.1802 15.4098C17.1808 15.4098 17.1815 15.4098 17.1822 15.4098C17.1828 15.4098 17.1835 15.4098 17.1842 15.4098C17.1848 15.4098 17.1855 15.4098 17.1862 15.4098C17.1868 15.4098 17.1875 15.4098 17.1882 15.4098C17.1888 15.4098 17.1895 15.4098 17.1902 15.4098C17.1909 15.4098 17.1915 15.4098 17.1922 15.4098C17.1929 15.4098 17.1936 15.4098 17.1943 15.4098C17.195 15.4098 17.1956 15.4098 17.1963 15.4098C17.197 15.4098 17.1977 15.4098 17.1984 15.4098C17.1991 15.4098 17.1998 15.4098 17.2005 15.4098C17.2011 15.4098 17.2018 15.4098 17.2025 15.4098C17.2032 15.4098 17.2039 15.4098 17.2046 15.4098C17.2053 15.4098 17.206 15.4098 17.2067 15.4098C17.2074 15.4098 17.2081 15.4098 17.2088 15.4098C17.2095 15.4098 17.2102 15.4098 17.211 15.4098C17.2117 15.4098 17.2124 15.4098 17.2131 15.4098C17.2138 15.4098 17.2145 15.4098 17.2152 15.4098C17.2159 15.4098 17.2167 15.4098 17.2174 15.4098C17.2181 15.4098 17.2188 15.4098 17.2195 15.4098C17.2203 15.4098 17.221 15.4098 17.2217 15.4098C17.2224 15.4098 17.2232 15.4098 17.2239 15.4098C17.2246 15.4098 17.2253 15.4098 17.2261 15.4098C17.2268 15.4098 17.2275 15.4098 17.2283 15.4098C17.229 15.4098 17.2297 15.4098 17.2305 15.4098C17.2312 15.4098 17.232 15.4098 17.2327 15.4098C17.2334 15.4098 17.2342 15.4098 17.2349 15.4098C17.2357 15.4098 17.2364 15.4098 17.2372 15.4098C17.2379 15.4098 17.2387 15.4098 17.2394 15.4098C17.2402 15.4098 17.2409 15.4098 17.2417 15.4098C17.2424 15.4098 17.2432 15.4098 17.244 15.4098C17.2447 15.4098 17.2455 15.4098 17.2462 15.4098C17.247 15.4098 17.2478 15.4098 17.2485 15.4098C17.2493 15.4098 17.2501 15.4098 17.2508 15.4098C17.2516 15.4098 17.2524 15.4098 17.2531 15.4098C17.2539 15.4098 17.2547 15.4098 17.2555 15.4098C17.2562 15.4098 17.257 15.4098 17.2578 15.4098C17.2586 15.4098 17.2594 15.4098 17.2601 15.4098C17.2609 15.4098 17.2617 15.4098 17.2625 15.4098C17.2633 15.4098 17.2641 15.4098 17.2649 15.4098C17.2656 15.4098 17.2664 15.4098 17.2672 15.4098C17.268 15.4098 17.2688 15.4098 17.2696 15.4098C17.2704 15.4098 17.2712 15.4098 17.272 15.4098C17.2728 15.4098 17.2736 15.4098 17.2744 15.4098C17.2752 15.4098 17.276 15.4098 17.2768 15.4098C17.2776 15.4098 17.2784 15.4098 17.2792 15.4098C17.2801 15.4098 17.2809 15.4098 17.2817 15.4098C17.2825 15.4098 17.2833 15.4098 17.2841 15.4098C17.2849 15.4098 17.2858 15.4098 17.2866 15.4098C17.2874 15.4098 17.2882 15.4098 17.289 15.4098C17.2899 15.4098 17.2907 15.4098 17.2915 15.4098C17.2924 15.4098 17.2932 15.4098 17.294 15.4098C17.2948 15.4098 17.2957 15.4098 17.2965 15.4098C17.2973 15.4098 17.2982 15.4098 17.299 15.4098C17.2999 15.4098 17.3007 15.4098 17.3015 15.4098C17.3024 15.4098 17.3032 15.4098 17.3041 15.4098C17.3049 15.4098 17.3058 15.4098 17.3066 15.4098C17.3074 15.4098 17.3083 15.4098 17.3092 15.4098C17.31 15.4098 17.3109 15.4098 17.3117 15.4098C17.3126 15.4098 17.3134 15.4098 17.3143 15.4098C17.3151 15.4098 17.316 15.4098 17.3169 15.4098C17.3177 15.4098 17.3186 15.4098 17.3195 15.4098C17.3203 15.4098 17.3212 15.4098 17.3221 15.4098C17.3229 15.4098 17.3238 15.4098 17.3247 15.4098C17.3255 15.4098 17.3264 15.4098 17.3273 15.4098C17.3282 15.4098 17.329 15.4098 17.3299 15.4098C17.3308 15.4098 17.3317 15.4098 17.3326 15.4098C17.3335 15.4098 17.3343 15.4098 17.3352 15.4098C17.3361 15.4098 17.337 15.4098 17.3379 15.4098C17.3388 15.4098 17.3397 15.4098 17.3406 15.4098C17.3415 15.4098 17.3424 15.4098 17.3433 15.4098C17.3442 15.4098 17.3451 15.4098 17.346 15.4098C17.3469 15.4098 17.3478 15.4098 17.3487 15.4098C17.3496 15.4098 17.3505 15.4098 17.3514 15.4098C17.3523 15.4098 17.3532 15.4098 17.3541 15.4098C17.355 15.4098 17.3559 15.4098 17.3569 15.4098C17.3578 15.4098 17.3587 15.4098 17.3596 15.4098C17.3605 15.4098 17.3614 15.4098 17.3624 15.4098C17.3633 15.4098 17.3642 15.4098 17.3651 15.4098C17.3661 15.4098 17.367 15.4098 17.3679 15.4098C17.3689 15.4098 17.3698 15.4098 17.3707 15.4098C17.3717 15.4098 17.3726 15.4098 17.3735 15.4098C17.3745 15.4098 17.3754 15.4098 17.3763 15.4098C17.3773 15.4098 17.3782 15.4098 17.3792 15.4098C17.3801 15.4098 17.3811 15.4098 17.382 15.4098C17.383 15.4098 17.3839 15.4098 17.3849 15.4098C17.3858 15.4098 17.3868 15.4098 17.3877 15.4098C17.3887 15.4098 17.3896 15.4098 17.3906 15.4098C17.3915 15.4098 17.3925 15.4098 17.3935 15.4098C17.3944 15.4098 17.3954 15.4098 17.3964 15.4098C17.3973 15.4098 17.3983 15.4098 17.3993 15.4098C17.4002 15.4098 17.4012 15.4098 17.4022 15.4098C17.4031 15.4098 17.4041 15.4098 17.4051 15.4098C17.4061 15.4098 17.4071 15.4098 17.408 15.4098C17.409 15.4098 17.41 15.4098 17.411 15.4098C17.412 15.4098 17.413 15.4098 17.4139 15.4098C17.4149 15.4098 17.4159 15.4098 17.4169 15.4098C17.4179 15.4098 17.4189 15.4098 17.4199 15.4098C17.4209 15.4098 17.4219 15.4098 17.4229 15.4098C17.4239 15.4098 17.4249 15.4098 17.4259 15.4098C17.4269 15.4098 17.4279 15.4098 17.4289 15.4098C17.4299 15.4098 17.4309 15.4098 17.4319 15.4098C17.4329 15.4098 17.4339 15.4098 17.435 15.4098C17.436 15.4098 17.437 15.4098 17.438 15.4098C17.439 15.4098 17.44 15.4098 17.4411 15.4098C17.4421 15.4098 17.4431 15.4098 17.4441 15.4098C17.4452 15.4098 17.4462 15.4098 17.4472 15.4098C17.4482 15.4098 17.4493 15.4098 17.4503 15.4098C17.4513 15.4098 17.4524 15.4098 17.4534 15.4098C17.4544 15.4098 17.4555 15.4098 17.4565 15.4098C17.4576 15.4098 17.4586 15.4098 17.4596 15.4098C17.4607 15.4098 17.4617 15.4098 17.4628 15.4098C17.4638 15.4098 17.4649 15.4098 17.4659 15.4098C17.467 15.4098 17.468 15.4098 17.4691 15.4098C17.4701 15.4098 17.4712 15.4098 17.4723 15.4098C17.4733 15.4098 17.4744 15.4098 17.4754 15.4098C17.4765 15.4098 17.4776 15.4098 17.4786 15.4098C17.4797 15.4098 17.4808 15.4098 17.4818 15.4098C17.4829 15.4098 17.484 15.4098 17.485 15.4098C17.4861 15.4098 17.4872 15.4098 17.4883 15.4098C17.4893 15.4098 17.4904 15.4098 17.4915 15.4098C17.4926 15.4098 17.4937 15.4098 17.4948 15.4098C17.4958 15.4098 17.4969 15.4098 17.498 15.4098C17.4991 15.4098 17.5002 15.4098 17.5013 15.4098C17.5024 15.4098 17.5035 15.4098 17.5046 15.4098C17.5057 15.4098 17.5068 15.4098 17.5079 15.4098C17.509 15.4098 17.5101 15.4098 17.5112 15.4098C17.5123 15.4098 17.5134 15.4098 17.5145 15.4098C17.5156 15.4098 17.5167 15.4098 17.5178 15.4098C17.5189 15.4098 17.52 15.4098 17.5211 15.4098C17.5223 15.4098 17.5234 15.4098 17.5245 15.4098C17.5256 15.4098 17.5267 15.4098 17.5279 15.4098C17.529 15.4098 17.5301 15.4098 17.5312 15.4098C17.5324 15.4098 17.5335 15.4098 17.5346 15.4098C17.5358 15.4098 17.5369 15.4098 17.538 15.4098C17.5392 15.4098 17.5403 15.4098 17.5414 15.4098C17.5426 15.4098 17.5437 15.4098 17.5448 15.4098C17.546 15.4098 17.5471 15.4098 17.5483 15.4098C17.5494 15.4098 17.5506 15.4098 17.5517 15.4098C17.5529 15.4098 17.554 15.4098 17.5552 15.4098C17.5563 15.4098 17.5575 15.4098 17.5586 15.4098C17.5598 15.4098 17.561 15.4098 17.5621 15.4098C17.5633 15.4098 17.5644 15.4098 17.5656 15.4098C17.5668 15.4098 17.5679 15.4098 17.5691 15.4098C17.5703 15.4098 17.5714 15.4098 17.5726 15.4098C17.5738 15.4098 17.575 15.4098 17.5761 15.4098C17.5773 15.4098 17.5785 15.4098 17.5797 15.4098C17.5809 15.4098 17.582 15.4098 17.5832 15.4098C17.5844 15.4098 17.5856 15.4098 17.5868 15.4098C17.588 15.4098 17.5892 15.4098 17.5904 15.4098C17.5915 15.4098 17.5927 15.4098 17.5939 15.4098C17.5951 15.4098 17.5963 15.4098 17.5975 15.4098C17.5987 15.4098 17.5999 15.4098 17.6011 15.4098C17.6023 15.4098 17.6035 15.4098 17.6048 15.4098C17.606 15.4098 17.6072 15.4098 17.6084 15.4098C17.6096 15.4098 17.6108 15.4098 17.612 15.4098C17.6132 15.4098 17.6145 15.4098 17.6157 15.4098C17.6169 15.4098 17.6181 15.4098 17.6193 15.4098C17.6206 15.4098 17.6218 15.4098 17.623 15.4098C17.6242 15.4098 17.6255 15.4098 17.6267 15.4098C17.6279 15.4098 17.6292 15.4098 17.6304 15.4098C17.6316 15.4098 17.6329 15.4098 17.6341 15.4098C17.6354 15.4098 17.6366 15.4098 17.6378 15.4098C17.6391 15.4098 17.6403 15.4098 17.6416 15.4098C17.6428 15.4098 17.6441 15.4098 17.6453 15.4098C17.6466 15.4098 17.6478 15.4098 17.6491 15.4098C17.6503 15.4098 17.6516 15.4098 17.6529 15.4098C17.6541 15.4098 17.6554 15.4098 17.6566 15.4098C17.6579 15.4098 17.6592 15.4098 17.6604 15.4098C17.6617 15.4098 17.663 15.4098 17.6642 15.4098C17.6655 15.4098 17.6668 15.4098 17.6681 15.4098C17.6693 15.4098 17.6706 15.4098 17.6719 15.4098C17.6732 15.4098 17.6745 15.4098 17.6757 15.4098C17.677 15.4098 17.6783 15.4098 17.6796 15.4098C17.6809 15.4098 17.6822 15.4098 17.6835 15.4098C17.6848 15.4098 17.686 15.4098 17.6873 15.4098C17.6886 15.4098 17.6899 15.4098 17.6912 15.4098C17.6925 15.4098 17.6938 15.4098 17.6951 15.4098C17.6964 15.4098 17.6977 15.4098 17.699 15.4098C17.7004 15.4098 17.7017 15.4098 17.703 15.4098C17.7043 15.4098 17.7056 15.4098 17.7069 15.4098C17.7082 15.4098 17.7095 15.4098 17.7109 15.4098C17.7122 15.4098 17.7135 15.4098 17.7148 15.4098C17.7162 15.4098 17.7175 15.4098 17.7188 15.4098C17.7201 15.4098 17.7215 15.4098 17.7228 15.4098C17.7241 15.4098 17.7255 15.4098 17.7268 15.4098C17.7281 15.4098 17.7295 15.4098 17.7308 15.4098C17.7321 15.4098 17.7335 15.4098 17.7348 15.4098C17.7362 15.4098 17.7375 15.4098 17.7389 15.4098C17.7402 15.4098 17.7416 15.4098 17.7429 15.4098C17.7443 15.4098 17.7456 15.4098 17.747 15.4098C17.7483 15.4098 17.7497 15.4098 17.7511 15.4098C17.7524 15.4098 17.7538 15.4098 17.7551 15.4098C17.7565 15.4098 17.7579 15.4098 17.7592 15.4098C17.7606 15.4098 17.762 15.4098 17.7633 15.4098C17.7647 15.4098 17.7661 15.4098 17.7675 15.4098C17.7688 15.4098 17.7702 15.4098 17.7716 15.4098C17.773 15.4098 17.7744 15.4098 17.7757 15.4098C17.7771 15.4098 17.7785 15.4098 17.7799 15.4098C17.7813 15.4098 17.7827 15.4098 17.7841 15.4098C17.7855 15.4098 17.7869 15.4098 17.7883 15.4098C17.7897 15.4098 17.7911 15.4098 17.7925 15.4098C17.7939 15.4098 17.7953 15.4098 17.7967 15.4098C17.7981 15.4098 17.7995 15.4098 17.8009 15.4098C17.8023 15.4098 17.8037 15.4098 17.8051 15.4098C17.8065 15.4098 17.808 15.4098 17.8094 15.4098C17.8108 15.4098 17.8122 15.4098 17.8136 15.4098C17.815 15.4098 17.8165 15.4098 17.8179 15.4098C17.8193 15.4098 17.8208 15.4098 17.8222 15.4098C17.8236 15.4098 17.825 15.4098 17.8265 15.4098C17.8279 15.4098 17.8293 15.4098 17.8308 15.4098C17.8322 15.4098 17.8337 15.4098 17.8351 15.4098C17.8365 15.4098 17.838 15.4098 17.8394 15.4098C17.8409 15.4098 17.8423 15.4098 17.8438 15.4098C17.8452 15.4098 17.8467 15.4098 17.8481 15.4098C17.8496 15.4098 17.8511 15.4098 17.8525 15.4098C17.854 15.4098 17.8554 15.4098 17.8569 15.4098C17.8584 15.4098 17.8598 15.4098 17.8613 15.4098C17.8628 15.4098 17.8642 15.4098 17.8657 15.4098C17.8672 15.4098 17.8686 15.4098 17.8701 15.4098C17.8716 15.4098 17.8731 15.4098 17.8746 15.4098C17.876 15.4098 17.8775 15.4098 17.879 15.4098C17.8805 15.4098 17.882 15.4098 17.8835 15.4098C17.885 15.4098 17.8864 15.4098 17.8879 15.4098C17.8894 15.4098 17.8909 15.4098 17.8924 15.4098C17.8939 15.4098 17.8954 15.4098 17.8969 15.4098C17.8984 15.4098 17.8999 15.4098 17.9014 15.4098C17.9029 15.4098 17.9044 15.4098 17.9059 15.4098C17.9075 15.4098 17.909 15.4098 17.9105 15.4098C17.912 15.4098 17.9135 15.4098 17.915 15.4098C17.9165 15.4098 17.9181 15.4098 17.9196 15.4098C17.9211 15.4098 17.9226 15.4098 17.9242 15.4098C17.9257 15.4098 17.9272 15.4098 17.9288 15.4098C17.9303 15.4098 17.9318 15.4098 17.9334 15.4098C17.9349 15.4098 17.9364 15.4098 17.938 15.4098C17.9395 15.4098 17.941 15.4098 17.9426 15.4098C17.9441 15.4098 17.9457 15.4098 17.9472 15.4098C17.9488 15.4098 17.9503 15.4098 17.9519 15.4098C17.9534 15.4098 17.955 15.4098 17.9565 15.4098C17.9581 15.4098 17.9597 15.4098 17.9612 15.4098C17.9628 15.4098 17.9643 15.4098 17.9659 15.4098C17.9675 15.4098 17.969 15.4098 17.9706 15.4098C17.9722 15.4098 17.9737 15.4098 17.9753 15.4098C17.9769 15.4098 17.9785 15.4098 17.98 15.4098C17.9816 15.4098 17.9832 15.4098 17.9848 15.4098C17.9864 15.4098 17.988 15.4098 17.9895 15.4098C17.9911 15.4098 17.9927 15.4098 17.9943 15.4098C17.9959 15.4098 17.9975 15.4098 17.9991 15.4098C18.0007 15.4098 18.0023 15.4098 18.0039 15.4098C18.0055 15.4098 18.0071 15.4098 18.0087 15.4098C18.0103 15.4098 18.0119 15.4098 18.0135 15.4098C18.0151 15.4098 18.0167 15.4098 18.0183 15.4098C18.0199 15.4098 18.0216 15.4098 18.0232 15.4098C18.0248 15.4098 18.0264 15.4098 18.028 15.4098C18.0297 15.4098 18.0313 15.4098 18.0329 15.4098C18.0345 15.4098 18.0362 15.4098 18.0378 15.4098C18.0394 15.4098 18.041 15.4098 18.0427 15.4098C18.0443 15.4098 18.046 15.4098 18.0476 15.4098C18.0492 15.4098 18.0509 15.4098 18.0525 15.4098C18.0542 15.4098 18.0558 15.4098 18.0574 15.4098C18.0591 15.4098 18.0607 15.4098 18.0624 15.4098C18.064 15.4098 18.0657 15.4098 18.0674 15.4098C18.069 15.4098 18.0707 15.4098 18.0723 15.4098C18.074 15.4098 18.0757 15.4098 18.0773 15.4098C18.079 15.4098 18.0807 15.4098 18.0823 15.4098C18.084 15.4098 18.0857 15.4098 18.0873 15.4098C18.089 15.4098 18.0907 15.4098 18.0924 15.4098C18.094 15.4098 18.0957 15.4098 18.0974 15.4098C18.0991 15.4098 18.1008 15.4098 18.1025 15.4098C18.1041 15.4098 18.1058 15.4098 18.1075 15.4098C18.1092 15.4098 18.1109 15.4098 18.1126 15.4098C18.1143 15.4098 18.116 15.4098 18.1177 15.4098V14.4098C18.116 14.4098 18.1143 14.4098 18.1126 14.4098C18.1109 14.4098 18.1092 14.4098 18.1075 14.4098C18.1058 14.4098 18.1041 14.4098 18.1025 14.4098C18.1008 14.4098 18.0991 14.4098 18.0974 14.4098C18.0957 14.4098 18.094 14.4098 18.0924 14.4098C18.0907 14.4098 18.089 14.4098 18.0873 14.4098C18.0857 14.4098 18.084 14.4098 18.0823 14.4098C18.0807 14.4098 18.079 14.4098 18.0773 14.4098C18.0757 14.4098 18.074 14.4098 18.0723 14.4098C18.0707 14.4098 18.069 14.4098 18.0674 14.4098C18.0657 14.4098 18.064 14.4098 18.0624 14.4098C18.0607 14.4098 18.0591 14.4098 18.0574 14.4098C18.0558 14.4098 18.0542 14.4098 18.0525 14.4098C18.0509 14.4098 18.0492 14.4098 18.0476 14.4098C18.046 14.4098 18.0443 14.4098 18.0427 14.4098C18.041 14.4098 18.0394 14.4098 18.0378 14.4098C18.0362 14.4098 18.0345 14.4098 18.0329 14.4098C18.0313 14.4098 18.0297 14.4098 18.028 14.4098C18.0264 14.4098 18.0248 14.4098 18.0232 14.4098C18.0216 14.4098 18.0199 14.4098 18.0183 14.4098C18.0167 14.4098 18.0151 14.4098 18.0135 14.4098C18.0119 14.4098 18.0103 14.4098 18.0087 14.4098C18.0071 14.4098 18.0055 14.4098 18.0039 14.4098C18.0023 14.4098 18.0007 14.4098 17.9991 14.4098C17.9975 14.4098 17.9959 14.4098 17.9943 14.4098C17.9927 14.4098 17.9911 14.4098 17.9895 14.4098C17.988 14.4098 17.9864 14.4098 17.9848 14.4098C17.9832 14.4098 17.9816 14.4098 17.98 14.4098C17.9785 14.4098 17.9769 14.4098 17.9753 14.4098C17.9737 14.4098 17.9722 14.4098 17.9706 14.4098C17.969 14.4098 17.9675 14.4098 17.9659 14.4098C17.9643 14.4098 17.9628 14.4098 17.9612 14.4098C17.9597 14.4098 17.9581 14.4098 17.9565 14.4098C17.955 14.4098 17.9534 14.4098 17.9519 14.4098C17.9503 14.4098 17.9488 14.4098 17.9472 14.4098C17.9457 14.4098 17.9441 14.4098 17.9426 14.4098C17.941 14.4098 17.9395 14.4098 17.938 14.4098C17.9364 14.4098 17.9349 14.4098 17.9334 14.4098C17.9318 14.4098 17.9303 14.4098 17.9288 14.4098C17.9272 14.4098 17.9257 14.4098 17.9242 14.4098C17.9226 14.4098 17.9211 14.4098 17.9196 14.4098C17.9181 14.4098 17.9165 14.4098 17.915 14.4098C17.9135 14.4098 17.912 14.4098 17.9105 14.4098C17.909 14.4098 17.9075 14.4098 17.9059 14.4098C17.9044 14.4098 17.9029 14.4098 17.9014 14.4098C17.8999 14.4098 17.8984 14.4098 17.8969 14.4098C17.8954 14.4098 17.8939 14.4098 17.8924 14.4098C17.8909 14.4098 17.8894 14.4098 17.8879 14.4098C17.8864 14.4098 17.885 14.4098 17.8835 14.4098C17.882 14.4098 17.8805 14.4098 17.879 14.4098C17.8775 14.4098 17.876 14.4098 17.8746 14.4098C17.8731 14.4098 17.8716 14.4098 17.8701 14.4098C17.8686 14.4098 17.8672 14.4098 17.8657 14.4098C17.8642 14.4098 17.8628 14.4098 17.8613 14.4098C17.8598 14.4098 17.8584 14.4098 17.8569 14.4098C17.8554 14.4098 17.854 14.4098 17.8525 14.4098C17.8511 14.4098 17.8496 14.4098 17.8481 14.4098C17.8467 14.4098 17.8452 14.4098 17.8438 14.4098C17.8423 14.4098 17.8409 14.4098 17.8394 14.4098C17.838 14.4098 17.8365 14.4098 17.8351 14.4098C17.8337 14.4098 17.8322 14.4098 17.8308 14.4098C17.8293 14.4098 17.8279 14.4098 17.8265 14.4098C17.825 14.4098 17.8236 14.4098 17.8222 14.4098C17.8208 14.4098 17.8193 14.4098 17.8179 14.4098C17.8165 14.4098 17.815 14.4098 17.8136 14.4098C17.8122 14.4098 17.8108 14.4098 17.8094 14.4098C17.808 14.4098 17.8065 14.4098 17.8051 14.4098C17.8037 14.4098 17.8023 14.4098 17.8009 14.4098C17.7995 14.4098 17.7981 14.4098 17.7967 14.4098C17.7953 14.4098 17.7939 14.4098 17.7925 14.4098C17.7911 14.4098 17.7897 14.4098 17.7883 14.4098C17.7869 14.4098 17.7855 14.4098 17.7841 14.4098C17.7827 14.4098 17.7813 14.4098 17.7799 14.4098C17.7785 14.4098 17.7771 14.4098 17.7757 14.4098C17.7744 14.4098 17.773 14.4098 17.7716 14.4098C17.7702 14.4098 17.7688 14.4098 17.7675 14.4098C17.7661 14.4098 17.7647 14.4098 17.7633 14.4098C17.762 14.4098 17.7606 14.4098 17.7592 14.4098C17.7579 14.4098 17.7565 14.4098 17.7551 14.4098C17.7538 14.4098 17.7524 14.4098 17.7511 14.4098C17.7497 14.4098 17.7483 14.4098 17.747 14.4098C17.7456 14.4098 17.7443 14.4098 17.7429 14.4098C17.7416 14.4098 17.7402 14.4098 17.7389 14.4098C17.7375 14.4098 17.7362 14.4098 17.7348 14.4098C17.7335 14.4098 17.7321 14.4098 17.7308 14.4098C17.7295 14.4098 17.7281 14.4098 17.7268 14.4098C17.7255 14.4098 17.7241 14.4098 17.7228 14.4098C17.7215 14.4098 17.7201 14.4098 17.7188 14.4098C17.7175 14.4098 17.7162 14.4098 17.7148 14.4098C17.7135 14.4098 17.7122 14.4098 17.7109 14.4098C17.7095 14.4098 17.7082 14.4098 17.7069 14.4098C17.7056 14.4098 17.7043 14.4098 17.703 14.4098C17.7017 14.4098 17.7004 14.4098 17.699 14.4098C17.6977 14.4098 17.6964 14.4098 17.6951 14.4098C17.6938 14.4098 17.6925 14.4098 17.6912 14.4098C17.6899 14.4098 17.6886 14.4098 17.6873 14.4098C17.686 14.4098 17.6848 14.4098 17.6835 14.4098C17.6822 14.4098 17.6809 14.4098 17.6796 14.4098C17.6783 14.4098 17.677 14.4098 17.6757 14.4098C17.6745 14.4098 17.6732 14.4098 17.6719 14.4098C17.6706 14.4098 17.6693 14.4098 17.6681 14.4098C17.6668 14.4098 17.6655 14.4098 17.6642 14.4098C17.663 14.4098 17.6617 14.4098 17.6604 14.4098C17.6592 14.4098 17.6579 14.4098 17.6566 14.4098C17.6554 14.4098 17.6541 14.4098 17.6529 14.4098C17.6516 14.4098 17.6503 14.4098 17.6491 14.4098C17.6478 14.4098 17.6466 14.4098 17.6453 14.4098C17.6441 14.4098 17.6428 14.4098 17.6416 14.4098C17.6403 14.4098 17.6391 14.4098 17.6378 14.4098C17.6366 14.4098 17.6354 14.4098 17.6341 14.4098C17.6329 14.4098 17.6316 14.4098 17.6304 14.4098C17.6292 14.4098 17.6279 14.4098 17.6267 14.4098C17.6255 14.4098 17.6242 14.4098 17.623 14.4098C17.6218 14.4098 17.6206 14.4098 17.6193 14.4098C17.6181 14.4098 17.6169 14.4098 17.6157 14.4098C17.6145 14.4098 17.6132 14.4098 17.612 14.4098C17.6108 14.4098 17.6096 14.4098 17.6084 14.4098C17.6072 14.4098 17.606 14.4098 17.6048 14.4098C17.6035 14.4098 17.6023 14.4098 17.6011 14.4098C17.5999 14.4098 17.5987 14.4098 17.5975 14.4098C17.5963 14.4098 17.5951 14.4098 17.5939 14.4098C17.5927 14.4098 17.5915 14.4098 17.5904 14.4098C17.5892 14.4098 17.588 14.4098 17.5868 14.4098C17.5856 14.4098 17.5844 14.4098 17.5832 14.4098C17.582 14.4098 17.5809 14.4098 17.5797 14.4098C17.5785 14.4098 17.5773 14.4098 17.5761 14.4098C17.575 14.4098 17.5738 14.4098 17.5726 14.4098C17.5714 14.4098 17.5703 14.4098 17.5691 14.4098C17.5679 14.4098 17.5668 14.4098 17.5656 14.4098C17.5644 14.4098 17.5633 14.4098 17.5621 14.4098C17.561 14.4098 17.5598 14.4098 17.5586 14.4098C17.5575 14.4098 17.5563 14.4098 17.5552 14.4098C17.554 14.4098 17.5529 14.4098 17.5517 14.4098C17.5506 14.4098 17.5494 14.4098 17.5483 14.4098C17.5471 14.4098 17.546 14.4098 17.5448 14.4098C17.5437 14.4098 17.5426 14.4098 17.5414 14.4098C17.5403 14.4098 17.5392 14.4098 17.538 14.4098C17.5369 14.4098 17.5358 14.4098 17.5346 14.4098C17.5335 14.4098 17.5324 14.4098 17.5312 14.4098C17.5301 14.4098 17.529 14.4098 17.5279 14.4098C17.5267 14.4098 17.5256 14.4098 17.5245 14.4098C17.5234 14.4098 17.5223 14.4098 17.5211 14.4098C17.52 14.4098 17.5189 14.4098 17.5178 14.4098C17.5167 14.4098 17.5156 14.4098 17.5145 14.4098C17.5134 14.4098 17.5123 14.4098 17.5112 14.4098C17.5101 14.4098 17.509 14.4098 17.5079 14.4098C17.5068 14.4098 17.5057 14.4098 17.5046 14.4098C17.5035 14.4098 17.5024 14.4098 17.5013 14.4098C17.5002 14.4098 17.4991 14.4098 17.498 14.4098C17.4969 14.4098 17.4958 14.4098 17.4948 14.4098C17.4937 14.4098 17.4926 14.4098 17.4915 14.4098C17.4904 14.4098 17.4893 14.4098 17.4883 14.4098C17.4872 14.4098 17.4861 14.4098 17.485 14.4098C17.484 14.4098 17.4829 14.4098 17.4818 14.4098C17.4808 14.4098 17.4797 14.4098 17.4786 14.4098C17.4776 14.4098 17.4765 14.4098 17.4754 14.4098C17.4744 14.4098 17.4733 14.4098 17.4723 14.4098C17.4712 14.4098 17.4701 14.4098 17.4691 14.4098C17.468 14.4098 17.467 14.4098 17.4659 14.4098C17.4649 14.4098 17.4638 14.4098 17.4628 14.4098C17.4617 14.4098 17.4607 14.4098 17.4596 14.4098C17.4586 14.4098 17.4576 14.4098 17.4565 14.4098C17.4555 14.4098 17.4544 14.4098 17.4534 14.4098C17.4524 14.4098 17.4513 14.4098 17.4503 14.4098C17.4493 14.4098 17.4482 14.4098 17.4472 14.4098C17.4462 14.4098 17.4452 14.4098 17.4441 14.4098C17.4431 14.4098 17.4421 14.4098 17.4411 14.4098C17.44 14.4098 17.439 14.4098 17.438 14.4098C17.437 14.4098 17.436 14.4098 17.435 14.4098C17.4339 14.4098 17.4329 14.4098 17.4319 14.4098C17.4309 14.4098 17.4299 14.4098 17.4289 14.4098C17.4279 14.4098 17.4269 14.4098 17.4259 14.4098C17.4249 14.4098 17.4239 14.4098 17.4229 14.4098C17.4219 14.4098 17.4209 14.4098 17.4199 14.4098C17.4189 14.4098 17.4179 14.4098 17.4169 14.4098C17.4159 14.4098 17.4149 14.4098 17.4139 14.4098C17.413 14.4098 17.412 14.4098 17.411 14.4098C17.41 14.4098 17.409 14.4098 17.408 14.4098C17.4071 14.4098 17.4061 14.4098 17.4051 14.4098C17.4041 14.4098 17.4031 14.4098 17.4022 14.4098C17.4012 14.4098 17.4002 14.4098 17.3993 14.4098C17.3983 14.4098 17.3973 14.4098 17.3964 14.4098C17.3954 14.4098 17.3944 14.4098 17.3935 14.4098C17.3925 14.4098 17.3915 14.4098 17.3906 14.4098C17.3896 14.4098 17.3887 14.4098 17.3877 14.4098C17.3868 14.4098 17.3858 14.4098 17.3849 14.4098C17.3839 14.4098 17.383 14.4098 17.382 14.4098C17.3811 14.4098 17.3801 14.4098 17.3792 14.4098C17.3782 14.4098 17.3773 14.4098 17.3763 14.4098C17.3754 14.4098 17.3745 14.4098 17.3735 14.4098C17.3726 14.4098 17.3717 14.4098 17.3707 14.4098C17.3698 14.4098 17.3689 14.4098 17.3679 14.4098C17.367 14.4098 17.3661 14.4098 17.3651 14.4098C17.3642 14.4098 17.3633 14.4098 17.3624 14.4098C17.3614 14.4098 17.3605 14.4098 17.3596 14.4098C17.3587 14.4098 17.3578 14.4098 17.3569 14.4098C17.3559 14.4098 17.355 14.4098 17.3541 14.4098C17.3532 14.4098 17.3523 14.4098 17.3514 14.4098C17.3505 14.4098 17.3496 14.4098 17.3487 14.4098C17.3478 14.4098 17.3469 14.4098 17.346 14.4098C17.3451 14.4098 17.3442 14.4098 17.3433 14.4098C17.3424 14.4098 17.3415 14.4098 17.3406 14.4098C17.3397 14.4098 17.3388 14.4098 17.3379 14.4098C17.337 14.4098 17.3361 14.4098 17.3352 14.4098C17.3343 14.4098 17.3335 14.4098 17.3326 14.4098C17.3317 14.4098 17.3308 14.4098 17.3299 14.4098C17.329 14.4098 17.3282 14.4098 17.3273 14.4098C17.3264 14.4098 17.3255 14.4098 17.3247 14.4098C17.3238 14.4098 17.3229 14.4098 17.3221 14.4098C17.3212 14.4098 17.3203 14.4098 17.3195 14.4098C17.3186 14.4098 17.3177 14.4098 17.3169 14.4098C17.316 14.4098 17.3151 14.4098 17.3143 14.4098C17.3134 14.4098 17.3126 14.4098 17.3117 14.4098C17.3109 14.4098 17.31 14.4098 17.3092 14.4098C17.3083 14.4098 17.3074 14.4098 17.3066 14.4098C17.3058 14.4098 17.3049 14.4098 17.3041 14.4098C17.3032 14.4098 17.3024 14.4098 17.3015 14.4098C17.3007 14.4098 17.2999 14.4098 17.299 14.4098C17.2982 14.4098 17.2973 14.4098 17.2965 14.4098C17.2957 14.4098 17.2948 14.4098 17.294 14.4098C17.2932 14.4098 17.2924 14.4098 17.2915 14.4098C17.2907 14.4098 17.2899 14.4098 17.289 14.4098C17.2882 14.4098 17.2874 14.4098 17.2866 14.4098C17.2858 14.4098 17.2849 14.4098 17.2841 14.4098C17.2833 14.4098 17.2825 14.4098 17.2817 14.4098C17.2809 14.4098 17.2801 14.4098 17.2792 14.4098C17.2784 14.4098 17.2776 14.4098 17.2768 14.4098C17.276 14.4098 17.2752 14.4098 17.2744 14.4098C17.2736 14.4098 17.2728 14.4098 17.272 14.4098C17.2712 14.4098 17.2704 14.4098 17.2696 14.4098C17.2688 14.4098 17.268 14.4098 17.2672 14.4098C17.2664 14.4098 17.2656 14.4098 17.2649 14.4098C17.2641 14.4098 17.2633 14.4098 17.2625 14.4098C17.2617 14.4098 17.2609 14.4098 17.2601 14.4098C17.2594 14.4098 17.2586 14.4098 17.2578 14.4098C17.257 14.4098 17.2562 14.4098 17.2555 14.4098C17.2547 14.4098 17.2539 14.4098 17.2531 14.4098C17.2524 14.4098 17.2516 14.4098 17.2508 14.4098C17.2501 14.4098 17.2493 14.4098 17.2485 14.4098C17.2478 14.4098 17.247 14.4098 17.2462 14.4098C17.2455 14.4098 17.2447 14.4098 17.244 14.4098C17.2432 14.4098 17.2424 14.4098 17.2417 14.4098C17.2409 14.4098 17.2402 14.4098 17.2394 14.4098C17.2387 14.4098 17.2379 14.4098 17.2372 14.4098C17.2364 14.4098 17.2357 14.4098 17.2349 14.4098C17.2342 14.4098 17.2334 14.4098 17.2327 14.4098C17.232 14.4098 17.2312 14.4098 17.2305 14.4098C17.2297 14.4098 17.229 14.4098 17.2283 14.4098C17.2275 14.4098 17.2268 14.4098 17.2261 14.4098C17.2253 14.4098 17.2246 14.4098 17.2239 14.4098C17.2232 14.4098 17.2224 14.4098 17.2217 14.4098C17.221 14.4098 17.2203 14.4098 17.2195 14.4098C17.2188 14.4098 17.2181 14.4098 17.2174 14.4098C17.2167 14.4098 17.2159 14.4098 17.2152 14.4098C17.2145 14.4098 17.2138 14.4098 17.2131 14.4098C17.2124 14.4098 17.2117 14.4098 17.211 14.4098C17.2102 14.4098 17.2095 14.4098 17.2088 14.4098C17.2081 14.4098 17.2074 14.4098 17.2067 14.4098C17.206 14.4098 17.2053 14.4098 17.2046 14.4098C17.2039 14.4098 17.2032 14.4098 17.2025 14.4098C17.2018 14.4098 17.2011 14.4098 17.2005 14.4098C17.1998 14.4098 17.1991 14.4098 17.1984 14.4098C17.1977 14.4098 17.197 14.4098 17.1963 14.4098C17.1956 14.4098 17.195 14.4098 17.1943 14.4098C17.1936 14.4098 17.1929 14.4098 17.1922 14.4098C17.1915 14.4098 17.1909 14.4098 17.1902 14.4098C17.1895 14.4098 17.1888 14.4098 17.1882 14.4098C17.1875 14.4098 17.1868 14.4098 17.1862 14.4098C17.1855 14.4098 17.1848 14.4098 17.1842 14.4098C17.1835 14.4098 17.1828 14.4098 17.1822 14.4098C17.1815 14.4098 17.1808 14.4098 17.1802 14.4098C17.1795 14.4098 17.1789 14.4098 17.1782 14.4098C17.1776 14.4098 17.1769 14.4098 17.1763 14.4098C17.1756 14.4098 17.175 14.4098 17.1743 14.4098C17.1737 14.4098 17.173 14.4098 17.1724 14.4098C17.1717 14.4098 17.1711 14.4098 17.1704 14.4098C17.1698 14.4098 17.1691 14.4098 17.1685 14.4098C17.1679 14.4098 17.1672 14.4098 17.1666 14.4098C17.166 14.4098 17.1653 14.4098 17.1647 14.4098C17.1641 14.4098 17.1634 14.4098 17.1628 14.4098C17.1622 14.4098 17.1615 14.4098 17.1609 14.4098C17.1603 14.4098 17.1597 14.4098 17.159 14.4098C17.1584 14.4098 17.1578 14.4098 17.1572 14.4098C17.1565 14.4098 17.1559 14.4098 17.1553 14.4098C17.1547 14.4098 17.1541 14.4098 17.1535 14.4098C17.1528 14.4098 17.1522 14.4098 17.1516 14.4098C17.151 14.4098 17.1504 14.4098 17.1498 14.4098C17.1492 14.4098 17.1486 14.4098 17.148 14.4098C17.1474 14.4098 17.1468 14.4098 17.1462 14.4098C17.1456 14.4098 17.145 14.4098 17.1444 14.4098C17.1438 14.4098 17.1432 14.4098 17.1426 14.4098C17.142 14.4098 17.1414 14.4098 17.1408 14.4098C17.1402 14.4098 17.1396 14.4098 17.139 14.4098C17.1384 14.4098 17.1379 14.4098 17.1373 14.4098C17.1367 14.4098 17.1361 14.4098 17.1355 14.4098C17.1349 14.4098 17.1344 14.4098 17.1338 14.4098C17.1332 14.4098 17.1326 14.4098 17.132 14.4098C17.1315 14.4098 17.1309 14.4098 17.1303 14.4098C17.1298 14.4098 17.1292 14.4098 17.1286 14.4098C17.128 14.4098 17.1275 14.4098 17.1269 14.4098C17.1263 14.4098 17.1258 14.4098 17.1252 14.4098C17.1247 14.4098 17.1241 14.4098 17.1235 14.4098C17.123 14.4098 17.1224 14.4098 17.1219 14.4098C17.1213 14.4098 17.1207 14.4098 17.1202 14.4098C17.1196 14.4098 17.1191 14.4098 17.1185 14.4098C17.118 14.4098 17.1174 14.4098 17.1169 14.4098C17.1163 14.4098 17.1158 14.4098 17.1152 14.4098C17.1147 14.4098 17.1142 14.4098 17.1136 14.4098C17.1131 14.4098 17.1125 14.4098 17.112 14.4098C17.1115 14.4098 17.1109 14.4098 17.1104 14.4098C17.1098 14.4098 17.1093 14.4098 17.1088 14.4098C17.1083 14.4098 17.1077 14.4098 17.1072 14.4098C17.1067 14.4098 17.1061 14.4098 17.1056 14.4098C17.1051 14.4098 17.1046 14.4098 17.104 14.4098C17.1035 14.4098 17.103 14.4098 17.1025 14.4098C17.1019 14.4098 17.1014 14.4098 17.1009 14.4098C17.1004 14.4098 17.0999 14.4098 17.0994 14.4098C17.0989 14.4098 17.0983 14.4098 17.0978 14.4098C17.0973 14.4098 17.0968 14.4098 17.0963 14.4098C17.0958 14.4098 17.0953 14.4098 17.0948 14.4098C17.0943 14.4098 17.0938 14.4098 17.0933 14.4098C17.0928 14.4098 17.0923 14.4098 17.0918 14.4098C17.0913 14.4098 17.0908 14.4098 17.0903 14.4098C17.0898 14.4098 17.0893 14.4098 17.0888 14.4098C17.0883 14.4098 17.0878 14.4098 17.0873 14.4098C17.0868 14.4098 17.0864 14.4098 17.0859 14.4098C17.0854 14.4098 17.0849 14.4098 17.0844 14.4098C17.0839 14.4098 17.0834 14.4098 17.083 14.4098C17.0825 14.4098 17.082 14.4098 17.0815 14.4098C17.081 14.4098 17.0806 14.4098 17.0801 14.4098C17.0796 14.4098 17.0792 14.4098 17.0787 14.4098C17.0782 14.4098 17.0777 14.4098 17.0773 14.4098C17.0768 14.4098 17.0763 14.4098 17.0759 14.4098C17.0754 14.4098 17.0749 14.4098 17.0745 14.4098C17.074 14.4098 17.0736 14.4098 17.0731 14.4098C17.0726 14.4098 17.0722 14.4098 17.0717 14.4098C17.0713 14.4098 17.0708 14.4098 17.0704 14.4098C17.0699 14.4098 17.0694 14.4098 17.069 14.4098C17.0685 14.4098 17.0681 14.4098 17.0677 14.4098C17.0672 14.4098 17.0668 14.4098 17.0663 14.4098C17.0659 14.4098 17.0654 14.4098 17.065 14.4098C17.0645 14.4098 17.0641 14.4098 17.0637 14.4098C17.0632 14.4098 17.0628 14.4098 17.0624 14.4098C17.0619 14.4098 17.0615 14.4098 17.061 14.4098C17.0606 14.4098 17.0602 14.4098 17.0598 14.4098C17.0593 14.4098 17.0589 14.4098 17.0585 14.4098C17.058 14.4098 17.0576 14.4098 17.0572 14.4098C17.0568 14.4098 17.0563 14.4098 17.0559 14.4098C17.0555 14.4098 17.0551 14.4098 17.0547 14.4098C17.0542 14.4098 17.0538 14.4098 17.0534 14.4098C17.053 14.4098 17.0526 14.4098 17.0522 14.4098C17.0518 14.4098 17.0513 14.4098 17.0509 14.4098C17.0505 14.4098 17.0501 14.4098 17.0497 14.4098C17.0493 14.4098 17.0489 14.4098 17.0485 14.4098C17.0481 14.4098 17.0477 14.4098 17.0473 14.4098C17.0469 14.4098 17.0465 14.4098 17.0461 14.4098C17.0457 14.4098 17.0453 14.4098 17.0449 14.4098C17.0445 14.4098 17.0441 14.4098 17.0437 14.4098C17.0433 14.4098 17.0429 14.4098 17.0426 14.4098C17.0422 14.4098 17.0418 14.4098 17.0414 14.4098C17.041 14.4098 17.0406 14.4098 17.0402 14.4098C17.0399 14.4098 17.0395 14.4098 17.0391 14.4098C17.0387 14.4098 17.0383 14.4098 17.038 14.4098C17.0376 14.4098 17.0372 14.4098 17.0368 14.4098C17.0364 14.4098 17.0361 14.4098 17.0357 14.4098C17.0353 14.4098 17.035 14.4098 17.0346 14.4098C17.0342 14.4098 17.0339 14.4098 17.0335 14.4098C17.0331 14.4098 17.0328 14.4098 17.0324 14.4098C17.032 14.4098 17.0317 14.4098 17.0313 14.4098C17.0309 14.4098 17.0306 14.4098 17.0302 14.4098C17.0299 14.4098 17.0295 14.4098 17.0292 14.4098C17.0288 14.4098 17.0284 14.4098 17.0281 14.4098C17.0277 14.4098 17.0274 14.4098 17.027 14.4098C17.0267 14.4098 17.0263 14.4098 17.026 14.4098C17.0257 14.4098 17.0253 14.4098 17.025 14.4098C17.0246 14.4098 17.0243 14.4098 17.0239 14.4098C17.0236 14.4098 17.0233 14.4098 17.0229 14.4098C17.0226 14.4098 17.0222 14.4098 17.0219 14.4098C17.0216 14.4098 17.0212 14.4098 17.0209 14.4098C17.0206 14.4098 17.0202 14.4098 17.0199 14.4098C17.0196 14.4098 17.0193 14.4098 17.0189 14.4098C17.0186 14.4098 17.0183 14.4098 17.018 14.4098C17.0176 14.4098 17.0173 14.4098 17.017 14.4098C17.0167 14.4098 17.0163 14.4098 17.016 14.4098C17.0157 14.4098 17.0154 14.4098 17.0151 14.4098C17.0148 14.4098 17.0144 14.4098 17.0141 14.4098C17.0138 14.4098 17.0135 14.4098 17.0132 14.4098C17.0129 14.4098 17.0126 14.4098 17.0123 14.4098C17.012 14.4098 17.0116 14.4098 17.0113 14.4098C17.011 14.4098 17.0107 14.4098 17.0104 14.4098C17.0101 14.4098 17.0098 14.4098 17.0095 14.4098C17.0092 14.4098 17.0089 14.4098 17.0086 14.4098C17.0083 14.4098 17.008 14.4098 17.0077 14.4098C17.0075 14.4098 17.0072 14.4098 17.0069 14.4098C17.0066 14.4098 17.0063 14.4098 17.006 14.4098C17.0057 14.4098 17.0054 14.4098 17.0051 14.4098C17.0049 14.4098 17.0046 14.4098 17.0043 14.4098C17.004 14.4098 17.0037 14.4098 17.0034 14.4098C17.0032 14.4098 17.0029 14.4098 17.0026 14.4098C17.0023 14.4098 17.0021 14.4098 17.0018 14.4098C17.0015 14.4098 17.0012 14.4098 17.001 14.4098C17.0007 14.4098 17.0004 14.4098 17.0001 14.4098C16.9999 14.4098 16.9996 14.4098 16.9993 14.4098C16.9991 14.4098 16.9988 14.4098 16.9985 14.4098C16.9983 14.4098 16.998 14.4098 16.9978 14.4098C16.9975 14.4098 16.9972 14.4098 16.997 14.4098C16.9967 14.4098 16.9965 14.4098 16.9962 14.4098C16.9959 14.4098 16.9957 14.4098 16.9954 14.4098C16.9952 14.4098 16.9949 14.4098 16.9947 14.4098C16.9944 14.4098 16.9942 14.4098 16.9939 14.4098C16.9937 14.4098 16.9934 14.4098 16.9932 14.4098C16.9929 14.4098 16.9927 14.4098 16.9925 14.4098C16.9922 14.4098 16.992 14.4098 16.9917 14.4098C16.9915 14.4098 16.9912 14.4098 16.991 14.4098C16.9908 14.4098 16.9905 14.4098 16.9903 14.4098C16.9901 14.4098 16.9898 14.4098 16.9896 14.4098C16.9894 14.4098 16.9891 14.4098 16.9889 14.4098C16.9887 14.4098 16.9885 14.4098 16.9882 14.4098C16.988 14.4098 16.9878 14.4098 16.9875 14.4098C16.9873 14.4098 16.9871 14.4098 16.9869 14.4098C16.9867 14.4098 16.9864 14.4098 16.9862 14.4098C16.986 14.4098 16.9858 14.4098 16.9856 14.4098C16.9853 14.4098 16.9851 14.4098 16.9849 14.4098C16.9847 14.4098 16.9845 14.4098 16.9843 14.4098C16.9841 14.4098 16.9839 14.4098 16.9836 14.4098C16.9834 14.4098 16.9832 14.4098 16.983 14.4098C16.9828 14.4098 16.9826 14.4098 16.9824 14.4098C16.9822 14.4098 16.982 14.4098 16.9818 14.4098C16.9816 14.4098 16.9814 14.4098 16.9812 14.4098C16.981 14.4098 16.9808 14.4098 16.9806 14.4098C16.9804 14.4098 16.9802 14.4098 16.98 14.4098C16.9798 14.4098 16.9796 14.4098 16.9794 14.4098C16.9793 14.4098 16.9791 14.4098 16.9789 14.4098C16.9787 14.4098 16.9785 14.4098 16.9783 14.4098C16.9781 14.4098 16.9779 14.4098 16.9778 14.4098C16.9776 14.4098 16.9774 14.4098 16.9772 14.4098C16.977 14.4098 16.9769 14.4098 16.9767 14.4098C16.9765 14.4098 16.9763 14.4098 16.9761 14.4098C16.976 14.4098 16.9758 14.4098 16.9756 14.4098C16.9755 14.4098 16.9753 14.4098 16.9751 14.4098C16.9749 14.4098 16.9748 14.4098 16.9746 14.4098C16.9744 14.4098 16.9743 14.4098 16.9741 14.4098C16.9739 14.4098 16.9738 14.4098 16.9736 14.4098C16.9734 14.4098 16.9733 14.4098 16.9731 14.4098C16.973 14.4098 16.9728 14.4098 16.9726 14.4098C16.9725 14.4098 16.9723 14.4098 16.9722 14.4098C16.972 14.4098 16.9719 14.4098 16.9717 14.4098C16.9716 14.4098 16.9714 14.4098 16.9713 14.4098C16.9711 14.4098 16.971 14.4098 16.9708 14.4098C16.9707 14.4098 16.9705 14.4098 16.9704 14.4098C16.9702 14.4098 16.9701 14.4098 16.9699 14.4098C16.9698 14.4098 16.9697 14.4098 16.9695 14.4098C16.9694 14.4098 16.9692 14.4098 16.9691 14.4098C16.969 14.4098 16.9688 14.4098 16.9687 14.4098C16.9685 14.4098 16.9684 14.4098 16.9683 14.4098C16.9681 14.4098 16.968 14.4098 16.9679 14.4098C16.9678 14.4098 16.9676 14.4098 16.9675 14.4098C16.9674 14.4098 16.9672 14.4098 16.9671 14.4098C16.967 14.4098 16.9669 14.4098 16.9667 14.4098C16.9666 14.4098 16.9665 14.4098 16.9664 14.4098C16.9663 14.4098 16.9661 14.4098 16.966 14.4098C16.9659 14.4098 16.9658 14.4098 16.9657 14.4098C16.9655 14.4098 16.9654 14.4098 16.9653 14.4098C16.9652 14.4098 16.9651 14.4098 16.965 14.4098C16.9649 14.4098 16.9648 14.4098 16.9647 14.4098C16.9645 14.4098 16.9644 14.4098 16.9643 14.4098C16.9642 14.4098 16.9641 14.4098 16.964 14.4098C16.9639 14.4098 16.9638 14.4098 16.9637 14.4098C16.9636 14.4098 16.9635 14.4098 16.9634 14.4098C16.9633 14.4098 16.9632 14.4098 16.9631 14.4098C16.963 14.4098 16.9629 14.4098 16.9628 14.4098C16.9627 14.4098 16.9626 14.4098 16.9625 14.4098C16.9625 14.4098 16.9624 14.4098 16.9623 14.4098C16.9622 14.4098 16.9621 14.4098 16.962 14.4098C16.9619 14.4098 16.9618 14.4098 16.9617 14.4098C16.9617 14.4098 16.9616 14.4098 16.9615 14.4098C16.9614 14.4098 16.9613 14.4098 16.9613 14.4098C16.9612 14.4098 16.9611 14.4098 16.961 14.4098C16.9609 14.4098 16.9609 14.4098 16.9608 14.4098C16.9607 14.4098 16.9606 14.4098 16.9606 14.4098C16.9605 14.4098 16.9604 14.4098 16.9603 14.4098C16.9603 14.4098 16.9602 14.4098 16.9601 14.4098C16.9601 14.4098 16.96 14.4098 16.9599 14.4098C16.9599 14.4098 16.9598 14.4098 16.9597 14.4098C16.9597 14.4098 16.9596 14.4098 16.9596 14.4098C16.9595 14.4098 16.9594 14.4098 16.9594 14.4098C16.9593 14.4098 16.9593 14.4098 16.9592 14.4098C16.9591 14.4098 16.9591 14.4098 16.959 14.4098C16.959 14.4098 16.9589 14.4098 16.9589 14.4098C16.9588 14.4098 16.9588 14.4098 16.9587 14.4098C16.9587 14.4098 16.9586 14.4098 16.9586 14.4098C16.9585 14.4098 16.9585 14.4098 16.9584 14.4098C16.9584 14.4098 16.9583 14.4098 16.9583 14.4098C16.9583 14.4098 16.9582 14.4098 16.9582 14.4098C16.9581 14.4098 16.9581 14.4098 16.9581 14.4098C16.958 14.4098 16.958 14.4098 16.958 14.4098C16.9579 14.4098 16.9579 14.4098 16.9578 14.4098C16.9578 14.4098 16.9578 14.4098 16.9577 14.4098C16.9577 14.4098 16.9577 14.4098 16.9577 14.4098C16.9576 14.4098 16.9576 14.4098 16.9576 14.4098C16.9575 14.4098 16.9575 14.4098 16.9575 14.4098C16.9575 14.4098 16.9574 14.4098 16.9574 14.4098C16.9574 14.4098 16.9574 14.4098 16.9574 14.4098C16.9573 14.4098 16.9573 14.4098 16.9573 14.4098C16.9573 14.4098 16.9573 14.4098 16.9573 14.4098C16.9572 14.4098 16.9572 14.4098 16.9572 14.4098C16.9572 14.4098 16.9572 14.4098 16.9572 14.4098C16.9572 14.4098 16.9572 14.4098 16.9571 14.4098C16.9571 14.4098 16.9571 14.4098 16.9571 14.4098C16.9571 14.4098 16.9571 14.4098 16.9571 14.4098C16.9571 14.4098 16.9571 14.4098 16.9571 14.4098C16.9571 14.4098 16.9571 14.4098 16.9571 14.9098ZM16.0866 15.4099L16.9571 15.4098L16.957 14.4098L16.0865 14.4099L16.0866 15.4099Z" fill="#B9CF32"/>
<g filter="url(#filter1_d_140_41)">
<path d="M16.957 12V17.8197" stroke="#B9CF32" stroke-linecap="round"/>
</g>
</g>
<defs>
<filter id="filter0_d_140_41" x="3.50073" y="8" width="24.4993" height="24.5007" filterUnits="userSpaceOnUse" color-interpolation-filters="sRGB">
<feFlood flood-opacity="0" result="BackgroundImageFix"/>
<feColorMatrix in="SourceAlpha" type="matrix" values="0 0 0 0 0 0 0 0 0 0 0 0 0 0 0 0 0 0 127 0" result="hardAlpha"/>
<feOffset dy="4"/>
<feGaussianBlur stdDeviation="2"/>
<feComposite in2="hardAlpha" operator="out"/>
<feColorMatrix type="matrix" values="0 0 0 0 0 0 0 0 0 0 0 0 0 0 0 0 0 0 0.25 0"/>
<feBlend mode="normal" in2="BackgroundImageFix" result="effect1_dropShadow_140_41"/>
<feBlend mode="normal" in="SourceGraphic" in2="effect1_dropShadow_140_41" result="shape"/>
</filter>
<filter id="filter1_d_140_41" x="12.457" y="11.5" width="9" height="14.8197" filterUnits="userSpaceOnUse" color-interpolation-filters="sRGB">
<feFlood flood-opacity="0" result="BackgroundImageFix"/>
<feColorMatrix in="SourceAlpha" type="matrix" values="0 0 0 0 0 0 0 0 0 0 0 0 0 0 0 0 0 0 127 0" result="hardAlpha"/>
<feOffset dy="4"/>
<feGaussianBlur stdDeviation="2"/>
<feComposite in2="hardAlpha" operator="out"/>
<feColorMatrix type="matrix" values="0 0 0 0 0 0 0 0 0 0 0 0 0 0 0 0 0 0 0.25 0"/>
<feBlend mode="normal" in2="BackgroundImageFix" result="effect1_dropShadow_140_41"/>
<feBlend mode="normal" in="SourceGraphic" in2="effect1_dropShadow_140_41" result="shape"/>
</filter>
<linearGradient id="paint0_linear_140_41" x1="16.8889" y1="8" x2="16.8889" y2="22.262" gradientUnits="userSpaceOnUse">
<stop stop-color="#4AA6A4"/>
<stop offset="1" stop-color="#537BA6"/>
</linearGradient>
<clipPath id="clip0_140_41">
<rect width="32" height="32" rx="16" fill="white"/>
</clipPath>
</defs>
</svg>
