<svg xmlns="http://www.w3.org/2000/svg" xmlns:xlink="http://www.w3.org/1999/xlink" viewBox="0 0 28 48"><path d="M 16.932 48 L 11.33 48 C 11.078 48 10.835 47.898 10.657 47.717 C 10.478 47.536 10.378 47.29 10.378 47.034 L 10.378 41.504 L 1.313 41.504 C 0.965 41.504 0.631 41.363 0.385 41.113 C 0.139 40.864 0.001 40.525 0 40.172 L 0 35.704 C 0 35.405 0.099 35.115 0.28 34.88 L 16.329 14.116 L 2.033 14.116 C 1.684 14.116 1.35 13.976 1.103 13.725 C 0.856 13.475 0.718 13.136 0.718 12.782 L 0.718 7.828 C 0.718 7.094 1.307 6.496 2.031 6.496 L 10.372 6.496 L 10.372 0.966 C 10.372 0.434 10.8 0 11.324 0 L 16.926 0 C 17.451 0 17.879 0.434 17.879 0.966 L 17.879 6.496 L 26.403 6.496 C 27.126 6.496 27.716 7.094 27.716 7.828 L 27.716 12.102 C 27.716 12.399 27.618 12.688 27.438 12.922 L 11.289 33.884 L 26.403 33.884 C 27.126 33.884 27.716 34.482 27.716 35.216 L 27.716 40.17 C 27.716 40.524 27.578 40.862 27.332 41.112 C 27.085 41.363 26.751 41.504 26.403 41.504 L 17.885 41.504 L 17.885 47.034 C 17.885 47.29 17.784 47.536 17.606 47.717 C 17.427 47.898 17.185 48 16.932 48 Z" fill="rgb(110,30,212)"></path></svg>
